<svg version="1.1" xmlns="http://www.w3.org/2000/svg" viewBox="0 0 931.6085088393489 358.8072631897252" width="931.6085088393489" height="358.8072631897252">
  <!-- svg-source:excalidraw -->
  
  <defs>
    <style>
      @font-face {
        font-family: "Virgil";
        src: url("https://excalidraw.com/Virgil.woff2");
      }
      @font-face {
        font-family: "Cascadia";
        src: url("https://excalidraw.com/Cascadia.woff2");
      }
    </style>
  </defs>
  <g stroke-linecap="round" transform="translate(321.2619047619047 86.70295460089659) rotate(0 90 98.5)"><path d="M-0.31 -0.88 C67.39 1.32, 135.53 -1.05, 180.93 1.71 M0.41 0.96 C54.81 0.28, 109.41 0.37, 179.22 -0.14 M180.12 0.43 C178.82 73.15, 179.58 146.85, 180.98 195.07 M179.83 -0.8 C182.75 73.1, 181.03 149.13, 180.64 197.13 M178.38 196.29 C120.1 199.7, 57.35 197.4, -0.76 195.78 M179.02 197.09 C113.37 197.98, 47.29 196.48, -0.24 196.63 M1.96 196.57 C-0.63 141.09, 0.55 84.25, 0.96 0.72 M0.78 197.57 C-0.83 143.52, -2.17 90.23, 0.07 -0.01" stroke="#000000" stroke-width="1" fill="none"></path></g><g transform="translate(326.2619047619047 175.7029546008966) rotate(0 85 9.5)"><text x="85" y="15" font-family="Helvetica, Segoe UI Emoji" font-size="16px" fill="#000000" text-anchor="middle" style="white-space: pre;" direction="ltr">Application</text></g><g stroke-linecap="round"><g transform="translate(786.573310204194 130.98125328927648) rotate(0 66.47321231864316 0.8668021083194191)" fill-rule="evenodd"><path d="M0.02 -13.23 C0.02 -13.23, 0.02 -13.23, 0.02 -13.23 M0.02 -13.23 C0.02 -13.23, 0.02 -13.23, 0.02 -13.23 M-1.64 -8.78 C2.88 -11.81, 10.97 -17.86, 16.27 -28.4 M-0.25 -7.2 C2.84 -12.13, 6.66 -16.34, 18.46 -27.31 M0.56 -0.64 C12.57 -14.9, 22.99 -23.63, 29.67 -33.6 M-0.81 -1.2 C10.37 -11.92, 20.39 -24.19, 29.4 -34.84 M-0.9 4.27 C9 -2.57, 17.26 -15.54, 34.59 -37.15 M-1 5.13 C12.57 -9.5, 25.04 -24.47, 36.24 -35.65 M-0.88 9.65 C10.5 -3.62, 21.39 -15.81, 43.09 -37.42 M-0.54 11.38 C13.61 -4.4, 29.63 -22.94, 43.84 -37.25 M0.34 13.35 C10.97 4.51, 22.42 -10.59, 49.31 -37.49 M1.59 14.84 C14.08 3.64, 24.4 -10.08, 47.85 -37.28 M3.01 21.71 C13.78 6.23, 27.35 -8.23, 53.09 -39.98 M2.9 20.7 C19.07 2.89, 35.67 -17.31, 53.02 -37.49 M4.21 26.04 C15.76 9.55, 31.69 -6.24, 58.63 -37.39 M4.38 25.23 C16.72 12.28, 28.47 -2.41, 59.55 -38.35 M5.2 28.01 C25.55 6.74, 43.99 -14.64, 64.28 -39.58 M5.58 28.99 C22.68 9.74, 39.98 -8.98, 65.66 -39.76 M8.6 32.92 C31.52 3.3, 56.01 -24.11, 70.4 -38.23 M8.48 30.9 C23.92 14.21, 38.28 -2.58, 71.14 -39.63 M10.84 36.04 C34.25 7.7, 56.06 -16.92, 75.92 -40.7 M11.68 34.31 C35.53 8.58, 57.7 -18.2, 76.59 -39.12 M17.39 34.64 C37.66 11.82, 61.66 -14.91, 80.75 -37.59 M16.36 35.85 C34.16 14.4, 52.63 -7.54, 81.62 -40.24 M17.3 40.59 C35.31 20.88, 53.61 -1.48, 85.12 -38.55 M18.51 37.82 C36.25 18.15, 53.35 -1.28, 84.86 -39.03 M20.98 40.87 C45.33 16.9, 64.51 -8.36, 91.95 -36.3 M23.46 39.45 C44.79 15.7, 66.66 -9.44, 90.08 -37.72 M28.18 41.71 C45.16 22.9, 62.12 3.89, 95.51 -35.55 M27.54 40.81 C43.91 21.63, 62.3 0.63, 95.52 -36.85 M32.34 42.06 C55.35 13.04, 80.24 -13.97, 98.49 -35.92 M31.2 43.14 C54.83 15.8, 78.33 -11.33, 100.74 -36.5 M35.28 42.74 C56.38 19.21, 78.2 -3.48, 105.31 -37.11 M35.35 43.66 C63.82 10.99, 89.88 -20.84, 104.58 -36.59 M40.29 44.18 C56.02 29.35, 67.77 12.75, 109.82 -36.92 M39.27 44.24 C63.15 18.47, 85.1 -7.25, 108.67 -35.13 M43.98 45.05 C60.9 21.16, 79.2 2.83, 114.64 -34.58 M46.05 43.64 C61.93 25.03, 78.84 5.27, 113.4 -32.85 M50.21 44.25 C63.93 29.58, 78.88 11.83, 117.56 -30.78 M51.35 44.44 C72 18.88, 92.48 -5.27, 116.09 -31.32 M55.86 45.29 C74.06 20.59, 93.68 -0.89, 118.15 -26.79 M54.84 45.09 C79.93 17.58, 104.89 -10.81, 120.29 -29.41 M60.74 45.82 C76.05 28.14, 93.04 7.77, 124.2 -28.45 M60.81 44.28 C80.77 21.08, 100.82 -0.03, 123.97 -27.42 M68.06 43.91 C86.52 19.42, 106.23 -2.59, 124.34 -23.06 M66.41 44.99 C84.16 24.81, 101.12 5.73, 126.83 -23.21 M69.06 45.21 C80.81 31.13, 95.66 17.94, 127.15 -20.09 M68.95 46.42 C92.2 22.96, 112.08 -0.96, 129.13 -21.15 M74.64 48.37 C93.7 23.9, 116.05 -0.39, 129.67 -16.64 M75.29 47.18 C89.1 29.23, 105.14 11.72, 130.97 -16.77 M80.14 45.75 C94.29 26.36, 111.12 11.46, 131.99 -12.84 M81.32 46.83 C94.73 29.3, 110.57 12.91, 134.51 -14.41 M89.05 44.88 C102.27 26.71, 115.22 12.8, 135.09 -10.28 M89.35 43.05 C104.44 25.83, 119.58 5.9, 134.59 -10.82 M95.6 42.34 C106.83 28.58, 119.91 13.98, 135.95 -5.27 M93.51 42.39 C109.69 26.29, 124.83 8.78, 135.56 -4.68 M100.51 41.25 C111.1 26.69, 124.32 11.75, 136.84 2.07 M101.12 41.44 C112.19 28.85, 122.87 15.7, 135.27 1.09 M104.97 41.92 C113.12 34.26, 116.67 29.08, 134.4 8.8 M105.47 42.34 C112.25 35.03, 117.92 26.42, 135.86 8.13 M112.34 41.53 C119.76 30.53, 128.89 21.84, 137.6 14.73 M113.16 40.24 C119.91 30.93, 129.01 22.74, 136.45 12.96 M118.89 40.65 C123.22 33.37, 131.04 24.74, 139.53 17.53 M117.66 38.51 C126.09 30.75, 132.35 22.05, 136.67 17.91" stroke="#000000" stroke-width="0.5" fill="none"></path><path d="M0.57 -12.77 C0.53 -9.73, -0.09 -0.69, -0.08 5.33 C-0.08 11.35, -2.26 18.01, 0.6 23.36 C3.45 28.7, 9.64 34.14, 17.02 37.4 C24.4 40.66, 33.24 41.84, 44.87 42.92 C56.49 44, 74.8 44.66, 86.76 43.89 C98.73 43.12, 109.04 41.6, 116.66 38.3 C124.27 35, 129.39 29.57, 132.44 24.1 C135.49 18.63, 135.08 11.99, 134.94 5.49 C134.8 -1, 135.08 -8.49, 131.62 -14.89 C128.16 -21.3, 122.1 -28.67, 114.19 -32.93 C106.27 -37.19, 95.6 -39.21, 84.11 -40.45 C72.62 -41.69, 56.77 -42.13, 45.25 -40.35 C33.73 -38.57, 22.45 -34.26, 14.98 -29.77 C7.51 -25.29, 2.74 -16.35, 0.42 -13.43 M-0.58 -13.59 C-0.83 -10.91, -1.25 -2.18, -1.23 3.67 C-1.21 9.52, -3.61 16.25, -0.47 21.51 C2.67 26.77, 9.76 31.67, 17.63 35.22 C25.49 38.78, 35.05 41.57, 46.72 42.85 C58.39 44.13, 75.87 43.79, 87.63 42.89 C99.4 42, 109.98 40.76, 117.29 37.48 C124.61 34.21, 128.77 28.72, 131.5 23.25 C134.23 17.78, 133.56 10.99, 133.67 4.66 C133.79 -1.68, 135.4 -8.67, 132.2 -14.76 C128.99 -20.86, 122.64 -27.55, 114.43 -31.9 C106.21 -36.25, 94.4 -39.28, 82.91 -40.87 C71.42 -42.46, 56.95 -43.27, 45.5 -41.44 C34.06 -39.61, 21.67 -34.44, 14.25 -29.88 C6.83 -25.33, 3.51 -16.73, 0.97 -14.11" stroke="#000000" stroke-width="1" fill="none"></path></g></g><g stroke-linecap="round" transform="translate(797.8008750126647 93.47166814192497) rotate(0 54.67992870204182 20.91158746395365)"><path d="M64.39 -0.37 C73.57 0.01, 84.24 2.6, 91.65 5.33 C99.06 8.05, 106.32 12.3, 108.85 15.97 C111.39 19.64, 110.23 23.75, 106.84 27.36 C103.45 30.97, 96.34 35.07, 88.52 37.61 C80.7 40.15, 69.91 42.16, 59.93 42.6 C49.95 43.05, 37.28 42.16, 28.65 40.28 C20.02 38.39, 12.76 34.65, 8.13 31.29 C3.49 27.93, 0.65 23.91, 0.85 20.11 C1.05 16.31, 3.87 11.57, 9.33 8.46 C14.79 5.35, 23.68 2.69, 33.6 1.46 C43.53 0.22, 62.44 1.16, 68.89 1.03 C75.33 0.91, 72.57 0.35, 72.25 0.68 M34.7 0.66 C43.29 -0.65, 56.84 1.01, 66.7 1.67 C76.56 2.33, 87.14 2.28, 93.86 4.62 C100.57 6.96, 104.83 11.82, 107.01 15.72 C109.18 19.62, 110.29 24.6, 106.89 28.02 C103.49 31.45, 94.62 34.03, 86.6 36.25 C78.58 38.47, 68.42 41.01, 58.75 41.33 C49.09 41.65, 37.31 39.82, 28.62 38.17 C19.92 36.52, 11.18 34.61, 6.59 31.42 C2 28.24, 0.4 22.65, 1.1 19.04 C1.81 15.43, 5.19 12.97, 10.82 9.78 C16.46 6.59, 30.86 1.42, 34.92 -0.11 C38.97 -1.64, 34.96 0.08, 35.18 0.59" stroke="none" stroke-width="0" fill="#ffff"></path><path d="M74.77 1.98 C83.78 2.73, 92.58 4.83, 98.18 7.78 C103.79 10.73, 107.68 15.63, 108.39 19.66 C109.1 23.68, 107.08 28.77, 102.45 31.92 C97.83 35.07, 89.22 36.76, 80.64 38.54 C72.07 40.33, 60.89 42.64, 50.99 42.62 C41.09 42.61, 29.23 40.88, 21.26 38.47 C13.29 36.06, 6.44 31.84, 3.17 28.15 C-0.09 24.45, -0.52 20.08, 1.68 16.32 C3.88 12.56, 9.4 8.21, 16.36 5.59 C23.32 2.96, 32.93 1.17, 43.45 0.58 C53.96 -0.02, 72.68 1.38, 79.45 2.01 C86.23 2.64, 84.55 4.07, 84.08 4.34 M74.5 1.31 C83.59 2.45, 95.27 7.47, 101.27 10.46 C107.27 13.45, 110.51 15.46, 110.53 19.24 C110.54 23.03, 106.46 29.96, 101.34 33.18 C96.23 36.39, 88.68 37.17, 79.85 38.53 C71.02 39.88, 58.08 41.33, 48.35 41.31 C38.62 41.28, 28.86 40.52, 21.46 38.39 C14.07 36.25, 7.49 32.38, 3.98 28.53 C0.48 24.67, -1.93 19.23, 0.46 15.26 C2.84 11.3, 11.02 7.47, 18.31 4.74 C25.61 2, 34.85 -0.7, 44.23 -1.15 C53.62 -1.6, 69.24 1.51, 74.64 2.05 C80.04 2.6, 76.91 2.02, 76.62 2.12" stroke="#000000" stroke-width="1" fill="none"></path></g><g stroke-linecap="round"><g transform="translate(787.142477062708 165.29915734232452) rotate(0 66.05569977070888 27.66213558697018)" fill-rule="evenodd"><path d="M0 0 C0 0, 0 0, 0 0 M0 0 C0 0, 0 0, 0 0 M0.78 5.68 C0.79 4.57, 1.35 3.96, 3.87 1.87 M0.16 5.52 C1.54 4.65, 2.29 3.56, 3.73 1.92 M1.03 13.04 C2.42 10.23, 5.1 5.63, 7.08 2.68 M0.44 11.6 C2.12 9.71, 4.03 7.07, 7.28 3.52 M1.25 16.26 C1.93 14.1, 6.34 11.78, 9.29 5.03 M-0.04 17.56 C3.63 14.88, 6.06 11.12, 11.03 6.17 M-1.08 23.66 C3.26 21.77, 6.66 16.49, 14.25 7.89 M0.64 23.28 C5.15 20.52, 7.35 15.41, 13.17 7.41 M1.53 26.39 C6.92 24.52, 7.68 19.05, 16.83 9.29 M2.44 27.82 C6.23 23.46, 10.12 17.97, 18.62 10.41 M4.43 31.97 C9.08 23.91, 16.45 16.54, 20.9 12.99 M3.16 32.62 C8.15 27.19, 13.88 20.48, 22.19 12.03 M4.11 39.53 C11.62 30.04, 18.45 19, 24.13 13.65 M4.1 38.12 C11.85 29.43, 19.2 21.29, 26.29 12.46 M7.6 41.37 C12.49 33.01, 20.11 24.07, 28.8 12.44 M6.87 41.56 C16.32 30.36, 25.9 19.73, 29.16 14.09 M8.47 42.87 C18.61 34.96, 27.12 23.15, 35.01 14.63 M9.94 43.61 C15.79 37.12, 22.17 30.86, 33.68 14.81 M12.54 46.69 C23.67 32.65, 35.05 21.69, 37.83 15.35 M14.19 44.46 C22.06 36.48, 30.1 26.49, 39.29 16.61 M19.15 47.16 C23.33 41.51, 29.67 32.52, 44.53 17.72 M16.86 46.89 C25.67 37.37, 32.32 28.97, 44.97 15.42 M21.65 48.56 C31.67 35.91, 42.75 22.09, 49.76 16.35 M19.74 50.36 C26.27 41.69, 33.34 34.87, 49.07 15.46 M23.23 51.92 C36.7 40.06, 46.03 26.09, 54.01 17.95 M25.74 50.63 C32.25 41.7, 40.11 32.61, 53.56 17.57 M30.16 53.62 C38.81 42.47, 46.44 31.53, 60.9 19.11 M29.87 52.1 C36.48 43.98, 42.91 37.03, 59.98 17.85 M33.62 53.92 C39.74 44.95, 50.65 34.06, 64.28 18.13 M33.73 53.13 C44.16 41.59, 54.27 28.93, 64.28 17.19 M39.56 54.31 C47.19 42.96, 57.45 33.79, 69.47 16.83 M37.12 53.15 C48.64 40.88, 59.06 28.22, 68.8 17.89 M42.51 54.51 C52.8 41.38, 62.24 32.97, 73.07 15.59 M42.62 54.52 C51.92 43.21, 61.67 32.99, 75.76 16.51 M46.84 54.6 C61.85 40.06, 70.7 28.75, 82.19 17.48 M48.48 54.34 C57.63 44.28, 65.31 33.7, 81.26 16.74 M53.92 54.53 C64.1 43.72, 73.57 32.58, 87.64 17.71 M52.53 54.81 C63.17 42.73, 74.48 30, 86.12 16.68 M57.26 53.97 C67.99 44.65, 81.48 29.56, 90.43 16.59 M59.08 54.85 C70.54 40.86, 80.37 29.32, 89.15 18.5 M65.12 53.11 C75.78 40.31, 86.33 28.7, 97.53 17.4 M64.21 55.63 C71.94 45.79, 79.35 38.28, 96.63 18.19 M67.62 55.97 C75.79 46.17, 86.54 33.75, 101.28 16.17 M68.57 55.74 C80.84 42.86, 91.16 29.05, 102.41 16.03 M75.95 54.44 C79.87 47.92, 89.55 37.28, 108.39 14.07 M73.38 55.95 C82.3 45.47, 90.23 36.29, 108.64 14.84 M80.24 53.64 C92.36 39.86, 106.52 25.38, 114.54 14.31 M79.98 54.4 C92.24 41.34, 104.3 27.25, 115.09 13.63 M84.75 55.44 C96.5 42.19, 110.64 27.61, 130.03 1.86 M85.73 54.86 C102.43 36.1, 118.03 17.26, 132.55 1.05 M90.36 55.07 C105.7 36.83, 121.06 20.52, 132.44 9.09 M90.23 53.11 C100.21 41.56, 110.37 30.88, 132.13 7.9 M95.79 54.87 C105.65 42.81, 115.74 31.36, 133.14 11.77 M97.27 53.54 C103.44 45.13, 111.94 36.75, 131.57 12.85 M100.76 52.14 C111.22 45.22, 118.13 34.76, 130.17 20.79 M101.69 52.73 C108.52 45.1, 114.8 37.76, 130.8 18.98 M105.24 55.23 C111.69 48.01, 118.26 39.29, 133.07 25.15 M105.35 54.32 C113.66 46.64, 121.07 38.51, 132.5 24.5 M114.45 51.99 C122.4 45.53, 128.6 36.2, 130.84 31.71 M113.86 53.26 C120.56 44.65, 126.16 37.46, 132.77 31.36" stroke="#000000" stroke-width="0.5" fill="none"></path><path d="M-0.37 0.88 C-0.52 3.78, -0.87 11.89, -0.28 17.86 C0.31 23.84, 0.06 31.82, 3.15 36.7 C6.25 41.58, 11.09 44.17, 18.3 47.14 C25.51 50.12, 34.7 53.18, 46.42 54.54 C58.15 55.89, 77.31 56.27, 88.65 55.25 C99.99 54.24, 107.55 50.99, 114.45 48.46 C121.35 45.94, 127.19 44.55, 130.07 40.09 C132.95 35.63, 131.49 28.11, 131.73 21.73 C131.97 15.34, 132.09 4.71, 131.49 1.79 C130.88 -1.14, 131.29 2.67, 128.11 4.19 C124.92 5.7, 119.26 8.84, 112.36 10.85 C105.47 12.87, 97.13 15.37, 86.73 16.29 C76.33 17.21, 60.97 17.08, 49.97 16.37 C38.97 15.67, 29.07 14.85, 20.73 12.04 C12.39 9.22, 3.23 1.44, -0.07 -0.5 M1.63 0.29 C1.23 2.83, -1.71 10.49, -1.53 16.23 C-1.34 21.97, -0.54 29.48, 2.75 34.74 C6.04 40, 10.66 44.41, 18.22 47.79 C25.77 51.16, 36.1 53.81, 48.07 54.97 C60.04 56.13, 78.87 55.53, 90.06 54.74 C101.24 53.96, 108.62 52.68, 115.18 50.27 C121.75 47.87, 126.39 45.19, 129.45 40.29 C132.5 35.4, 133.07 27.41, 133.53 20.92 C133.98 14.44, 132.99 4.01, 132.18 1.38 C131.36 -1.24, 132.17 3.72, 128.64 5.18 C125.1 6.64, 117.92 8.44, 110.97 10.17 C104.02 11.89, 97.19 14.56, 86.94 15.55 C76.69 16.53, 60.98 16.66, 49.48 16.06 C37.99 15.47, 26.05 14.57, 17.96 11.97 C9.87 9.38, 3.89 2.25, 0.93 0.48" stroke="#000000" stroke-width="1" fill="none"></path></g></g><g stroke-linecap="round"><g transform="translate(786.7886800255827 211.09514448724497) rotate(0 66.36495976204492 26.336436208702594)" fill-rule="evenodd"><path d="M0 0 C0 0, 0 0, 0 0 M0 0 C0 0, 0 0, 0 0 M0.43 5.34 C0.79 4.4, 1.65 4.18, 3.67 1.69 M0.27 5.89 C1.1 5.01, 1.71 4.11, 3.73 1.94 M1.14 12.04 C3.84 9.08, 4.75 5.29, 6.29 3.73 M-0.31 11.89 C2.59 8.94, 4.76 6.6, 7.13 3.48 M-1 16.57 C3.38 14.4, 7.59 8.13, 9.6 5.48 M0.4 17.89 C3.91 14.23, 6.28 11.91, 10.82 4.83 M-0.15 24.24 C4.85 20.72, 6.44 15.94, 13.7 7.78 M-0.54 24.99 C3.85 20.13, 5.89 16.79, 13.22 7.42 M0.81 28.85 C6.35 22.21, 8.3 18.61, 16.91 9.82 M2.23 27.39 C9.03 19.82, 14.7 14.52, 18.03 10.64 M2.55 31.87 C7.01 26.81, 12.16 20.14, 22.41 12.12 M3.2 31.8 C9.33 26.01, 14.2 21.42, 21.45 12.61 M6.27 36.66 C10.08 30.72, 12.35 25.85, 26.29 14.03 M4.86 37.59 C11.77 29.37, 19.26 21.72, 25.09 13.02 M8.51 38.63 C15.51 30.68, 21.95 20.98, 28.3 15.91 M8.69 40.02 C12.51 35.23, 16.89 27.87, 29.94 14.9 M10.4 41.74 C17.71 35.85, 21.11 32.09, 33.7 14.08 M11.14 42.48 C19.26 33.96, 27.61 23.51, 33.88 16.26 M16.02 44.14 C21.11 36.93, 29.29 25.69, 39.05 16.01 M13.8 44.81 C24.92 33.39, 34.03 21.66, 40.31 14.99 M18.3 45.85 C27.56 36.81, 33.5 28.29, 46.04 15.72 M18.03 46.73 C24.62 37.46, 32.35 30.12, 43.74 17.01 M20.09 48.51 C28.61 38.75, 36 30.68, 49.3 14.76 M21.9 48.26 C28.32 40.21, 36.6 30.72, 48.41 16.96 M26.66 51.47 C36.61 39.32, 44.47 27.45, 55.52 16.14 M25.38 49.6 C35.55 37.78, 45.57 25.99, 55.15 16.8 M31.58 51.82 C42.01 37.44, 52.64 27.16, 61.31 15.49 M30.06 51.83 C38.47 41.13, 48.08 30.89, 60.06 16.78 M35.1 50.27 C44.84 42.3, 52.65 30.85, 64.96 18.28 M34.31 52.51 C44.89 40.5, 54.35 28.94, 64.02 17.3 M38.71 53.87 C47.27 43.83, 58.01 30.91, 68.28 18.97 M37.55 53.14 C49.4 39.67, 60.84 27.31, 69.34 17.82 M43.53 54.42 C53.75 40.12, 68.72 23.49, 73.09 17.5 M43.54 53.27 C54.69 40.4, 66.91 28.68, 74.01 18.06 M48.25 55.92 C54.21 45.21, 63.36 40.09, 81.01 16.69 M47.99 54.68 C58.59 41.33, 68.69 31.39, 80.28 17.08 M52.81 55.52 C63.34 43.5, 73.58 33.31, 87.94 16.42 M53.09 54.05 C65.06 41.32, 76.36 27.96, 86.91 16.28 M58.29 52.7 C69.23 46.58, 74.35 36.4, 91.24 15.86 M59.16 54.84 C67.35 42.48, 78.05 31.47, 93.15 15.21 M62.06 55.43 C73.29 41.67, 85.75 30.05, 99.51 12.36 M64.58 55.2 C75.57 40.96, 88.83 27.4, 100.29 13.3 M69.54 52.92 C81.6 41.71, 90.98 27.86, 105.72 13.43 M69.31 55.4 C82.46 39.6, 94.64 26.26, 105.58 11.49 M74.05 52.96 C86.04 43.36, 93.85 29.9, 111.07 9.88 M75.56 54.95 C88.46 38.78, 102.68 21.64, 111.85 12.12 M79.28 52.73 C88.54 44.67, 97.1 36.08, 115.48 14.83 M80.05 54.03 C89.5 44.05, 97.94 34.38, 114.8 13.63 M87.13 51.64 C98.24 42.03, 107.97 29.26, 133.05 1.68 M86.54 54.15 C98.31 39.72, 110 26.83, 132.24 1.3 M92.79 53.3 C103.92 39.74, 116.98 25.29, 133.62 5.85 M90.83 52.8 C102.88 39.17, 115.83 25.12, 132.43 6.63 M98.62 52.71 C106.17 43.26, 114.35 32.56, 131.05 10.95 M97.3 52.32 C109.42 39.35, 121.6 24.48, 132.13 12.3 M102.59 52.71 C110.24 45.52, 114.33 36.72, 133.42 17.75 M103.19 51.13 C112.49 40.3, 122.08 29.87, 131.61 18.85 M111.42 47.88 C120.6 37.94, 128.29 30.98, 132.52 24.48 M110.52 49.33 C118.6 41.14, 126.23 32.92, 131.88 25.63 M118.46 48.02 C123.86 42.78, 126.41 36.54, 133.09 31.23 M119.73 46.87 C121.24 42.8, 124.18 40.35, 132.73 31.03" stroke="#000000" stroke-width="0.5" fill="none"></path><path d="M0.88 -0.57 C1.01 2.35, 0.84 11.32, 1.23 17.14 C1.61 22.96, 0.39 29.58, 3.19 34.33 C6 39.08, 10.67 42.55, 18.06 45.64 C25.45 48.74, 35.6 51.7, 47.54 52.91 C59.47 54.12, 78.7 53.58, 89.67 52.89 C100.63 52.21, 106.54 51.36, 113.32 48.81 C120.1 46.26, 127.02 42.41, 130.34 37.59 C133.65 32.77, 132.96 25.82, 133.19 19.9 C133.43 13.97, 132.64 4.68, 131.73 2.04 C130.82 -0.59, 131.04 2.6, 127.72 4.09 C124.4 5.59, 118.61 9, 111.82 11 C105.02 13, 97.35 15.06, 86.94 16.09 C76.52 17.13, 60.37 18.1, 49.32 17.2 C38.26 16.31, 28.91 13.43, 20.61 10.72 C12.31 8.01, 2.87 2.58, -0.5 0.96 M-0.12 1.74 C-0.1 4.35, 0.28 9.78, 0.77 15.38 C1.26 20.97, -0.04 30.18, 2.81 35.32 C5.65 40.45, 10.62 43.21, 17.84 46.21 C25.06 49.2, 34.43 52.34, 46.11 53.29 C57.79 54.25, 76.72 52.85, 87.95 51.94 C99.17 51.04, 106.47 50.35, 113.46 47.87 C120.44 45.39, 126.75 41.96, 129.86 37.06 C132.96 32.15, 131.65 24.31, 132.1 18.44 C132.55 12.56, 133.23 4.02, 132.55 1.8 C131.88 -0.42, 131.18 3.64, 128.05 5.1 C124.93 6.56, 120.6 8.82, 113.8 10.55 C107 12.28, 98.14 14.32, 87.25 15.49 C76.37 16.66, 59.46 18.46, 48.49 17.57 C37.52 16.67, 29.47 13.21, 21.43 10.13 C13.39 7.04, 3.95 0.97, 0.27 -0.95" stroke="#000000" stroke-width="1" fill="none"></path></g></g><g transform="translate(817.1190476190476 60.48866888661087) rotate(0 34.5 9.5)"><text x="0" y="15" font-family="Helvetica, Segoe UI Emoji" font-size="16px" fill="#000000" text-anchor="start" style="white-space: pre;" direction="ltr">Database</text></g><g stroke-linecap="round" transform="translate(71.01539068485431 37.54577742455302) rotate(0 8.484960097376359 8.484960097376373)"><path d="M4.18 0.98 C4.18 0.98, 4.18 0.98, 4.18 0.98 M4.18 0.98 C4.18 0.98, 4.18 0.98, 4.18 0.98 M3.72 7.97 C6.68 5.9, 8.77 2.39, 9.29 0.85 M3.42 8.61 C5.86 5.33, 7.76 2.76, 10.26 0.67 M3.95 13.22 C8.41 10.14, 11.86 7.32, 13.57 1.05 M2.71 13.85 C4.38 12.37, 6.81 8.88, 14.29 2.43 M5.22 17.57 C8.56 14.75, 10.51 13.65, 13.99 5.15 M5.04 17.36 C7.62 14.81, 10.66 10.9, 15.14 7.16 M10.66 16.69 C12.66 14.53, 16.21 12.24, 19.04 9.76 M11.5 17.37 C12.96 15.56, 14.94 13.1, 18.55 9.62 M4.94 17.18 C4.94 17.18, 4.94 17.18, 4.94 17.18 M4.94 17.18 C4.94 17.18, 4.94 17.18, 4.94 17.18 M10.41 16.68 C9.05 15.25, 6.37 13.58, 2.11 9.33 M10.81 16.76 C8.1 14.44, 5.86 12.28, 3.24 10.24 M13.19 15.27 C8.32 11.91, 5.36 5.96, 1.8 2.62 M14.29 14.25 C9.11 10.06, 5.06 6.34, 2.22 4.39 M18.24 11.72 C16.34 9.97, 10.7 6.87, 3.88 -0.07 M17.45 12.33 C12.66 8.27, 9.15 4.51, 5.18 1.72 M17.04 7.06 C15.02 5.03, 11.71 -0.07, 9.8 0.05 M18.3 6.91 C15.4 4.93, 13.35 2.77, 8.58 -0.33" stroke="#7950f2" stroke-width="0.5" fill="none"></path><path d="M8.25 -0.32 C9.7 -0.17, 12.07 1.11, 13.44 2.5 C14.8 3.9, 15.95 6.35, 16.43 8.05 C16.92 9.76, 17.33 11.23, 16.35 12.72 C15.36 14.21, 12.49 16.3, 10.55 17 C8.6 17.7, 6.29 17.75, 4.67 16.94 C3.06 16.13, 1.51 13.98, 0.86 12.12 C0.22 10.26, 0.27 7.6, 0.79 5.78 C1.32 3.95, 2.66 2.03, 4.02 1.16 C5.38 0.29, 7.77 0.56, 8.92 0.55 C10.08 0.54, 10.82 1.11, 10.95 1.1 M9.25 0.28 C10.7 0.11, 13.11 0.44, 14.3 1.62 C15.49 2.8, 16.36 5.15, 16.36 7.34 C16.36 9.53, 15.26 13.11, 14.29 14.75 C13.31 16.39, 12.32 17.2, 10.51 17.18 C8.71 17.17, 4.92 15.79, 3.46 14.65 C2 13.52, 2.2 11.99, 1.76 10.38 C1.33 8.78, 0.56 6.65, 0.83 5.02 C1.1 3.39, 1.98 1.49, 3.38 0.6 C4.78 -0.28, 8.4 -0.31, 9.24 -0.31 C10.07 -0.31, 8.56 0.44, 8.41 0.61" stroke="#343a40" stroke-width="1" fill="none"></path></g><g stroke-linecap="round"><g transform="translate(72.06032187689271 90.13222597580418) rotate(0 9.812674722496695 -22.597525499214342)" fill-rule="evenodd"><path d="M-0.49 -30.91 C-0.49 -30.91, -0.49 -30.91, -0.49 -30.91 M-0.49 -30.91 C-0.49 -30.91, -0.49 -30.91, -0.49 -30.91 M-0.69 -26.14 C3.35 -28.99, 5.25 -31.62, 6.51 -33.97 M0.02 -25.79 C1.67 -27.46, 4.1 -29.84, 6.93 -33.49 M0.1 -18 C2.99 -22.6, 6.51 -25.26, 11.02 -34.44 M0.42 -18.54 C3.56 -22.97, 7.79 -28.85, 12.54 -33.36 M0.14 -14.28 C6.8 -19.8, 10.88 -27.79, 17.1 -30.19 M-0.43 -12.35 C6.2 -19.4, 11.42 -26.52, 17.03 -32.91 M6.92 -12.77 C9.01 -21.46, 17.67 -27.02, 18.74 -31.15 M4.13 -11.87 C7.98 -17.02, 11.42 -20.73, 19.36 -29.69 M10.82 -13.79 C12.39 -17.11, 19.24 -22.36, 19.82 -25.76 M9.54 -12.57 C13.02 -14.69, 14.95 -18.17, 20.25 -25.18 M15.84 -11.32 C17.04 -14.21, 17.13 -16.2, 23.21 -20.74 M15.01 -11.81 C17.46 -14.41, 19.66 -16.71, 22.38 -20.9 M-0.41 -13.24 C-0.41 -13.24, -0.41 -13.24, -0.41 -13.24 M-0.41 -13.24 C-0.41 -13.24, -0.41 -13.24, -0.41 -13.24 M6.13 -13.82 C2.81 -14.8, 1.85 -17.78, -0.41 -18.93 M5.87 -12.8 C3.93 -14.38, 1.82 -16.54, -1.02 -18.65 M11.96 -12.82 C7.85 -13.85, 7.12 -17.8, 0.24 -24.24 M12.4 -12.37 C9.3 -16.53, 4.51 -18.96, 0 -24.04 M16.02 -15.17 C8.75 -20.25, 4.39 -27.1, 0.16 -28.22 M15.63 -13.64 C14.04 -16.74, 9.24 -20.28, -0.64 -28.87 M18.69 -14.21 C14.85 -23.45, 7.79 -30.17, 3.02 -33.73 M19.79 -16.25 C15.99 -20.76, 10.42 -25.26, 1.93 -33.38 M18.98 -21.48 C16.54 -26.51, 11.77 -28.85, 5.72 -33.72 M20.74 -21.54 C17.37 -25.33, 13.83 -27.43, 5.91 -33.29 M17.72 -29.13 C16.68 -29.84, 15.46 -31.34, 13.02 -33.23 M18.21 -28.53 C16.64 -30.11, 15.6 -31.6, 13.31 -33.37" stroke="#7950f2" stroke-width="0.5" fill="none"></path><path d="M-1.27 -13.19 C-1.34 -15.95, -0.81 -25.39, -0.44 -28.7 C-0.07 -32.01, -0.8 -32.24, 0.95 -33.07 C2.7 -33.9, 7.31 -34.25, 10.06 -33.68 C12.8 -33.11, 15.79 -32.87, 17.41 -29.64 C19.03 -26.42, 22.81 -17.1, 19.76 -14.31 C16.7 -11.52, 2.55 -13.2, -0.91 -12.9 M0.53 -14.15 C0.34 -16.28, -1.39 -24.65, -0.92 -27.62 C-0.45 -30.59, 1.58 -31.16, 3.35 -31.97 C5.13 -32.78, 7.07 -32.99, 9.73 -32.48 C12.38 -31.98, 17.91 -32.35, 19.29 -28.94 C20.67 -25.52, 21.31 -14.48, 18.01 -11.99 C14.72 -9.5, 2.92 -13.94, -0.47 -14.01" stroke="#343a40" stroke-width="1" fill="none"></path></g></g><g transform="translate(68.33333333333326 10) rotate(0 17.5 9.5)"><text x="0" y="15" font-family="Helvetica, Segoe UI Emoji" font-size="16px" fill="#343a40" text-anchor="start" style="white-space: pre;" direction="ltr">User</text></g><g stroke-linecap="round"><g stroke-opacity="0.7" fill-opacity="0.7" transform="translate(109.41367552069318 70.08245431211265) rotate(0 89.55069770966654 26.65328715319744)"><path d="M0.3 0.46 C30.19 9.13, 150.36 43.48, 180.1 52.09 M-1 -0.35 C28.77 8.53, 149.96 44.68, 179.77 53.66" stroke="#5f3dc4" stroke-width="1" fill="none"></path></g><g stroke-opacity="0.7" fill-opacity="0.7" transform="translate(109.41367552069318 70.08245431211265) rotate(0 89.55069770966654 26.65328715319744)"><path d="M150.58 57.36 C160.8 54.39, 171.77 52.91, 181.18 53.91 M150.2 55.26 C158 54.17, 165.52 53.49, 180.38 53.73" stroke="#5f3dc4" stroke-width="1" fill="none"></path></g><g stroke-opacity="0.7" fill-opacity="0.7" transform="translate(109.41367552069318 70.08245431211265) rotate(0 89.55069770966654 26.65328715319744)"><path d="M156.47 37.7 C164.55 41.9, 173.38 47.59, 181.18 53.91 M156.09 35.6 C162.27 39.63, 168.27 44.01, 180.38 53.73" stroke="#5f3dc4" stroke-width="1" fill="none"></path></g></g><g stroke-opacity="0.7" fill-opacity="0.7" transform="translate(143.69047619047615 98.91724031518231) rotate(14.500166766552566 35.5 9.5)"><text x="0" y="15" font-family="Helvetica, Segoe UI Emoji" font-size="16px" fill="#5f3dc4" text-anchor="start" style="white-space: pre;" direction="ltr">get item 1</text></g><g stroke-linecap="round"><g stroke-opacity="0.7" fill-opacity="0.7" transform="translate(521.2619047619047 113.70295460089659) rotate(0 119.08189521618192 -3.6352693662978623)"><path d="M-1.19 -0.53 C38.8 -1.85, 199.3 -5.94, 239.36 -7.15 M0.38 1.81 C40.26 0.04, 198.7 -7.69, 238.33 -9.08" stroke="#5f3dc4" stroke-width="1" fill="none"></path></g><g stroke-opacity="0.7" fill-opacity="0.7" transform="translate(521.2619047619047 113.70295460089659) rotate(0 119.08189521618192 -3.6352693662978623)"><path d="M209.73 2.14 C217.99 -0.8, 223.86 -4.06, 239.82 -11.01 M211.59 2.69 C221.46 -3.23, 232.19 -5.76, 237.48 -9.34" stroke="#5f3dc4" stroke-width="1" fill="none"></path></g><g stroke-opacity="0.7" fill-opacity="0.7" transform="translate(521.2619047619047 113.70295460089659) rotate(0 119.08189521618192 -3.6352693662978623)"><path d="M208.85 -18.36 C217.47 -16.22, 223.55 -14.4, 239.82 -11.01 M210.71 -17.82 C220.75 -15.92, 231.81 -10.63, 237.48 -9.34" stroke="#5f3dc4" stroke-width="1" fill="none"></path></g></g><g stroke-opacity="0.7" fill-opacity="0.7" transform="translate(598.1190476190476 114.56009745803942) rotate(357.2736890060937 35.5 9.5)"><text x="0" y="15" font-family="Helvetica, Segoe UI Emoji" font-size="16px" fill="#5f3dc4" text-anchor="start" style="white-space: pre;" direction="ltr">get item 1</text></g><g stroke-linecap="round"><g stroke-opacity="0.7" fill-opacity="0.7" transform="translate(757.7619047619047 82.70295460089659) rotate(0 -114.20866914458577 3.9272866899520267)"><path d="M0.62 0.22 C-37.47 1.49, -190.02 5.96, -228.23 7.53 M-0.52 -0.71 C-38.76 0.69, -190.88 7.13, -229.03 8.56" stroke="#5f3dc4" stroke-width="1" fill="none"></path></g><g stroke-opacity="0.7" fill-opacity="0.7" transform="translate(757.7619047619047 82.70295460089659) rotate(0 -114.20866914458577 3.9272866899520267)"><path d="M-200.91 -2.37 C-211.87 0.81, -217.34 4.58, -229.83 10.24 M-201.43 -2.29 C-212.23 0.35, -222.04 4.8, -228.42 8.66" stroke="#5f3dc4" stroke-width="1" fill="none"></path></g><g stroke-opacity="0.7" fill-opacity="0.7" transform="translate(757.7619047619047 82.70295460089659) rotate(0 -114.20866914458577 3.9272866899520267)"><path d="M-200.08 18.14 C-211.3 14.69, -217.03 11.83, -229.83 10.24 M-200.6 18.21 C-211.79 13.22, -221.91 10.03, -228.42 8.66" stroke="#5f3dc4" stroke-width="1" fill="none"></path></g></g><g stroke-linecap="round"><g stroke-opacity="0.7" fill-opacity="0.7" transform="translate(289.33333333333326 97.63152602946803) rotate(0 -86.31276235319672 -24.549155287072054)"><path d="M-0.25 -0.27 C-29.19 -8.49, -144.56 -40.79, -173.67 -48.83 M1.82 -1.45 C-27.25 -9.59, -145.4 -40.06, -174.44 -47.73" stroke="#5f3dc4" stroke-width="1" fill="none"></path></g><g stroke-opacity="0.7" fill-opacity="0.7" transform="translate(289.33333333333326 97.63152602946803) rotate(0 -86.31276235319672 -24.549155287072054)"><path d="M-145.02 -49.99 C-154.83 -51.23, -163.2 -47.92, -175.02 -46.03 M-144.38 -51.24 C-153.49 -49.89, -161.51 -48.76, -175.38 -47.66" stroke="#5f3dc4" stroke-width="1" fill="none"></path></g><g stroke-opacity="0.7" fill-opacity="0.7" transform="translate(289.33333333333326 97.63152602946803) rotate(0 -86.31276235319672 -24.549155287072054)"><path d="M-150.2 -30.13 C-158.55 -37.27, -165.38 -39.86, -175.02 -46.03 M-149.56 -31.38 C-157.31 -35.62, -163.88 -40.08, -175.38 -47.66" stroke="#5f3dc4" stroke-width="1" fill="none"></path></g></g><g stroke-opacity="0.7" fill-opacity="0.7" transform="translate(607.6371574154566 65.67828270582945) rotate(357.2736890060937 22.5 9.5)"><text x="0" y="15" font-family="Helvetica, Segoe UI Emoji" font-size="16px" fill="#5f3dc4" text-anchor="start" style="white-space: pre;" direction="ltr">item 1</text></g><g stroke-opacity="0.7" fill-opacity="0.7" transform="translate(183.1904761904761 48.845811743753785) rotate(15.524110996754356 22.5 9.5)"><text x="0" y="15" font-family="Helvetica, Segoe UI Emoji" font-size="16px" fill="#5f3dc4" text-anchor="start" style="white-space: pre;" direction="ltr">item 1</text></g><g stroke-linecap="round" transform="translate(12.682057351521053 171.76260914166664) rotate(0 8.484960097376359 8.484960097376359)"><path d="M5.81 -0.25 C5.81 -0.25, 5.81 -0.25, 5.81 -0.25 M5.81 -0.25 C5.81 -0.25, 5.81 -0.25, 5.81 -0.25 M1.85 10.5 C6.01 7.52, 9.22 3.88, 11.16 -0.31 M1.16 11.52 C3.04 9.79, 4.87 6.41, 10.4 0.16 M1.91 14.25 C5.74 10.49, 8.64 8, 13 2.3 M2.21 15.68 C5.02 12.5, 8.48 8.81, 14.31 1.62 M7.63 15.75 C9.5 13.81, 13.37 9.49, 16.7 4.78 M7.52 16.53 C9.25 13.34, 12.52 10.58, 15.74 6 M10.84 19.33 C13.2 15.97, 16.28 12.37, 16.84 9.21 M10.77 18.01 C12.75 16.36, 15.05 14.07, 17.37 10.71 M1.26 13.79 C1.26 13.79, 1.26 13.79, 1.26 13.79 M1.26 13.79 C1.26 13.79, 1.26 13.79, 1.26 13.79 M10.14 16.03 C7.69 13.32, 5.15 10.86, 1.63 9.05 M9.45 15.18 C5.95 12.43, 3.68 10.74, 1.12 8.58 M14.17 16.45 C9.66 11.21, 7.19 7.52, 3.9 3.29 M14.69 14.43 C11.05 11.07, 5.43 7.68, 3.37 5.25 M15.57 11.78 C11.81 7.55, 8.71 4.8, 3.28 1.45 M16.95 11.19 C14.24 8.48, 10.74 6.87, 5.15 0.18 M14.64 4.96 C12.39 1.76, 9.62 -1.13, 7.54 -1.35 M15.96 5.02 C12.64 2.93, 9.27 0.11, 7.43 -2.67" stroke="#fab005" stroke-width="0.5" fill="none"></path><path d="M12.86 0.21 C14.45 0.87, 14.69 3.12, 15.42 4.92 C16.15 6.72, 17.44 9.31, 17.25 11.03 C17.05 12.74, 15.68 14.29, 14.25 15.22 C12.82 16.14, 10.79 16.79, 8.68 16.6 C6.57 16.41, 3.05 15.19, 1.59 14.08 C0.13 12.98, -0.23 11.69, -0.09 9.97 C0.05 8.24, 1.5 5.36, 2.43 3.72 C3.36 2.08, 3.64 0.61, 5.49 0.13 C7.33 -0.35, 12.27 0.6, 13.5 0.86 C14.73 1.11, 13.12 1.62, 12.88 1.64 M11.87 0.06 C13.67 0.5, 14.85 3.56, 15.61 5.03 C16.37 6.5, 16.92 7.11, 16.44 8.87 C15.96 10.62, 14.27 13.98, 12.72 15.56 C11.16 17.13, 8.91 18.49, 7.09 18.3 C5.27 18.12, 2.83 15.96, 1.79 14.45 C0.75 12.94, 0.84 10.78, 0.84 9.23 C0.85 7.68, 1.19 6.49, 1.82 5.16 C2.45 3.83, 3.16 2.18, 4.62 1.26 C6.08 0.34, 9.62 -0.38, 10.61 -0.36 C11.6 -0.33, 10.56 0.88, 10.55 1.41" stroke="#343a40" stroke-width="1" fill="none"></path></g><g stroke-linecap="round"><g transform="translate(13.20378797842011 211.00744328186454) rotate(0 10.031894185145774 -9.526317700876007)" fill-rule="evenodd"><path d="M-0.15 -17.36 C-0.15 -17.36, -0.15 -17.36, -0.15 -17.36 M-0.15 -17.36 C-0.15 -17.36, -0.15 -17.36, -0.15 -17.36 M-0.64 -12.08 C3.27 -15.07, 5.65 -16.66, 6.72 -19.45 M0.51 -11.94 C2.6 -13.7, 4.12 -15.7, 7.61 -19.7 M-0.05 -6.85 C3.44 -10.06, 4.56 -9.63, 14.04 -18.08 M0.76 -5.6 C2.71 -8.32, 7.12 -13.47, 13.01 -20.25 M2.05 0.8 C6.04 -8.87, 11.68 -12.91, 17.32 -18.32 M-0.05 -0.21 C5.17 -5.04, 10.84 -11.45, 16.36 -19.27 M6.68 -0.96 C9.59 -5.21, 12.28 -5.98, 18.79 -15.67 M4.58 0.5 C8.84 -3.2, 12.73 -9.08, 20.25 -16.58 M10.92 1.63 C11.21 -2, 15.65 -5.39, 22.03 -11.38 M10.19 0.54 C12.94 -1.81, 16.18 -4.37, 20.97 -10.46 M15.43 -0.3 C17.11 -1.77, 20.81 -5.12, 22.72 -7.87 M16.42 0.18 C18.3 -1.39, 19.52 -4.11, 22.68 -6.83 M0 0 C0 0, 0 0, 0 0 M0 0 C0 0, 0 0, 0 0 M5.91 0.82 C4.82 -1.41, 2 -3.63, 0.78 -5.25 M6.51 0.45 C5.46 -0.77, 3.81 -1.95, 0.2 -4.62 M12.14 1.76 C8.69 -0.98, 8.44 -4.75, -0.3 -11.78 M13.04 1.2 C8.76 -3.65, 2.84 -8.22, -0.62 -10.38 M17.24 -2.84 C13.86 -5.74, 10.79 -6.75, 1 -15.89 M17.7 -0.5 C10 -5.73, 5.26 -11.21, -0.48 -15.65 M19.92 -2.32 C16.64 -7.07, 7.3 -12.43, 3.02 -19.89 M21.31 -2.52 C14.37 -8.42, 9.15 -13.1, 2.03 -20.21 M18.91 -9.18 C19.02 -10.67, 15.08 -15.68, 7.99 -20.27 M19.89 -7.66 C16.33 -11.92, 13.65 -14.87, 7 -20.67 M18.25 -15.46 C16.99 -17, 16.27 -17.96, 13.4 -19.74 M19.01 -15.47 C16.65 -17.21, 14.76 -19.19, 13.67 -19.92" stroke="#fab005" stroke-width="0.5" fill="none"></path><path d="M0.22 1.01 C0.16 -1.36, -1.98 -11.26, -1.43 -14.75 C-0.88 -18.24, 1.48 -19.01, 3.52 -19.95 C5.57 -20.88, 8.24 -20.95, 10.84 -20.34 C13.45 -19.73, 17.58 -19.61, 19.15 -16.31 C20.72 -13.02, 23.29 -3.21, 20.25 -0.56 C17.22 2.09, 4.51 -0.41, 0.94 -0.42 M-1.13 0.49 C-0.69 -1.65, 0.21 -10.1, 0.96 -13.35 C1.7 -16.59, 1.72 -17.99, 3.34 -18.96 C4.95 -19.92, 8.21 -19.7, 10.65 -19.14 C13.1 -18.58, 16.7 -18.52, 18.01 -15.61 C19.32 -12.71, 21.76 -4.57, 18.5 -1.69 C15.23 1.2, 1.36 1.61, -1.59 1.68" stroke="#343a40" stroke-width="1" fill="none"></path></g></g><g transform="translate(10 144.21683171711368) rotate(0 17.5 9.5)"><text x="0" y="15" font-family="Helvetica, Segoe UI Emoji" font-size="16px" fill="#343a40" text-anchor="start" style="white-space: pre;" direction="ltr">User</text></g><g stroke-linecap="round"><g stroke-opacity="0.7" fill-opacity="0.7" transform="translate(65.58034218735997 189.2992860292262) rotate(0 107.50609256550666 2.6348753511998666)"><path d="M-0.62 -0.26 C35.28 0.49, 179.91 4.41, 215.63 5.5 M1.25 -1.44 C37.08 -0.02, 179.45 5.18, 215.27 6.71" stroke="#e67700" stroke-width="1" fill="none"></path></g><g stroke-opacity="0.7" fill-opacity="0.7" transform="translate(65.58034218735997 189.2992860292262) rotate(0 107.50609256550666 2.6348753511998666)"><path d="M186.27 17.7 C194.66 11.71, 205.11 11.24, 216.25 8.27 M185.7 15.35 C194.68 13.93, 203.98 10.69, 214.61 6.51" stroke="#e67700" stroke-width="1" fill="none"></path></g><g stroke-opacity="0.7" fill-opacity="0.7" transform="translate(65.58034218735997 189.2992860292262) rotate(0 107.50609256550666 2.6348753511998666)"><path d="M187.07 -2.8 C195.38 -2.28, 205.57 3.78, 216.25 8.27 M186.5 -5.15 C195.41 -0.7, 204.48 1.94, 214.61 6.51" stroke="#e67700" stroke-width="1" fill="none"></path></g></g><g stroke-opacity="0.7" fill-opacity="0.7" transform="translate(136 200.34835774658166) rotate(0.9462512772095151 35.5 9.5)"><text x="0" y="15" font-family="Helvetica, Segoe UI Emoji" font-size="16px" fill="#e67700" text-anchor="start" style="white-space: pre;" direction="ltr">get item 1</text></g><g stroke-linecap="round"><g stroke-opacity="0.7" fill-opacity="0.7" transform="translate(280.60723565034573 171.0051725018575) rotate(0 -104.41537790689623 -0.15694378521294539)"><path d="M1.11 -0.63 C-33.78 -0.91, -175.01 -1.81, -209.94 -1.97 M0.23 1.66 C-34.22 1.61, -172.81 0.54, -207.66 -0.34" stroke="#e67700" stroke-width="1" fill="none"></path></g><g stroke-opacity="0.7" fill-opacity="0.7" transform="translate(280.60723565034573 171.0051725018575) rotate(0 -104.41537790689623 -0.15694378521294539)"><path d="M-180.37 -11.56 C-186.06 -6.41, -192.43 -3.47, -207.93 1.23 M-179.46 -9.58 C-185.96 -7.73, -195.11 -5.29, -207.07 -0.73" stroke="#e67700" stroke-width="1" fill="none"></path></g><g stroke-opacity="0.7" fill-opacity="0.7" transform="translate(280.60723565034573 171.0051725018575) rotate(0 -104.41537790689623 -0.15694378521294539)"><path d="M-180.68 8.96 C-186.25 9.01, -192.54 6.86, -207.93 1.23 M-179.76 10.94 C-185.98 7.35, -195.05 4.34, -207.07 -0.73" stroke="#e67700" stroke-width="1" fill="none"></path></g></g><g stroke-opacity="0.7" fill-opacity="0.7" transform="translate(152 148.34835774658166) rotate(1.0503180529298457 22.5 9.5)"><text x="0" y="15" font-family="Helvetica, Segoe UI Emoji" font-size="16px" fill="#e67700" text-anchor="start" style="white-space: pre;" direction="ltr">item 1</text></g><g stroke-linecap="round"><g stroke-opacity="0.7" fill-opacity="0.7" transform="translate(524.1785714285714 200.63635665469388) rotate(0 119.39671461039222 -3.804578186944127)"><path d="M0.29 0.26 C40.13 -1.06, 199.78 -6.54, 239.82 -7.87 M-1.02 -0.65 C38.63 -1.8, 198.82 -5.54, 239.03 -6.53" stroke="#e67700" stroke-width="1" fill="none"></path></g><g stroke-opacity="0.7" fill-opacity="0.7" transform="translate(524.1785714285714 200.63635665469388) rotate(0 119.39671461039222 -3.804578186944127)"><path d="M211.53 4.93 C220.55 2.06, 230.84 -4.45, 238.33 -5.01 M211.57 4.5 C218.6 1.03, 223.55 -0.75, 238.87 -5.69" stroke="#e67700" stroke-width="1" fill="none"></path></g><g stroke-opacity="0.7" fill-opacity="0.7" transform="translate(524.1785714285714 200.63635665469388) rotate(0 119.39671461039222 -3.804578186944127)"><path d="M211.04 -15.58 C220.25 -11.06, 230.71 -10.17, 238.33 -5.01 M211.08 -16.02 C218.2 -14.65, 223.26 -11.6, 238.87 -5.69" stroke="#e67700" stroke-width="1" fill="none"></path></g></g><g stroke-opacity="0.7" fill-opacity="0.7" transform="translate(601.7499999999999 196.49349951183666) rotate(357.2736890060937 35.5 9.5)"><text x="0" y="15" font-family="Helvetica, Segoe UI Emoji" font-size="16px" fill="#e67700" text-anchor="start" style="white-space: pre;" direction="ltr">get item 1</text></g><g stroke-linecap="round"><g stroke-opacity="0.7" fill-opacity="0.7" transform="translate(760.6785714285714 169.63635665469388) rotate(0 -113.80615075579846 4.027072929646806)"><path d="M0.32 -0.37 C-37.65 0.96, -189.28 6.85, -227.5 8.25 M-0.98 -1.61 C-39.04 -0.12, -189.74 7.87, -227.93 9.66" stroke="#e67700" stroke-width="1" fill="none"></path></g><g stroke-opacity="0.7" fill-opacity="0.7" transform="translate(760.6785714285714 169.63635665469388) rotate(0 -113.80615075579846 4.027072929646806)"><path d="M-200.9 -0.34 C-209.62 0.94, -218.87 7.15, -229.21 9.35 M-199.39 -2.73 C-209.96 1.89, -218.39 6.45, -227.62 8.92" stroke="#e67700" stroke-width="1" fill="none"></path></g><g stroke-opacity="0.7" fill-opacity="0.7" transform="translate(760.6785714285714 169.63635665469388) rotate(0 -113.80615075579846 4.027072929646806)"><path d="M-199.87 20.16 C-208.97 14.8, -218.55 14.37, -229.21 9.35 M-198.36 17.77 C-209.36 15.71, -218.13 13.61, -227.62 8.92" stroke="#e67700" stroke-width="1" fill="none"></path></g></g><g stroke-opacity="0.7" fill-opacity="0.7" transform="translate(608.4109669392661 151.1831133310552) rotate(357.2736890060937 22.5 9.5)"><text x="0" y="15" font-family="Helvetica, Segoe UI Emoji" font-size="16px" fill="#e67700" text-anchor="start" style="white-space: pre;" direction="ltr">item 1</text></g><g stroke-linecap="round"><g stroke-opacity="0.7" fill-opacity="0.7" transform="translate(69.93756609433626 298.79580098785635) rotate(342.9526966806554 107.72786539406513 4.077066784640749)"><path d="M-0.61 0.92 C35.02 2.07, 177.91 5.19, 213.76 6.21 M1.27 0.36 C37.29 1.78, 180.66 6.99, 216.06 7.79" stroke="#2b8a3e" stroke-width="1" fill="none"></path></g><g stroke-opacity="0.7" fill-opacity="0.7" transform="translate(69.93756609433626 298.79580098785635) rotate(342.9526966806554 107.72786539406513 4.077066784640749)"><path d="M189.11 15.9 C196.27 14.44, 206.2 11.17, 214.09 6.66 M187.66 17.12 C196.39 14.25, 204.06 12.48, 216.84 8.1" stroke="#2b8a3e" stroke-width="1" fill="none"></path></g><g stroke-opacity="0.7" fill-opacity="0.7" transform="translate(69.93756609433626 298.79580098785635) rotate(342.9526966806554 107.72786539406513 4.077066784640749)"><path d="M189.74 -4.61 C196.6 0.05, 206.34 2.91, 214.09 6.66 M188.29 -3.39 C196.74 -0.51, 204.23 3.47, 216.84 8.1" stroke="#2b8a3e" stroke-width="1" fill="none"></path></g></g><g stroke-opacity="0.7" fill-opacity="0.7" transform="translate(145.20665144512498 308.2109515796335) rotate(343.89894795786483 35.5 9.5)"><text x="0" y="15" font-family="Helvetica, Segoe UI Emoji" font-size="16px" fill="#2b8a3e" text-anchor="start" style="white-space: pre;" direction="ltr">get item 2</text></g><g stroke-linecap="round"><g stroke-opacity="0.7" fill-opacity="0.7" transform="translate(277.87883763160005 280.7407329663882) rotate(342.9526966806554 -104.55371042089541 -1.3870889462251057)"><path d="M-0.77 0.08 C-35.53 -0.27, -174.38 -0.65, -209.16 -1.22 M1.03 -0.92 C-33.84 -1.68, -174.9 -2.57, -210.13 -2.86" stroke="#2b8a3e" stroke-width="1" fill="none"></path></g><g stroke-opacity="0.7" fill-opacity="0.7" transform="translate(277.87883763160005 280.7407329663882) rotate(342.9526966806554 -104.55371042089541 -1.3870889462251057)"><path d="M-181.73 -12.99 C-187.28 -11.13, -197.86 -9.21, -210.52 -3.94 M-181.08 -13.13 C-190.68 -8.99, -199.65 -6.02, -209.7 -3.07" stroke="#2b8a3e" stroke-width="1" fill="none"></path></g><g stroke-opacity="0.7" fill-opacity="0.7" transform="translate(277.87883763160005 280.7407329663882) rotate(342.9526966806554 -104.55371042089541 -1.3870889462251057)"><path d="M-181.88 7.53 C-187.56 4.27, -198.09 1.08, -210.52 -3.94 M-181.23 7.39 C-190.8 4.79, -199.72 1.02, -209.7 -3.07" stroke="#2b8a3e" stroke-width="1" fill="none"></path></g></g><g stroke-opacity="0.7" fill-opacity="0.7" transform="translate(145.96377914832743 258.50090961759474) rotate(344.00301473358525 22.5 9.5)"><text x="0" y="15" font-family="Helvetica, Segoe UI Emoji" font-size="16px" fill="#2b8a3e" text-anchor="start" style="white-space: pre;" direction="ltr">item 2</text></g><g stroke-linecap="round" transform="translate(20.682057351521053 306.9764421160901) rotate(0 8.484960097376359 8.484960097376359)"><path d="M3.7 1.9 C3.7 1.9, 3.7 1.9, 3.7 1.9 M3.7 1.9 C3.7 1.9, 3.7 1.9, 3.7 1.9 M2.57 7.89 C4.2 6.28, 6.41 5.97, 10 1.15 M3.32 8.42 C4.95 6.62, 6.82 4.41, 9.12 1.82 M1.39 13.33 C5.68 11.88, 10.05 6.92, 14.26 0.07 M2.35 14.45 C7.81 9.71, 11.07 4.91, 15.31 0.9 M8.18 17.61 C11.37 11.74, 14.21 8.03, 15.2 7.24 M6.36 16.77 C10.1 12.1, 14.12 9.02, 15.57 6.09 M1.73 13.25 C1.73 13.25, 1.73 13.25, 1.73 13.25 M1.73 13.25 C1.73 13.25, 1.73 13.25, 1.73 13.25 M10.47 15.42 C9.98 14.21, 5.15 11.65, 0.79 7.52 M10.48 16.17 C7.53 12.99, 5.49 11.41, 0.59 7.32 M14.88 14.41 C9.47 8.96, 6.94 7.13, 2.24 4.24 M13.3 12.63 C10.34 9.85, 6.05 6.59, 2.66 2.66 M15.41 8.78 C13 6.62, 8.72 3.37, 5.39 -0.13 M17.15 10.2 C13.38 8.25, 11.13 5.93, 5.51 0.71 M17.51 5.67 C15.28 2.98, 12.62 1.24, 9.03 -2.27 M17.99 5.81 C14.92 3.98, 12.38 1.58, 9.29 -1.68" stroke="#40c057" stroke-width="0.5" fill="none"></path><path d="M8.02 0.58 C9.78 0.36, 13.29 0.19, 14.7 1.36 C16.12 2.52, 16.47 5.73, 16.53 7.57 C16.58 9.41, 15.9 10.93, 15.03 12.39 C14.16 13.84, 12.98 15.77, 11.31 16.3 C9.64 16.83, 6.64 16.08, 5.02 15.55 C3.4 15.02, 2.38 14.74, 1.59 13.13 C0.81 11.52, -0.03 7.76, 0.31 5.91 C0.65 4.05, 2.04 2.83, 3.62 2 C5.19 1.16, 8.39 1.21, 9.76 0.92 C11.13 0.62, 11.63 0.16, 11.82 0.22 M6.04 -0.7 C7.75 -1.47, 11.63 -1.49, 13.21 -0.4 C14.8 0.69, 14.78 4.26, 15.55 5.85 C16.32 7.44, 18.16 7.49, 17.81 9.13 C17.47 10.76, 14.92 14.34, 13.49 15.65 C12.06 16.95, 11.15 17, 9.24 16.96 C7.33 16.93, 3.7 16.85, 2.04 15.45 C0.38 14.04, -0.62 10.5, -0.73 8.55 C-0.83 6.6, 0.5 4.96, 1.41 3.74 C2.33 2.52, 3.85 2.03, 4.76 1.25 C5.68 0.47, 6.69 -0.82, 6.88 -0.93" stroke="#343a40" stroke-width="1" fill="none"></path></g><g stroke-linecap="round"><g transform="translate(21.20378797842011 346.22127625628787) rotate(0 10.014568711527062 -9.551212330122297)" fill-rule="evenodd"><path d="M-0.15 -17.36 C-0.15 -17.36, -0.15 -17.36, -0.15 -17.36 M-0.15 -17.36 C-0.15 -17.36, -0.15 -17.36, -0.15 -17.36 M1.21 -11.71 C1.32 -12.84, 2.68 -15.81, 7.44 -20.04 M-0.28 -11.9 C1.52 -13.85, 3.04 -15.5, 7.76 -19.6 M-0.5 -5.15 C4.56 -11.65, 6.34 -15.27, 14.34 -17.94 M-0.87 -6.26 C3.19 -9.2, 5.16 -11.75, 11.52 -20.08 M1.51 1.78 C3.75 -4.6, 7.74 -7.85, 16.25 -18 M0.55 -0.17 C5.05 -4.32, 8.92 -8.82, 15.78 -19.3 M5.95 -0.12 C7.59 -2.46, 14.11 -5.47, 17.94 -16.44 M4.99 1.04 C10.62 -5.12, 16.15 -11.8, 20.74 -15.17 M8.95 0.08 C16.02 -2.53, 17.7 -7.76, 19.72 -10.55 M10.92 0.5 C13.24 -1.37, 16.51 -4.79, 21.32 -11.24 M16.43 1.07 C18.83 -2.06, 20.34 -4.41, 21.56 -6.98 M16.1 0.98 C18.02 -2.43, 20.83 -4.63, 22.31 -7.15 M0 0 C0 0, 0 0, 0 0 M0 0 C0 0, 0 0, 0 0 M6.59 0.15 C5.4 -0.93, 3.86 -2.25, -0.14 -5.51 M6.23 0.37 C4.1 -1.21, 2.64 -3.38, 0.1 -5.34 M13.56 0.88 C7.73 -4.29, 3.69 -6.46, 1.66 -10.4 M13.55 1.01 C9.7 -2.74, 5.21 -5.45, -0.03 -10.71 M15.73 -1.52 C10.63 -5.91, 7.76 -8.03, 2.07 -15.45 M16.55 -1.04 C12.23 -4.37, 8.89 -8.87, -0.02 -15.5 M20.8 -1.04 C14.1 -8.3, 7.71 -15.56, 1.05 -18.43 M22.05 -3.69 C15.14 -8.24, 8.55 -14.18, 0.47 -20.15 M21.12 -8.79 C17.11 -11.87, 14.91 -15.41, 5.93 -21.7 M20.92 -7.74 C16.16 -13.18, 11.37 -16.22, 6.44 -21.17 M18.38 -14.96 C16.92 -17.25, 15.61 -17.59, 13.31 -19.57 M18.56 -15.43 C16.39 -17.58, 14.57 -18.96, 13.34 -20.05" stroke="#40c057" stroke-width="0.5" fill="none"></path><path d="M0.86 0.14 C0.92 -2.13, -0.61 -10.97, -0.55 -14.1 C-0.48 -17.23, -0.84 -17.38, 1.27 -18.64 C3.39 -19.9, 9.36 -21.97, 12.15 -21.66 C14.95 -21.36, 16.97 -20.2, 18.05 -16.81 C19.13 -13.42, 21.59 -4.04, 18.66 -1.3 C15.73 1.44, 3.6 -0.44, 0.46 -0.37 M-0.14 -0.84 C-0.14 -3.44, -1.98 -12.72, -1.36 -16.02 C-0.74 -19.32, 1.23 -19.77, 3.57 -20.63 C5.9 -21.48, 9.91 -21.87, 12.65 -21.16 C15.39 -20.45, 18.82 -20.04, 20 -16.37 C21.18 -12.7, 22.83 -2.18, 19.73 0.84 C16.62 3.86, 4.84 2.17, 1.35 1.75" stroke="#343a40" stroke-width="1" fill="none"></path></g></g><g transform="translate(18 279.430664691537) rotate(0 17.5 9.5)"><text x="0" y="15" font-family="Helvetica, Segoe UI Emoji" font-size="16px" fill="#343a40" text-anchor="start" style="white-space: pre;" direction="ltr">User</text></g><g stroke-linecap="round"><g stroke-opacity="0.7" fill-opacity="0.7" transform="translate(533.1785714285714 290.6363566546939) rotate(0 119.36211020536723 -3.8522113443352453)"><path d="M-0.27 -0.78 C39.69 -2.04, 199.2 -6.2, 239 -7.17 M1.78 1.42 C41.61 -0.24, 197.94 -7.47, 237.79 -9.12" stroke="#2b8a3e" stroke-width="1" fill="none"></path></g><g stroke-opacity="0.7" fill-opacity="0.7" transform="translate(533.1785714285714 290.6363566546939) rotate(0 119.36211020536723 -3.8522113443352453)"><path d="M208.77 1.53 C217.1 -1.92, 224.54 -1.97, 237 -10.45 M210.63 2.82 C216.1 -0.37, 221.26 -2.47, 238.35 -8.12" stroke="#2b8a3e" stroke-width="1" fill="none"></path></g><g stroke-opacity="0.7" fill-opacity="0.7" transform="translate(533.1785714285714 290.6363566546939) rotate(0 119.36211020536723 -3.8522113443352453)"><path d="M207.86 -18.97 C216.46 -17.6, 224.12 -12.83, 237 -10.45 M209.73 -17.68 C215.51 -16.52, 220.86 -14.28, 238.35 -8.12" stroke="#2b8a3e" stroke-width="1" fill="none"></path></g></g><g stroke-opacity="0.7" fill-opacity="0.7" transform="translate(605.7466044131734 289.922232635019) rotate(357.2736890060937 35.5 9.5)"><text x="0" y="15" font-family="Helvetica, Segoe UI Emoji" font-size="16px" fill="#2b8a3e" text-anchor="start" style="white-space: pre;" direction="ltr">get item 2</text></g><g stroke-linecap="round"><g stroke-opacity="0.7" fill-opacity="0.7" transform="translate(769.6785714285714 259.6363566546939) rotate(0 -114.02674440628851 4.420764048313714)"><path d="M-0.5 0.33 C-38.7 2.02, -191.59 8.1, -229.49 9.39 M1.44 -0.55 C-36.38 0.89, -189 6.12, -227.3 7.73" stroke="#2b8a3e" stroke-width="1" fill="none"></path></g><g stroke-opacity="0.7" fill-opacity="0.7" transform="translate(769.6785714285714 259.6363566546939) rotate(0 -114.02674440628851 4.420764048313714)"><path d="M-198.97 -5.23 C-205.81 0.44, -215.78 1.25, -229.05 8.92 M-199.3 -3.84 C-208.77 0.21, -216.49 4.71, -227.16 7.48" stroke="#2b8a3e" stroke-width="1" fill="none"></path></g><g stroke-opacity="0.7" fill-opacity="0.7" transform="translate(769.6785714285714 259.6363566546939) rotate(0 -114.02674440628851 4.420764048313714)"><path d="M-198.19 15.28 C-205.12 15.26, -215.3 10.39, -229.05 8.92 M-198.53 16.67 C-208.35 14.22, -216.32 12.23, -227.16 7.48" stroke="#2b8a3e" stroke-width="1" fill="none"></path></g></g><g stroke-opacity="0.7" fill-opacity="0.7" transform="translate(614.5504284952965 239.61184645423748) rotate(357.2736890060937 22.5 9.5)"><text x="0" y="15" font-family="Helvetica, Segoe UI Emoji" font-size="16px" fill="#2b8a3e" text-anchor="start" style="white-space: pre;" direction="ltr">item 2</text></g></svg>