<svg version="1.1" xmlns="http://www.w3.org/2000/svg" viewBox="0 0 1036.2335067326694 537.7546042807369" width="1036.2335067326694" height="537.7546042807369">
  <!-- svg-source:excalidraw -->
  
  <defs>
    <style>
      @font-face {
        font-family: "Virgil";
        src: url("https://excalidraw.com/Virgil.woff2");
      }
      @font-face {
        font-family: "Cascadia";
        src: url("https://excalidraw.com/Cascadia.woff2");
      }
    </style>
  </defs>
  <g stroke-linecap="round" transform="translate(10 10) rotate(0 290.5714285714286 258.87730214036844)"><path d="M129.24 0.03 L466.06 -0.22 L493.73 4.78 L518.74 10.92 L538.79 25.82 L554.81 41.88 L561.85 52.24 L571.78 71.81 L575.76 84.51 L579.11 112.82 L580.98 405.81 L576.9 432.64 L566.72 456.89 L557 477.58 L541.5 493.6 L519.58 504.22 L509.3 508.19 L494.94 513.9 L468.66 518.79 L130.69 517.42 L100.24 514.64 L73.97 510.54 L50.77 499.12 L39.23 494.86 L25.71 474.99 L19.91 466.14 L6.64 446.12 L2.33 419.73 L-0.42 404.6 L0.73 129.43 L1.8 114.09 L5.97 85.57 L11.42 63.04 L16.78 51.17 L34.25 30.85 L50.76 19.54 L60.94 13.83 L85.52 5.45 L112.07 1.16 L129.19 -1.41" stroke="none" stroke-width="0" fill="#ced4da"></path><path d="M129.44 0 M129.44 0 C197.95 2.31, 265.33 1.36, 451.7 0 M129.44 0 C245.88 -1.06, 362.72 -1.07, 451.7 0 M451.7 0 C538 -1.91, 580.14 43.46, 581.14 129.44 M451.7 0 C536.17 1.46, 583.02 44.68, 581.14 129.44 M581.14 129.44 C581.24 225.79, 582.11 319.82, 581.14 388.32 M581.14 129.44 C582.39 196.11, 581.6 264.59, 581.14 388.32 M581.14 388.32 C582.61 473.02, 538.11 516.78, 451.7 517.75 M581.14 388.32 C580.51 472.39, 537.89 515.69, 451.7 517.75 M451.7 517.75 C385.74 518.59, 320.85 519.39, 129.44 517.75 M451.7 517.75 C339.59 517.58, 228.59 518.1, 129.44 517.75 M129.44 517.75 C44.66 515.86, -0.05 476.04, 0 388.32 M129.44 517.75 C42.51 516.07, -1.83 475.16, 0 388.32 M0 388.32 C-0.74 307.4, -0.79 226.18, 0 129.44 M0 388.32 C0.92 313.37, 1 240.49, 0 129.44 M0 129.44 C1.65 42.67, 41.78 1.83, 129.44 0 M0 129.44 C1.68 45.06, 44.81 -1.72, 129.44 0" stroke="#343a40" stroke-width="1" fill="none"></path></g><g transform="translate(255.2023394723734 18.888323970704278) rotate(0 64.52986560477848 15.643603782976584)"><text x="0" y="25.287207565953214" font-family="Helvetica, Segoe UI Emoji" font-size="26.07267297162767px" fill="#000000" text-anchor="start" style="white-space: pre;" direction="ltr">Application</text></g><g stroke-linecap="round"><g transform="translate(769.6158639622498 138.52936269653833) rotate(0 127.50897947778492 52.822327915559526)" fill-rule="evenodd"><path d="M18.8 0.44 C18.8 0.44, 18.8 0.44, 18.8 0.44 M18.8 0.44 C18.8 0.44, 18.8 0.44, 18.8 0.44 M-0.08 27.32 C9.95 17.56, 20.87 4.28, 27.98 -5.33 M1.61 26.1 C12.37 14, 25.16 1.21, 29.4 -5.04 M2.1 31.88 C17.3 13.04, 31.27 -2.21, 41.32 -14.14 M0.98 31.59 C17.46 15.94, 30.61 -1.87, 42.05 -13.38 M1.36 37.03 C13.52 28, 22.64 14.99, 48.67 -16.08 M2.61 39.12 C17.92 19.68, 34.26 0.48, 49.14 -15.96 M2.15 43.43 C12.97 31.62, 27.21 17.97, 57.56 -17.39 M2.96 43.32 C20.34 23.11, 40.51 -0.49, 56.03 -17.27 M3.6 50.96 C24.41 22.92, 47.08 -3.41, 65.27 -18.66 M1.89 49.8 C21.89 27.31, 42.93 2.21, 62.54 -19.93 M1.98 56.61 C25.94 28.63, 54.22 -2.01, 68.53 -20.36 M1.8 56.79 C18.91 35.94, 39.01 15.75, 70.43 -21.47 M0.5 61.96 C25.84 39.12, 45.78 10.07, 77.99 -24.48 M1.32 63.32 C30.76 28.62, 62.03 -5.72, 76.65 -24.26 M1.18 70.61 C30.02 37.81, 55.58 7.6, 82.04 -25.32 M1.87 68.37 C23.9 42.9, 46.03 16, 82.95 -25.55 M0.57 76.85 C22.42 51.3, 46.89 25.06, 85.99 -23.25 M1.23 76.28 C36.77 35.16, 69.49 -4.26, 87.82 -23.59 M1.62 79.12 C23.55 53.48, 45.53 28.83, 93.14 -25.61 M2.16 81.87 C21.01 57.2, 42.27 34.06, 93.37 -23.73 M0.19 86.68 C20.64 63.87, 39.6 40.8, 100.69 -24.7 M2.68 85.91 C22.73 61.77, 46.9 35.95, 99.98 -24.72 M0.8 92.55 C32.48 61.56, 58.48 25.28, 106.81 -24.36 M2.62 91.71 C22.75 68, 43.68 45.64, 105.2 -24.59 M5.75 97.2 C28.47 68.8, 51.71 44.83, 111.82 -24.07 M4.54 95.56 C44.06 47.91, 83.75 3.15, 109.69 -25 M7.08 98.5 C45.01 54.6, 82.71 15.69, 117.99 -25.71 M6.4 98.42 C48.19 52.99, 88.15 4.84, 116.79 -25.3 M8.24 102.14 C39.62 70.39, 67.36 40.22, 124.69 -27.91 M9.1 103.01 C52.62 54.04, 92.46 7.57, 122.45 -27.17 M11.93 107.08 C48.29 64.46, 84.11 23.5, 126.26 -26.08 M11.05 105 C56.71 55.59, 101.39 3.69, 128.9 -27.89 M16.61 109.97 C36.91 80.33, 63.66 50.69, 131.67 -28.51 M14.48 108.16 C48.83 69.07, 84.63 29.49, 133.11 -26.79 M16.31 110.6 C42.84 79.72, 69.72 51.75, 137.81 -27.67 M18 111.53 C53.47 69.08, 90.56 28.49, 137.78 -27.76 M22.43 114.84 C55.23 72.4, 92.52 34.52, 142.61 -28.24 M20.21 113.06 C60.33 68.23, 100.51 22.05, 143.34 -27.59 M24.87 114.58 C55.91 81.16, 85.06 47.66, 148.78 -26.47 M23.63 117.27 C64.81 71.44, 102.85 26.67, 149.42 -26.64 M28.54 120.15 C53.83 89.19, 79.62 61.51, 155.05 -27.96 M26.93 118.4 C75.53 61.43, 124.85 5.76, 152.84 -26.86 M33.15 121.78 C74.43 67.88, 119.77 17.47, 161.22 -28 M31.58 119.58 C57.62 90.2, 85.09 59.18, 158.55 -27.42 M35.7 119.76 C82.65 67.35, 130.22 10.26, 162.78 -24.59 M36.04 121.74 C71.11 79.55, 104.82 40.63, 162.89 -26.03 M41.65 122.66 C74.28 84.7, 109 44.57, 169.19 -24.81 M39.77 121.49 C78.59 78.09, 116.46 34.03, 167.77 -26.56 M42.02 122.99 C90.38 74.27, 133.91 20.38, 174.56 -25.32 M44.09 123.56 C85.54 74.13, 129.88 24.05, 172.05 -23.86 M49.2 126.16 C79.71 91.64, 110.09 55.71, 179.3 -25.98 M48.78 125.42 C87.32 79.04, 128.35 34.17, 177.03 -24.64 M52.16 128.9 C96.37 75.78, 141.73 26.55, 182.74 -24.62 M51.05 126.47 C103.78 68.35, 154.53 10.73, 181.8 -22.5 M55.58 128.42 C101.54 77.91, 145.33 24.47, 188.06 -21.95 M55.47 128.85 C91.39 86.99, 127.39 45.41, 188.02 -22.16 M58.93 129.02 C102.18 79.64, 147.07 29.7, 191.34 -20.14 M60.62 129 C89 96.39, 117.77 64.8, 191.61 -22.13 M65.3 129.11 C109.54 78.24, 152.16 26.22, 196.94 -18.88 M65.72 129.91 C98.32 92.92, 130.39 56.11, 196.2 -20.99 M71.06 130.73 C121.09 72.44, 170.18 17.96, 201.21 -17.2 M70.07 129.91 C102.23 92.25, 136.41 51.83, 199.2 -19.52 M74.84 133.01 C101.82 100.43, 132.62 66.78, 202.84 -18.92 M74.78 131.51 C99.76 100.64, 126.59 70.74, 204.31 -17.47 M80.92 131.59 C113.23 90.94, 146.56 52.74, 208.3 -16.84 M78.96 131.62 C125.4 80.99, 169.38 30.73, 207.56 -14.98 M82.06 131.72 C122.42 91.07, 157.28 52.87, 212.92 -13.46 M83.55 132.42 C123.53 85.49, 165.18 39.38, 212.18 -14.81 M89.49 136.25 C121.76 94.65, 153.6 55.02, 218.05 -12.5 M87.06 134 C129.91 86.08, 172.82 36.32, 216.61 -14.13 M95.17 135 C120.68 100.37, 148.61 72.03, 220.24 -11.23 M92.63 133.51 C128.18 93.24, 163.73 54.33, 219.36 -10.13 M96.5 134.81 C148.01 78.32, 196.33 20.45, 224.95 -9.79 M98.51 133.85 C131.14 96.4, 164.52 58.22, 223.6 -9.64 M103.29 136.11 C133.55 98.43, 169.29 61.22, 228.46 -7.24 M103.85 134.03 C152.49 77.7, 199.06 23.13, 226.81 -6.43 M109.68 134.66 C152.57 86.48, 194.93 36.48, 231 -6.14 M108.32 135.63 C139.49 100.57, 170.88 64.42, 230.66 -6.07 M112.54 136.01 C141.32 104.3, 167.28 71.82, 235.2 -1.81 M113.38 134.89 C149.23 95.74, 184.66 54.61, 233.3 -2.54 M120 135.87 C161.11 84.88, 205.45 34.71, 237.9 -1.47 M118.53 135.93 C159.09 87.9, 202.29 38.62, 235.92 0.44 M122.6 134.38 C156.83 100.7, 188.31 63.9, 240.01 3.25 M123.27 134.61 C147.42 107.89, 171.28 80.72, 240.36 3.58 M129.07 136.73 C169.75 90.81, 209.08 41.76, 240.26 7.49 M128.66 135.98 C162.29 97.12, 197.96 57.06, 241.73 6.88 M133.49 135.38 C166.95 95.05, 204.08 53.77, 245.07 8.08 M133.25 136.14 C166.68 98.93, 199.83 62.05, 243.97 9.36 M140.43 137.75 C181.04 87.35, 222.25 42.46, 248.31 12.99 M139.99 136.66 C181 87.74, 224.11 39.51, 246.43 12.13 M144.78 135.63 C171.48 106.62, 197.48 76.59, 247.82 17.77 M144.9 135.76 C177.91 97.49, 210.68 61.53, 248.19 15.62 M149.57 136.16 C189.49 91.67, 225.48 45.88, 251.2 20.73 M150.57 135.97 C188.85 89.49, 227.02 44.68, 250.59 20.45 M154.4 134.48 C189.51 100.94, 221.93 59.93, 250.99 24.9 M155.5 134.47 C189.64 97.85, 221.13 58.91, 252.22 24.09 M161.94 135.93 C181.57 108.57, 204.26 84.02, 256.43 26.92 M162.26 134.07 C180.82 113.83, 200.25 91.87, 255.44 27.51 M168.46 134.98 C199.06 99.04, 228.54 63.98, 255.94 31.77 M166.87 133.84 C191.57 106.83, 214.64 78.43, 256.69 30.61 M172.25 131.7 C198.55 105.63, 223.79 76.4, 254.4 37.21 M174.97 132.25 C194.04 110.59, 213.65 88.35, 256.48 38.38 M180.77 133.4 C200.59 107.21, 224.65 80.92, 257.37 44.67 M179.81 132.61 C203.42 105.39, 227.12 77.82, 255.43 44.48 M185.18 129.37 C206.39 105.61, 226.38 86.14, 256.48 52.73 M186.46 130.45 C201.77 113.81, 217.78 95.98, 256.45 50.49 M192.74 131.01 C207.98 111.25, 226.13 93.53, 254.44 56.29 M193.08 129.43 C210.49 109.73, 227.65 89.11, 255.53 57.78 M198.69 129.56 C220.32 104.25, 241.85 81.23, 254.26 62.54 M198.54 129.75 C219.91 103.63, 243.52 77.5, 255.7 63.16 M207.35 127.51 C226.11 105.14, 243.04 82.78, 255.66 71.35 M206.33 127.3 C220.66 108.67, 238.46 89.1, 255.28 70.04 M213.98 126.07 C224.96 109.7, 236.11 95.57, 254.32 77.47 M214.14 123.84 C226.94 109.06, 239.63 93.11, 255.85 76.36 M223.86 118.82 C229.99 109.53, 238.23 101.29, 253.54 83.25 M221.81 120.37 C234.92 105.72, 246.8 91.51, 255.77 81.95 M230.2 115.18 C237.74 109.36, 242.57 103.47, 255.54 88.79 M230.93 115.33 C237.57 109.08, 243.44 102.33, 254.17 88.47" stroke="#000000" stroke-width="0.5" fill="none"></path><path d="M-0.09 25.47 C0.2 31.08, 0.97 46.16, 1.49 57.12 C2.01 68.07, -1.93 80.74, 3.02 91.19 C7.96 101.64, 17.44 113.05, 31.17 119.83 C44.9 126.6, 62.9 129.7, 85.4 131.84 C107.91 133.98, 143.48 134.41, 166.2 132.66 C188.92 130.92, 207.35 127.27, 221.73 121.34 C236.1 115.42, 246.73 107.52, 252.46 97.09 C258.19 86.66, 256.43 71.88, 256.12 58.78 C255.82 45.67, 257.22 30.58, 250.63 18.48 C244.05 6.37, 231.86 -6.35, 216.61 -13.87 C201.36 -21.38, 180.98 -24.71, 159.16 -26.6 C137.33 -28.49, 107.28 -28.44, 85.65 -25.2 C64.02 -21.96, 43.62 -15.48, 29.38 -7.18 C15.14 1.12, 5.28 19.34, 0.24 24.6 M-1.6 24.9 C-1.36 30.72, 0.32 46.95, 1.03 58.13 C1.75 69.3, -2.4 81.43, 2.67 91.94 C7.74 102.44, 17.42 114.55, 31.48 121.17 C45.54 127.79, 64.39 129.95, 87.02 131.67 C109.66 133.39, 144.71 133.37, 167.27 131.5 C189.82 129.62, 208.24 126.23, 222.36 120.42 C236.48 114.61, 246.54 107.1, 251.99 96.65 C257.44 86.2, 255.16 70.91, 255.04 57.74 C254.92 44.56, 257.7 29.45, 251.29 17.62 C244.87 5.78, 232.15 -5.89, 216.56 -13.27 C200.97 -20.65, 179.57 -24.63, 157.77 -26.68 C135.97 -28.73, 107.18 -28.78, 85.74 -25.56 C64.3 -22.34, 43.29 -15.61, 29.11 -7.33 C14.94 0.94, 5.59 18.58, 0.69 24.06" stroke="#000000" stroke-width="1" fill="none"></path></g></g><g stroke-linecap="round" transform="translate(789.8373090634776 116.31079786268083) rotate(0 103.92828066355605 39.74594302997184)"><path d="M63.41 3.78 C74.99 1.31, 92.18 0.49, 106.2 0.41 C120.22 0.33, 134.6 0.93, 147.51 3.31 C160.42 5.68, 174.43 10.5, 183.67 14.64 C192.91 18.77, 198.92 23.13, 202.95 28.13 C206.97 33.13, 209.66 39.19, 207.82 44.61 C205.97 50.04, 199.31 56.05, 191.88 60.67 C184.45 65.28, 174.83 69.13, 163.25 72.31 C151.68 75.49, 136.19 78.65, 122.42 79.73 C108.64 80.81, 94.19 80.17, 80.61 78.81 C67.02 77.45, 52.3 74.82, 40.9 71.58 C29.51 68.35, 18.97 64.17, 12.23 59.4 C5.49 54.63, 1.36 48.34, 0.46 42.98 C-0.43 37.61, 2.27 32.21, 6.86 27.2 C11.44 22.19, 17.79 16.96, 27.97 12.9 C38.16 8.84, 60.09 4.72, 67.96 2.84 C75.84 0.96, 74.64 1.21, 75.22 1.61 M94.26 0.76 C107.61 -0.1, 125.37 0.97, 139.05 2.68 C152.74 4.39, 166.1 7.23, 176.37 11.02 C186.64 14.82, 195.61 20.27, 200.67 25.43 C205.72 30.59, 207.38 36.97, 206.72 41.99 C206.07 47.02, 202.29 50.96, 196.73 55.58 C191.17 60.21, 183.85 65.99, 173.35 69.75 C162.85 73.51, 147.36 76.38, 133.74 78.13 C120.12 79.88, 105.67 80.83, 91.62 80.27 C77.57 79.71, 61.39 77.69, 49.45 74.76 C37.51 71.84, 28 67.44, 19.99 62.75 C11.97 58.06, 4.36 52.05, 1.37 46.62 C-1.62 41.2, -1.49 35.11, 2.04 30.18 C5.56 25.25, 13.81 21.3, 22.52 17.03 C31.24 12.75, 42.12 7.32, 54.33 4.54 C66.55 1.76, 89.16 1.08, 95.81 0.34 C102.47 -0.39, 94.06 -0.51, 94.26 0.1" stroke="none" stroke-width="0" fill="#ffff"></path><path d="M61.8 3.82 C73.13 1.18, 89.09 -0.8, 103.07 -0.89 C117.06 -0.99, 132.67 0.79, 145.69 3.24 C158.71 5.7, 171.51 9.82, 181.18 13.83 C190.84 17.85, 199.16 22.22, 203.66 27.32 C208.17 32.43, 209.87 39.19, 208.21 44.46 C206.56 49.74, 201.03 54.51, 193.73 58.99 C186.43 63.46, 175.76 67.93, 164.39 71.3 C153.03 74.66, 139.26 77.83, 125.54 79.18 C111.81 80.52, 95.72 80.56, 82.05 79.36 C68.38 78.15, 54.82 75.23, 43.5 71.95 C32.17 68.66, 21.38 64.34, 14.1 59.64 C6.82 54.94, 1.37 49.18, -0.17 43.75 C-1.71 38.32, 0.25 32.09, 4.84 27.05 C9.43 22.02, 15.11 17.9, 27.34 13.53 C39.57 9.16, 66.61 3.04, 78.22 0.84 C89.82 -1.37, 96.33 -0.3, 96.98 0.29 M97.52 -0.96 C110.78 -1.66, 126.04 0.73, 139.39 2.96 C152.74 5.18, 167.61 8.84, 177.64 12.39 C187.66 15.94, 194.71 19.32, 199.55 24.27 C204.39 29.21, 206.95 36.58, 206.67 42.09 C206.4 47.59, 204.27 52.45, 197.89 57.3 C191.52 62.15, 179.6 67.53, 168.42 71.2 C157.24 74.86, 144.04 78.14, 130.8 79.3 C117.55 80.47, 103.03 79.14, 88.95 78.19 C74.87 77.25, 58.07 76.66, 46.32 73.64 C34.57 70.62, 25.82 64.62, 18.44 60.06 C11.05 55.5, 4.61 51.53, 2.02 46.27 C-0.57 41.02, -0.74 33.58, 2.91 28.55 C6.55 23.52, 14.77 20.19, 23.89 16.08 C33.02 11.98, 45.03 6.37, 57.64 3.94 C70.25 1.51, 92.66 2.02, 99.58 1.51 C106.5 1.01, 99.27 0.5, 99.16 0.9" stroke="#000000" stroke-width="1" fill="none"></path></g><g stroke-linecap="round"><g transform="translate(770.9923982849772 251.61455165998154) rotate(0 126.25602106772703 52.0142763871271)" fill-rule="evenodd"><path d="M0 0 C0 0, 0 0, 0 0 M0 0 C0 0, 0 0, 0 0 M0.71 5.37 C1.1 4.49, 3.15 2.55, 3.9 1.93 M0.6 5.84 C1.21 4.87, 2.39 3.78, 3.68 1.9 M-0.66 12.86 C2.06 9.41, 4.63 7.56, 7.09 3.59 M-0.14 11.93 C2.1 10.01, 2.91 8.37, 6.8 4.43 M1.12 17.7 C3.01 14.31, 5.77 12.67, 10.37 7.85 M-0.05 18.05 C4.84 12.89, 7.07 8.8, 10.24 6.41 M1.56 24.71 C5.76 20.18, 8.9 17.11, 12.56 10.13 M0.21 23.92 C3.6 20.97, 7.09 16.62, 14.72 9.16 M-0.28 29.06 C7.83 25.48, 11.89 17.19, 17.87 11.13 M0.63 28.85 C3.58 25.85, 8.92 21.8, 16.55 11.1 M1.65 36.66 C4.44 31.31, 11.38 22.89, 20.4 13.35 M1.21 37.12 C6.45 30.3, 12.15 22.18, 20.25 12.04 M-0.39 40.1 C8.12 33.44, 14.91 27.41, 21.8 14.22 M1.55 41.07 C9.55 31.23, 18.44 22.4, 22.83 15.13 M0.93 47.88 C9.59 35.78, 20.4 26.49, 28.28 17.71 M-0.04 48.23 C6.87 39.66, 12.97 33.59, 26.65 16.82 M2.29 54.05 C11.3 40.65, 25.95 26.48, 31.85 18.83 M1.64 51.6 C13.07 40.16, 23.87 26.04, 31.37 19.03 M1.75 56.71 C8.91 49.7, 14.32 43.7, 36.75 21.78 M3.42 57.95 C14.93 44.58, 26.6 29.94, 34.19 19.98 M2.37 61.62 C16.43 50.45, 24.06 39.78, 37.29 23.14 M5.17 62.09 C13.22 53.42, 20.08 43.9, 38.45 21.2 M3.48 65.46 C19 54.04, 26.99 40.39, 43.66 23.35 M5.88 67.89 C14.73 57.48, 22.68 45.88, 43.24 23.61 M8.41 71.97 C23.51 55.5, 39.03 37.44, 49.71 23.56 M7.16 71.09 C17.87 58.88, 30.79 43.65, 47.97 24.21 M10.36 75.65 C23.45 61.47, 34.48 47.74, 52.15 23.68 M9.86 72.77 C20.45 63.03, 29.14 50, 51.31 24.72 M14.88 76.47 C26.65 62.66, 38.72 47.23, 56.3 25.47 M12.38 76.76 C27.45 59.9, 43.68 42.11, 55.78 26.5 M16.32 80.04 C29.73 62.61, 49.67 42, 59.96 25.77 M15.87 79.49 C26.02 68.05, 34.14 57.21, 61.35 28.45 M18.96 81.27 C35.11 60.97, 53.95 43.02, 63.2 27.7 M19.15 82.45 C31.32 68.61, 43.01 53.11, 66.01 27.9 M23.52 83.35 C34.65 69.51, 48.85 54.56, 68.79 29.06 M22 84.82 C38.23 65.58, 55.57 45.96, 70.05 29.81 M27.67 86.17 C42.6 65.49, 61.87 47.14, 74.13 27.8 M25.44 86.63 C37.28 72.37, 48.72 58.25, 74.68 29.88 M29.1 88 C40.09 76.61, 50.87 62.31, 80.28 29.72 M29.62 88.16 C49.43 65.58, 67.46 41.71, 78.92 30.99 M32.72 91.47 C55.12 65.18, 75.99 44.64, 83.82 29.33 M32.75 90.64 C49 70.95, 66.74 52.06, 84.17 31.82 M36.47 90.67 C59.47 67.9, 75.98 45.42, 88.68 31.63 M37.72 91.08 C49.48 76.12, 64.22 60.5, 89.87 31.29 M39.09 92.44 C52.48 80.41, 65.22 65.55, 94.58 32.26 M39.67 94.25 C58.55 71.98, 78.13 49.97, 94.73 32.46 M46.64 94.72 C62.56 75.15, 79.3 54.77, 100.2 31.42 M45.23 94.77 C55.59 79.84, 68.89 66.54, 99.62 31.17 M50.33 94.05 C63.54 79.32, 75.97 66.25, 104.99 33.07 M50.18 95.33 C61.67 81.23, 75.24 65.78, 104.25 32.95 M54.26 98.48 C73.66 72.48, 91.67 52.1, 108.98 34.14 M53.99 97.3 C70.6 76.59, 89.45 55.93, 108.66 32.96 M57.99 98.26 C79.76 72.54, 102.9 47.14, 113.94 32.45 M58.12 98.17 C69.58 84.69, 83.61 68.59, 113.25 33.59 M60.91 98.03 C79.96 80.28, 96.23 59.82, 117.82 32.86 M61.19 99.41 C83.45 76.66, 103.86 52.92, 118.92 33.4 M66.19 102.5 C82.26 83.46, 97.19 61.53, 125.24 34.28 M66.7 100.93 C81.14 83.33, 96.63 67.04, 124.46 33.78 M69.78 99.89 C87.53 84.81, 101.45 66.09, 128.03 34.07 M70.87 102.21 C89.33 79.36, 108.62 57.6, 130.73 34.1 M77.03 102.88 C94 83.84, 109.38 63.2, 136.32 33.7 M74.94 101.93 C87.61 86.69, 99.69 73.16, 134.61 33.11 M81.03 102.55 C103.15 74.11, 125.93 50.37, 141.01 33.51 M80.41 103.69 C100.5 79.82, 119.69 57.75, 141.27 34.34 M85.21 103.54 C100.94 84.46, 117.38 65.23, 146.25 32.81 M85.31 103.87 C97.94 88.65, 111.95 70.92, 145.38 32.02 M91.06 104.49 C106.07 87.29, 120.93 68.32, 153.32 31.63 M90.77 103.77 C107.79 83.85, 124.06 65.77, 152.77 33.51 M94.7 103.53 C120.05 77.44, 142.68 50.17, 156.37 31.65 M95.35 103.82 C110.5 85.55, 124.46 68.34, 157.02 33.88 M99.93 105.13 C123.24 79.34, 142.9 53.8, 164.22 31.11 M100.87 104.21 C116 87.57, 131.4 69.75, 162.97 31.66 M104.13 104.15 C127.33 80.28, 144.15 60.5, 165.61 33.27 M106.09 103.54 C120.43 87.07, 133.77 71.48, 166.75 32.92 M112.65 103.65 C135.95 77.95, 158.76 52.22, 174.87 32.83 M109.91 104.47 C123.79 89.78, 137.69 72.74, 173.3 32.47 M116.03 103.17 C133.49 83.89, 149.18 65.14, 178.52 31.4 M116.33 104.65 C137.48 78.57, 158.02 55.47, 179.7 31.02 M121.12 104.4 C143.3 80.96, 161.89 55.9, 186.36 30.39 M122.34 104.09 C135.7 86.76, 151.15 70.83, 186.01 30.77 M128.24 103.33 C150.01 77.54, 171.89 54.68, 193.27 26.74 M126.93 104.14 C151.47 75.77, 176.5 45.98, 193.94 26.92 M132.28 105.73 C147.52 86.69, 161.65 68.46, 200.43 25.11 M130.93 106.56 C145.48 90.03, 159.18 72.11, 199.78 26.52 M135.2 103.57 C158.89 78.79, 184.37 50.98, 205.02 24.01 M137.27 104.69 C158.07 81.48, 179.76 56.98, 206.9 24.33 M142.56 104.2 C161.82 82.39, 179.12 60.88, 213.45 20.54 M142.32 104.43 C162.9 81.59, 184.48 57.94, 214.76 22.32 M147.28 107.05 C178.36 71.51, 208.1 38.22, 221.13 19.33 M147.43 105.58 C175.63 71.96, 203.63 40.31, 221.5 18.26 M152.78 105.33 C175.38 78.71, 200.56 47.81, 231.67 14.44 M152.83 105.23 C177.91 75.36, 204.91 47.23, 230.84 14.42 M156.83 103.68 C186.99 71.66, 217.96 38.4, 241.94 8.83 M157.3 104.24 C189.75 68.77, 222.67 30.28, 240 8.66 M164 102.38 C183.98 78.98, 208.74 52.02, 251.99 2.27 M163.36 103.08 C180.11 83.92, 197.85 64.14, 251.34 3.18 M168.81 103.29 C200.29 70.67, 224.96 39.29, 252.26 10.16 M170.22 104.51 C186.62 83.6, 202.86 64.7, 252.42 8.93 M173.56 105.05 C201.5 71.94, 229.28 41.03, 250.98 12.41 M174.41 102.49 C197.31 76.71, 220.25 50.72, 253.11 13.32 M180.78 103.48 C197.88 79.97, 215.86 59.38, 251.72 21.67 M181.96 101.34 C199.62 82.13, 216.85 62.33, 253.96 20.07 M188.41 101.79 C214.64 71.79, 238.87 41.98, 251.14 25.14 M186.44 101.64 C213.57 71.06, 240.04 42.19, 253.74 25.86 M194.25 102.53 C206.3 88.53, 216.15 71.13, 250.71 33.56 M193.09 100.85 C207.97 84.7, 219.82 70.49, 251.89 32.88 M199.16 102.27 C215.74 79.04, 235 58.67, 249.91 41.35 M196.87 101.82 C210.68 87.33, 223.81 72.11, 251.59 39.86 M206.04 99.97 C219.26 80.73, 237.41 65.34, 251.35 46.08 M205.26 99.79 C223.61 78.27, 241.5 57.74, 251.56 47.11 M211.25 96.81 C224.41 84.94, 237.5 69.96, 252.61 54.14 M212.31 97.95 C224.84 83.1, 237.65 67.13, 251.75 53.02 M218.84 93.24 C230.61 82.87, 244.07 68.72, 250.72 60.93 M218.85 95.27 C227.63 86.46, 234.39 77.5, 250.58 59.9 M227.16 92.01 C231.8 86.36, 239.69 79.75, 247.94 66.33 M227.71 91.13 C235.72 82.94, 240.54 75.2, 248.5 66.18" stroke="#000000" stroke-width="0.5" fill="none"></path><path d="M0.94 -1 C1.18 4.03, 0.71 19.45, 1.35 31.09 C2 42.74, -0.78 58.99, 4.81 68.84 C10.41 78.7, 20.79 84.47, 34.91 90.21 C49.03 95.94, 67.27 100.97, 89.53 103.25 C111.79 105.54, 147.04 105.5, 168.49 103.91 C189.95 102.33, 205.21 98.59, 218.27 93.75 C231.33 88.91, 241.44 84.1, 246.87 74.88 C252.3 65.65, 250.41 50.49, 250.85 38.42 C251.28 26.36, 250.83 7.44, 249.49 2.47 C248.14 -2.5, 248.82 5.25, 242.78 8.58 C236.73 11.92, 226.05 18.79, 213.21 22.48 C200.38 26.16, 185.56 29.19, 165.76 30.71 C145.96 32.23, 115.95 33.23, 94.41 31.6 C72.86 29.97, 52.29 26.28, 36.5 20.93 C20.71 15.59, 5.65 2.94, -0.31 -0.47 M-0.03 1.08 C0.13 6.14, 0.13 21.12, 0.83 32.06 C1.52 43.01, -1.52 56.96, 4.11 66.74 C9.74 76.53, 20.05 84.62, 34.59 90.75 C49.14 96.88, 68.82 101.42, 91.37 103.51 C113.92 105.61, 149.16 105.16, 169.9 103.3 C190.63 101.43, 203.05 97.04, 215.81 92.31 C228.56 87.57, 240.28 83.55, 246.43 74.88 C252.58 66.21, 252.14 52.5, 252.72 40.29 C253.3 28.08, 251.49 7.3, 249.89 1.63 C248.29 -4.04, 249.5 2.77, 243.12 6.26 C236.75 9.74, 224.44 18.57, 211.66 22.52 C198.87 26.46, 186.07 28.44, 166.43 29.92 C146.79 31.41, 115.5 33.04, 93.83 31.43 C72.15 29.83, 51.91 25.44, 36.36 20.29 C20.82 15.14, 6.64 3.67, 0.56 0.53" stroke="#000000" stroke-width="1" fill="none"></path></g></g><g stroke-linecap="round"><g transform="translate(769.5526132017823 338.71982862831146) rotate(0 125.39910755099629 50.485457115077224)" fill-rule="evenodd"><path d="M0 0 C0 0, 0 0, 0 0 M0 0 C0 0, 0 0, 0 0 M0.12 5.22 C1.44 5.07, 1.7 3.76, 3.74 1.69 M0.59 5.57 C1.37 4.99, 2.03 3.88, 3.7 1.84 M0.95 12.08 C1.68 10.51, 4 7.91, 5.79 3.98 M0.02 12.45 C2.53 8.72, 5.32 6.29, 6.63 4.13 M0.55 18.04 C3.56 14.09, 8.35 8.77, 11.85 7.29 M0.9 18.39 C2.41 14.16, 5.01 11.68, 10.42 6.1 M0.9 25.83 C3.81 21.49, 8.18 15.01, 15.94 6.58 M0.1 24.31 C3.72 21.2, 5.96 17.54, 14.97 8.44 M0 31.58 C6.88 25.39, 9.04 20.47, 17.34 9.36 M-0.21 28.85 C5.03 25.89, 9.24 19.98, 17.31 10.69 M0.94 34.28 C7.25 29.52, 10.51 24.03, 21.36 12.41 M1.39 36.18 C5.5 31.02, 8.3 25.64, 20.05 12.41 M-0.87 43.08 C7.96 34.14, 17.47 20.53, 23.28 16.06 M0.1 41.74 C5.29 35.96, 11.47 28.8, 24.19 15.41 M0.25 47.23 C10.35 35.8, 23.23 25.08, 27.92 16 M0.6 48.14 C8.02 38.04, 17.98 27.68, 27.04 17.96 M4.65 49.57 C9.98 46.11, 14.58 37.65, 30.85 20.89 M2.2 51.4 C14.61 38.6, 24.3 26.95, 31.04 18.14 M0.74 58.24 C10.05 47.23, 20.3 40.86, 36.26 21.9 M1.98 58.46 C11.39 47.65, 19.53 38.16, 34.46 20.21 M3.23 64.27 C13.04 51.51, 23.35 40.78, 40.18 20.55 M3.7 63.56 C11.41 53.8, 18.27 44.78, 38.24 22.2 M3.89 68.88 C19.15 50.33, 32.23 37.49, 43.6 21.98 M6.31 67.28 C18.62 51.89, 29.7 38.52, 43.87 23.94 M9.28 70.87 C23.52 55.78, 36.14 41.11, 47.03 24.05 M8.4 68.75 C22.07 55.71, 32.66 41.26, 47.68 24.02 M12.7 74.78 C23.13 61.19, 33.96 46.62, 50.37 24.12 M9.82 73.58 C25.15 56.69, 37.22 40.68, 51.41 25.27 M13.92 77.15 C30.32 58.12, 45.08 38.27, 55.37 27.66 M14.2 74.91 C31.59 57.11, 47.99 37.41, 56.4 27.16 M17.13 76.35 C34.55 61.34, 48.78 40.52, 58.89 26 M16.58 79 C30.47 60.96, 44.99 46.33, 61.57 28.41 M18.75 79.41 C27.69 70.15, 38.99 57.85, 64.03 28.19 M19.94 80.84 C32.81 65.62, 44.01 53.47, 64.24 28.52 M22.64 81.78 C36.55 68.06, 49.31 52.34, 70.02 30.04 M24.11 81.74 C34.24 70.79, 43.95 59.14, 70.77 29.69 M27.26 83.45 C38.74 71.03, 52.5 55.83, 73.39 28.21 M27.72 84.18 C39.8 69.28, 52.03 54.56, 75.47 28.61 M30.9 86.51 C47.7 68.44, 61.57 50.74, 79.18 31.74 M31.06 87.14 C50.07 63.62, 67.83 42.28, 80.45 30.82 M36.17 89.66 C46.78 74.8, 63.13 56.91, 83.42 30.62 M35.34 87.45 C47.67 73.93, 60.77 58.17, 85.91 31.06 M37.18 92.06 C49.44 74.99, 61.94 62.74, 90.35 29.61 M37.59 89.39 C52.13 74.04, 66 57.41, 90.01 29.85 M40.75 91.15 C54.55 78.5, 65.57 65.74, 95.6 32.05 M42.56 91.26 C61.75 69.91, 81.12 48.42, 95.8 31.11 M46.25 93.69 C64.36 72.16, 81.71 52.59, 99.38 29.68 M46.3 92.27 C64.59 71.02, 84.53 48.49, 99.14 30.7 M48.79 95.84 C70.21 70.64, 93.34 46.6, 105.01 31.2 M50.07 93.33 C65.9 76.25, 80.36 59.87, 104.89 32.84 M56.44 96.71 C72.29 72.54, 93.81 49.25, 110.71 33.05 M55.26 94.44 C67.14 81.28, 79.03 66.02, 109.53 33.63 M58.69 96.94 C72.5 81.53, 86.58 63.64, 112.23 32.52 M58.59 96 C78.68 75.22, 96.11 53.2, 113.37 33.96 M61.01 99.23 C81.13 77.8, 98.57 57.21, 117.93 34.79 M62.4 99.18 C78.67 81.68, 93.93 64.37, 118.47 33.28 M69.35 98.42 C83.48 80.36, 94.75 66.54, 125.38 32.25 M67.79 98.72 C83.06 80.85, 99.62 62.8, 124.89 32.77 M70.71 100.84 C92.74 77.54, 111.09 54.92, 130.55 33.8 M73.03 100.09 C93.82 75.28, 115.69 49.98, 130.59 33.38 M77.58 101.79 C100.89 73.71, 122.56 50.04, 136.22 31.17 M76.63 99.78 C89.92 83.16, 104.99 66.57, 135.63 33.95 M81.22 100.2 C93.1 83.93, 109.71 71.01, 141.31 33.25 M82.36 101.67 C98.68 80.92, 116.83 62.04, 142.14 32.29 M86.08 102.35 C107.93 76.8, 129.59 50.44, 146.65 30.85 M86.41 101.61 C111.1 73.86, 133.23 46.12, 145.87 31.78 M92.41 102.99 C116 75.76, 137.76 50.63, 150.86 32.08 M91.69 102.26 C104.32 86.17, 118.79 72.29, 152.73 33.47 M96.73 103.4 C120.8 76.12, 143.69 48.68, 156.16 31.11 M97.03 101.96 C114.49 79.54, 133.04 59.35, 158.39 32.65 M103.72 102.93 C116.92 84.91, 130.31 70.32, 161.66 30.53 M102.8 102.05 C115.21 88.68, 126.44 73.95, 162.2 31.98 M107.36 104.33 C122.33 83.18, 141.45 62.87, 168.44 30.84 M106.76 102.98 C127.77 77.74, 149.59 53.35, 168.1 32.8 M111.49 104.52 C125.14 88.87, 138.74 73, 174.79 30.1 M112.31 102.87 C137.52 75.88, 160.3 47.04, 174.44 31.51 M116.3 102.99 C137 78.18, 158.23 55.06, 180.05 31.42 M117.77 102.65 C136.4 78.35, 158.03 56.39, 179.67 30.85 M122.9 104.53 C146.42 75.81, 168.35 49.84, 185.84 28.83 M122.6 102.63 C144 77.62, 166.86 52.12, 186.22 30.58 M126.46 104.58 C147.58 79.14, 171.6 53.53, 192.46 29.03 M127.27 102.59 C141.51 86.23, 154.38 71.03, 192.64 27 M132.08 104.78 C155.63 74.65, 180.07 50.16, 198.93 23.78 M132.91 105.13 C155.46 78.23, 176.66 51.49, 200.34 26.09 M135.95 102.28 C157.84 82.13, 176.75 58.33, 206.03 24.65 M137.08 103.75 C156.65 82.54, 174.92 61.83, 206.36 24.09 M142.62 104.32 C159.04 83.41, 175.75 63.19, 212.84 21.58 M142.86 103.22 C160.74 84.45, 177.75 64.62, 214.62 22.81 M150.76 104.8 C172.08 78.66, 195.61 49.27, 223.31 20 M149.29 102.93 C167.89 79.74, 188.44 56.8, 222.24 18.54 M154.42 102.31 C179.99 75.12, 201.3 47.51, 230.76 14.83 M154.32 102.68 C173.36 81.59, 194.08 58.46, 230.73 14.83 M158.8 102.94 C188.5 72.88, 217 39.66, 240.4 11.1 M159.37 102.33 C183.68 77.65, 204.92 49.88, 240.23 8.89 M163.54 100.63 C191.99 72.72, 216.99 41.52, 251.17 0.96 M164.25 101.86 C197.8 65.14, 230.76 27.93, 252.08 3.37 M170.5 103.96 C189.98 78.25, 210.63 57.83, 253.81 6.6 M171.71 102.98 C197.01 70.8, 224.4 39.16, 252.58 9.12 M178.29 100.72 C199.22 75.74, 222.41 48.61, 250.81 14.07 M175.74 101.47 C200.44 74.26, 224.93 46.53, 251.72 13.69 M184.17 98.95 C198.18 79.62, 215.19 59.68, 254.82 18.84 M182.03 101.03 C204.61 75.67, 226.54 52.19, 253.22 20.77 M188.52 101.79 C203.72 81.8, 219.17 61.64, 251.63 28.26 M188.36 99.85 C201.93 84.43, 217.23 69.35, 252.35 25.35 M198.02 98.49 C217.75 73.33, 234.03 50.48, 253.39 31.13 M196.34 98.47 C208.44 82.28, 222.49 66.99, 252.72 33.14 M203.59 94.81 C215.38 79.5, 230.02 62.5, 253.77 37.78 M203.15 95.9 C218.02 79.8, 232.16 62.11, 252.28 39.38 M210.16 92.99 C222.5 79.53, 238.68 61.76, 251.84 47.11 M209.98 94.43 C218.37 83.44, 227.76 72.07, 252.87 45.71 M216.51 91.34 C231.57 77.66, 243.52 64.57, 252.58 53.18 M217.66 90.96 C224.84 82.39, 230.91 75.08, 251.46 53.47 M224.53 86.09 C235.26 79.23, 242.23 70.42, 252.72 57.97 M226.55 87.62 C235.12 77.05, 243.52 67.54, 251.68 58.33 M235.73 82.16 C239.68 80.64, 242.7 73.04, 249.29 66.52 M234.85 84.39 C239.13 77.09, 243.87 71.82, 249.14 66.12" stroke="#000000" stroke-width="0.5" fill="none"></path><path d="M-1 0.8 C-1.24 5.88, -1.56 20.63, -0.53 31.4 C0.5 42.16, -0.75 55.94, 5.15 65.38 C11.06 74.82, 20.79 82.19, 34.92 88.05 C49.05 93.91, 67.55 98.36, 89.95 100.57 C112.35 102.77, 148.14 102.63, 169.32 101.27 C190.5 99.91, 204.17 97.31, 217.02 92.42 C229.87 87.53, 240.86 81.09, 246.41 71.92 C251.95 62.75, 249.78 48.86, 250.28 37.4 C250.79 25.94, 250.6 8.16, 249.45 3.17 C248.3 -1.83, 249.23 4.32, 243.38 7.43 C237.54 10.54, 227.43 18.05, 214.37 21.81 C201.3 25.58, 185.02 28.69, 165 30.02 C144.97 31.35, 115.51 31.43, 94.21 29.79 C72.92 28.15, 53.01 25.03, 37.23 20.19 C21.44 15.34, 5.65 4.24, -0.47 0.74 M0.67 0.17 C0.71 5.38, 0.95 22.01, 1.61 33 C2.27 43.99, -0.87 56.83, 4.63 66.13 C10.13 75.43, 20.04 83, 34.61 88.81 C49.17 94.61, 69.86 98.95, 92.01 100.95 C114.16 102.94, 146.57 102.33, 167.49 100.78 C188.42 99.24, 204.53 96.55, 217.57 91.66 C230.6 86.77, 240.01 80.19, 245.72 71.46 C251.44 62.74, 251.18 50.76, 251.86 39.31 C252.55 27.85, 251.14 7.92, 249.84 2.74 C248.53 -2.43, 250.12 5.09, 244.05 8.27 C237.98 11.45, 226.55 18.32, 213.42 21.83 C200.29 25.34, 185.24 28.1, 165.26 29.32 C145.28 30.54, 114.83 30.77, 93.53 29.13 C72.23 27.49, 53.01 24.53, 37.47 19.46 C21.94 14.4, 6.65 2.05, 0.32 -1.28" stroke="#000000" stroke-width="1" fill="none"></path></g></g><g transform="translate(833.8987058237927 18.816148759156476) rotate(0 56.5 15.5)"><text x="0" y="25" font-family="Helvetica, Segoe UI Emoji" font-size="26.07267297162767px" fill="#000000" text-anchor="start" style="white-space: pre;" direction="ltr">Database</text></g><g stroke-opacity="0.7" fill-opacity="0.7" stroke-linecap="round" transform="translate(49.14285714285711 51.602609684990284) rotate(0 118 106.42857142857133)"><path d="M53.94 1.57 L189.59 0.83 L212.37 6.94 L219.2 10.71 L226.63 16.77 L233.05 30.78 L235.17 45.17 L237.03 166.58 L231.46 187.88 L224.01 194.16 L220 201.77 L206.62 207.79 L188.06 214.41 L54.52 213.95 L38.99 213.58 L24.35 208.33 L18.28 203.32 L10.86 194.82 L2.79 182.91 L2.11 165.15 L-1.91 54.52 L0.64 35.97 L7.31 21.9 L14.19 14.59 L22.66 8.18 L36.7 3.19 L51.39 0.14" stroke="none" stroke-width="0" fill="#40c057"></path><path d="M53.21 0 M53.21 0 C91.53 -2.35, 128.08 -0.03, 182.79 0 M53.21 0 C97.52 -0.35, 140.44 0.83, 182.79 0 M182.79 0 C220.01 -0.74, 234.24 18.49, 236 53.21 M182.79 0 C217.67 0.49, 234.19 19.69, 236 53.21 M236 53.21 C234.8 76.18, 234.55 99.37, 236 159.64 M236 53.21 C235.85 78.2, 235.04 103.83, 236 159.64 M236 159.64 C236.18 195.36, 218.77 212.21, 182.79 212.86 M236 159.64 C233.86 196.09, 219.19 212.27, 182.79 212.86 M182.79 212.86 C141.16 211.28, 96.24 211.22, 53.21 212.86 M182.79 212.86 C150.48 214.45, 117.78 212.78, 53.21 212.86 M53.21 212.86 C17.34 211.89, 1.04 195.41, 0 159.64 M53.21 212.86 C19.45 212.48, 1.82 193.09, 0 159.64 M0 159.64 C-1.34 135.27, -1.5 113.64, 0 53.21 M0 159.64 C0.42 128.93, 0.2 97.29, 0 53.21 M0 53.21 C-0.63 18.27, 17.37 -1.1, 53.21 0 M0 53.21 C-1.7 18.86, 19.55 -1.1, 53.21 0" stroke="#000000" stroke-width="1" fill="none"></path></g><g transform="translate(111.75584868093574 86.67329161629914) rotate(0 47 15.5)"><text x="0" y="25" font-family="Helvetica, Segoe UI Emoji" font-size="26.07267297162767px" fill="#000000" text-anchor="start" style="white-space: pre;" direction="ltr">Session</text></g><g stroke-opacity="0.7" fill-opacity="0.7" stroke-linecap="round" transform="translate(81.99999999999989 139.4597525421325) rotate(0 84.28571428571428 51.071428571428555)"><path d="M27.4 -0.24 L142.89 -0.06 L159.92 5.53 L165.6 11.02 L168.83 20.03 L168.05 78.45 L163.73 93.68 L160.61 96.88 L155.4 100.5 L142.18 103.58 L23.82 103.66 L11.05 97.68 L2.64 92.83 L-0.26 80.92 L1.65 18.21 L0.4 15.28 L7.73 7.93 L14.41 2.19 L26.05 -1.84" stroke="none" stroke-width="0" fill="#fab005"></path><path d="M25.54 0 M25.54 0 C66.76 1.5, 112.64 1.2, 143.04 0 M25.54 0 C71.51 -1.86, 116.55 -0.91, 143.04 0 M143.04 0 C160.86 -0.41, 169.77 7.34, 168.57 25.54 M143.04 0 C158.07 -1.74, 170.15 8.62, 168.57 25.54 M168.57 25.54 C168.28 42.72, 167.95 63.19, 168.57 76.61 M168.57 25.54 C168.76 38.7, 168.88 49.8, 168.57 76.61 M168.57 76.61 C167.67 92.45, 159.91 102.68, 143.04 102.14 M168.57 76.61 C167.76 94.7, 158.43 101.97, 143.04 102.14 M143.04 102.14 C117.92 100.16, 92.06 101.97, 25.54 102.14 M143.04 102.14 C114.12 101.84, 84.09 102.42, 25.54 102.14 M25.54 102.14 C10.37 102.33, -0.62 93.91, 0 76.61 M25.54 102.14 C10.57 104.22, 0.13 95.84, 0 76.61 M0 76.61 C1.87 58.29, 0.03 42.19, 0 25.54 M0 76.61 C-0.43 59.93, -0.91 42.49, 0 25.54 M0 25.54 C0.13 8.88, 8.84 0.14, 25.54 0 M0 25.54 C0.53 7.31, 10.25 0.22, 25.54 0" stroke="#343a40" stroke-width="1" fill="none"></path></g><g transform="translate(115.50000000000011 177.53118111356162) rotate(0 49 15.5)"><text x="49" y="25" font-family="Helvetica, Segoe UI Emoji" font-size="26.07267297162767px" fill="#000000" text-anchor="middle" style="white-space: pre;" direction="ltr">Cache 1</text></g><g stroke-opacity="0.7" fill-opacity="0.7" stroke-linecap="round" transform="translate(335.57142857142856 58.03118111356116) rotate(0 95.00000000000023 215.3571428571429)"><path d="M47.99 -0.6 L143.51 -1.65 L156.82 1.51 L171.88 6.47 L176.51 10.29 L182.71 17.22 L188.41 30.03 L190.95 45.67 L188.74 387.91 L188.94 403.26 L182.25 414.01 L170.22 422.72 L157.09 427.74 L144.29 429.68 L47.58 429.45 L32.26 427.45 L23.24 425.97 L11.64 419.95 L6.51 408.66 L3.45 398.3 L1.32 384.47 L0.79 37.92 L4.48 22.71 L8.49 13.41 L13.9 11.07 L25.09 3.59 L46.06 -0.22" stroke="none" stroke-width="0" fill="#fab005"></path><path d="M47.5 0 M47.5 0 C74.12 2.04, 96.3 -1.75, 142.5 0 M47.5 0 C81.46 0.08, 114.23 -1.12, 142.5 0 M142.5 0 C172.36 -1.8, 190.89 14.29, 190 47.5 M142.5 0 C172.61 0.06, 189.14 16.43, 190 47.5 M190 47.5 C188.58 177.35, 188.62 309.48, 190 383.21 M190 47.5 C189.66 139.6, 189.02 232.19, 190 383.21 M190 383.21 C189.76 413.2, 175.7 429.42, 142.5 430.71 M190 383.21 C190.01 414.7, 172.06 430.97, 142.5 430.71 M142.5 430.71 C110.81 431.37, 81.18 432, 47.5 430.71 M142.5 430.71 C111.35 430.94, 79.3 432.29, 47.5 430.71 M47.5 430.71 C16.73 430.74, -0.14 416.53, 0 383.21 M47.5 430.71 C14.1 431.67, 1.18 414.85, 0 383.21 M0 383.21 C0.72 260.62, 3.15 137.73, 0 47.5 M0 383.21 C-0.08 260.47, 0.85 137.76, 0 47.5 M0 47.5 C1.39 17.38, 17.35 0.56, 47.5 0 M0 47.5 C-1.96 17.74, 17.24 0.12, 47.5 0" stroke="#343a40" stroke-width="1" fill="none"></path></g><g stroke-opacity="0.7" fill-opacity="0.7" stroke-linecap="round" transform="translate(54.71428571428578 283.0311811135616) rotate(0 118 106.42857142857133)"><path d="M53.54 0.2 L187.45 1.32 L210.89 5.97 L221 11.79 L224.91 14.87 L232.05 30.81 L236.64 46.62 L236.63 166.04 L229.22 187.6 L224.76 196.62 L219.8 202.26 L205.19 208.95 L187.26 210.79 L54.74 214.6 L41.62 210.58 L24.18 207.38 L17.99 204.28 L9.41 194.28 L1.88 182.77 L-1.38 167.16 L-1.5 52.84 L1.49 35.76 L5.62 19.85 L11.91 13.5 L21.09 5.53 L36.95 1.68 L52.8 0.28" stroke="none" stroke-width="0" fill="#40c057"></path><path d="M53.21 0 M53.21 0 C94.3 0.25, 136.23 -1.79, 182.79 0 M53.21 0 C92.54 0.26, 132.97 -1.23, 182.79 0 M182.79 0 C219.78 -0.4, 234.07 16.56, 236 53.21 M182.79 0 C217.28 1.86, 234.54 17.02, 236 53.21 M236 53.21 C234.36 81.11, 234.23 112.18, 236 159.64 M236 53.21 C235.01 92.08, 234.44 132.37, 236 159.64 M236 159.64 C237.32 193.79, 217.3 211.48, 182.79 212.86 M236 159.64 C237.63 194.07, 216.04 211.71, 182.79 212.86 M182.79 212.86 C149.56 211.4, 113.39 211.59, 53.21 212.86 M182.79 212.86 C132.16 212.9, 81.7 211.92, 53.21 212.86 M53.21 212.86 C18.44 214.45, -0.88 194.41, 0 159.64 M53.21 212.86 C15.98 210.62, 0.04 196.6, 0 159.64 M0 159.64 C1.22 128.31, -0.6 95.36, 0 53.21 M0 159.64 C0.25 129.93, 1.61 102.2, 0 53.21 M0 53.21 C-0.33 17.88, 18.86 1.75, 53.21 0 M0 53.21 C-1.64 18.73, 16.66 0.37, 53.21 0" stroke="#000000" stroke-width="1" fill="none"></path></g><g transform="translate(117.32727725236418 318.10186304487024) rotate(0 47 15.5)"><text x="0" y="25" font-family="Helvetica, Segoe UI Emoji" font-size="26.07267297162767px" fill="#000000" text-anchor="start" style="white-space: pre;" direction="ltr">Session</text></g><g stroke-opacity="0.7" fill-opacity="0.7" stroke-linecap="round" transform="translate(87.57142857142844 370.8883239707038) rotate(0 84.28571428571428 51.071428571428555)"><path d="M26.65 0.05 L143.81 1.83 L160.2 2.68 L163.01 9.35 L169.05 20.4 L168.43 77.45 L164.93 90.59 L162.08 94.71 L154.81 101.18 L142.62 101.27 L24.95 100.18 L8.12 100.08 L5.33 93.05 L-1.05 81.62 L0.12 20.71 L3.2 13.59 L4.65 4.94 L14.21 0 L26.61 -1.5" stroke="none" stroke-width="0" fill="#fab005"></path><path d="M25.54 0 M25.54 0 C56.74 -1.31, 90.28 -0.17, 143.04 0 M25.54 0 C62.49 -1.28, 99.77 -0.84, 143.04 0 M143.04 0 C158.36 0.28, 167.79 8.94, 168.57 25.54 M143.04 0 C159.22 -1.85, 168.68 8.9, 168.57 25.54 M168.57 25.54 C170.02 42.65, 170 61.42, 168.57 76.61 M168.57 25.54 C169.08 35.3, 167.96 46.05, 168.57 76.61 M168.57 76.61 C168.95 94.65, 158.22 101.13, 143.04 102.14 M168.57 76.61 C166.31 94.93, 161.74 99.98, 143.04 102.14 M143.04 102.14 C103.62 100.72, 67.76 99.84, 25.54 102.14 M143.04 102.14 C112.96 102.01, 83.31 102.68, 25.54 102.14 M25.54 102.14 C9.5 101.32, 1.76 92.71, 0 76.61 M25.54 102.14 C9.2 101.3, 2 92.45, 0 76.61 M0 76.61 C-1.41 63.75, 0.96 53.3, 0 25.54 M0 76.61 C-0.79 63.54, 0.83 50.49, 0 25.54 M0 25.54 C0.9 6.97, 10.21 1.07, 25.54 0 M0 25.54 C-0.15 9.12, 7.82 -1.55, 25.54 0" stroke="#343a40" stroke-width="1" fill="none"></path></g><g transform="translate(121.07142857142867 408.9597525421327) rotate(0 49 15.5)"><text x="49" y="25" font-family="Helvetica, Segoe UI Emoji" font-size="26.07267297162767px" fill="#000000" text-anchor="middle" style="white-space: pre;" direction="ltr">Cache 1</text></g><g transform="translate(381.14285714285734 193.2454668278474) rotate(0 52.99999999999994 93)"><text x="53" y="25" font-family="Helvetica, Segoe UI Emoji" font-size="26.07267297162767px" fill="#000000" text-anchor="middle" style="white-space: pre;" direction="ltr">Cache 2</text><text x="53" y="56" font-family="Helvetica, Segoe UI Emoji" font-size="26.07267297162767px" fill="#000000" text-anchor="middle" style="white-space: pre;" direction="ltr"></text><text x="53" y="87" font-family="Helvetica, Segoe UI Emoji" font-size="26.07267297162767px" fill="#000000" text-anchor="middle" style="white-space: pre;" direction="ltr">Ehcache</text><text x="53" y="118" font-family="Helvetica, Segoe UI Emoji" font-size="26.07267297162767px" fill="#000000" text-anchor="middle" style="white-space: pre;" direction="ltr">Infinspan</text><text x="53" y="149" font-family="Helvetica, Segoe UI Emoji" font-size="26.07267297162767px" fill="#000000" text-anchor="middle" style="white-space: pre;" direction="ltr">...</text><text x="53" y="180" font-family="Helvetica, Segoe UI Emoji" font-size="26.07267297162767px" fill="#000000" text-anchor="middle" style="white-space: pre;" direction="ltr"></text></g><g stroke-linecap="round"><g transform="translate(772.4856384430997 265.85643777279915) rotate(0 -121.36232279561534 -0.2955877257206794)" fill-rule="evenodd"><path d="M-0.23 -0.1 L-62.82 -54.47 L-63.3 -32.02 L-243.57 -33.03 L-240.6 31.65 L-59.92 31.52 L-61.85 51.65 L-1.06 -1.77" stroke="none" stroke-width="0" fill="#228be6" fill-rule="evenodd"></path><path d="M-1.57 -1.37 C-14.44 -12.56, -26.51 -21.44, -62.95 -53.25 M0.97 -0.5 C-21.89 -19.79, -44.89 -38.35, -61.81 -52.59 M-62.12 -53.63 C-62.52 -47.04, -61.15 -41.43, -63.24 -30.18 M-61.45 -53.34 C-60.67 -47.72, -60.72 -42.61, -63.21 -32.18 M-60.89 -32.91 C-109.11 -31.87, -157.31 -34.36, -243.31 -31.75 M-61.62 -32.13 C-130.93 -30.34, -198.19 -30.56, -243.7 -32.49 M-241.55 -34.03 C-243.21 -14.32, -243.69 0.89, -241.43 30.48 M-242.65 -32.88 C-241.87 -9.22, -241.91 15.09, -241.43 29.78 M-240.2 30 C-202.98 33.77, -159.68 30.91, -61.99 29.93 M-241.65 30.25 C-176.29 29.61, -109.74 29.95, -60.24 31.36 M-59.56 31.71 C-60.62 37.48, -61.29 45.94, -58.52 52.98 M-61.17 30.39 C-60.61 36.68, -60.67 40.25, -60.85 51.2 M-59.98 53.04 C-43.54 36.42, -21.38 20.49, -1.99 1.33 M-60.39 50.52 C-47.15 41.97, -36.06 31.34, -0.4 0.46 M0 0 C0 0, 0 0, 0 0 M0 0 C0 0, 0 0, 0 0" stroke="#000000" stroke-width="1" fill="none"></path></g></g><g transform="translate(568.8095238095237 248.00737158975176) rotate(0 81 15.5)"><text x="0" y="25" font-family="Helvetica, Segoe UI Emoji" font-size="26.07267297162767px" fill="#000000" text-anchor="start" style="white-space: pre;" direction="ltr">JDBS request</text></g></svg>