<svg version="1.1" xmlns="http://www.w3.org/2000/svg" viewBox="0 0 1303.4174104960991 355.2665624925379" width="1303.4174104960991" height="355.2665624925379">
  <!-- svg-source:excalidraw -->
  
  <defs>
    <style>
      @font-face {
        font-family: "Virgil";
        src: url("https://excalidraw.com/Virgil.woff2");
      }
      @font-face {
        font-family: "Cascadia";
        src: url("https://excalidraw.com/Cascadia.woff2");
      }
    </style>
  </defs>
  <g stroke-linecap="round" transform="translate(321.2619047619047 84.20295460089642) rotate(0 92 112.50000000000006)"><path d="M-1.35 1.8 C37.89 -3.11, 72.57 0.43, 184.33 -0.61 M0.74 -0.88 C55.55 -0.74, 110.94 0.12, 184.34 -0.76 M184.77 1.11 C184.16 56.34, 182.72 108.75, 184.3 226.02 M183.79 0.1 C181.68 88.77, 182.14 177.43, 184.84 224.52 M185.27 224.98 C144.17 224.52, 105.8 223.3, 0.9 224.05 M184.55 225.88 C131.45 225.68, 80.22 224.93, -0.4 224.09 M-0.62 223.33 C-1.22 142.67, 1.05 55.97, 1.15 0.1 M0.68 224.23 C1.03 150.98, -0.3 77.12, 0.55 0.81" stroke="#000000" stroke-width="1" fill="none"></path></g><g transform="translate(326.2619047619047 184.70295460089642) rotate(0 87 12)"><text x="87" y="19" font-family="Helvetica, Segoe UI Emoji" font-size="20px" fill="#000000" text-anchor="middle" style="white-space: pre;" direction="ltr">Application</text></g><g stroke-linecap="round"><g transform="translate(1158.716167347051 118.84885536115132) rotate(0 66.97319424748082 15.067154574136225)" fill-rule="evenodd"><path d="M0 0 C0 0, 0 0, 0 0 M0 0 C0 0, 0 0, 0 0 M0 6.72 C4.63 -1.54, 10.32 -6.52, 17.49 -14.2 M0.62 7.03 C3.83 1.81, 9.34 -3.97, 17.31 -14.64 M-1 10.72 C9.76 0.2, 24.68 -14.22, 30.52 -20.23 M-0.26 11.4 C12.12 -0.43, 22.53 -12.7, 29.85 -21.79 M0.05 17.01 C9.91 8.32, 14.97 -0.3, 37.33 -25.17 M0.67 18.66 C7.28 10.36, 14.56 1.67, 37.01 -22.85 M-1.96 23.63 C10.34 9.27, 21.34 -3.5, 44.34 -23.39 M-0.34 23.87 C9.46 11.12, 20.73 0.27, 43.39 -24.28 M0.01 27.15 C16.54 13.11, 29.34 -3.65, 49.66 -26.17 M1.91 28.63 C12.15 15.44, 23.86 4.26, 48.46 -24.37 M3.2 33 C18.6 16, 30.28 0.1, 52.05 -24.88 M3.29 33.24 C13.95 19.82, 26.81 5.87, 54.33 -25.68 M3.27 39.95 C17.11 26.02, 30.2 9.31, 60.95 -25.2 M3.33 37.89 C25.19 14.05, 47.26 -11.16, 59.48 -25.47 M5.72 41.51 C22.18 22.47, 36.31 5.11, 65.54 -25.77 M6.31 41.88 C20.1 25.77, 33.45 10.4, 64.51 -25.56 M7.02 43.2 C24.01 29.4, 37.25 11.2, 70.67 -26.67 M9.13 45.67 C31.78 18.16, 53.09 -6.64, 71.83 -27.02 M11.06 48.88 C36.26 20.83, 59.45 -7.19, 77.34 -27.32 M11.5 46.99 C37.07 18.37, 62.05 -9.93, 76.83 -27.32 M16.41 48.78 C33.98 28.53, 55.13 2.8, 81.22 -25.95 M15.9 49.63 C28.52 32.58, 42.84 18.15, 80.13 -26 M18.85 52.11 C40.38 29.88, 58.42 4.87, 83.86 -23.52 M17.79 51.87 C41.2 24.1, 65.75 -1.72, 85.5 -25.79 M21.13 51.56 C47.13 21.37, 77.36 -7.94, 91.17 -23.65 M22.19 53.75 C40.25 32.8, 55.96 13.24, 90.07 -24.82 M24.97 55.46 C45.59 32.25, 61.97 11.8, 94.66 -26.34 M27.26 54.96 C52.78 24.21, 80.28 -5.3, 96.29 -23.45 M31.43 57.23 C44.52 37.27, 59.07 20.62, 101.28 -23.09 M31.51 55.15 C56.91 28.18, 81.76 -2, 99.48 -23.76 M35.52 56.5 C61.55 28.5, 84.5 -0.74, 105.27 -21.69 M36.09 56.78 C52.61 36.16, 70.42 15.61, 104.37 -23.38 M39.4 56.96 C59.36 35.26, 79.36 15.82, 109.29 -20.55 M40.68 57.76 C60.16 37.21, 78.72 15.37, 110.05 -22.23 M44.14 56.83 C72.3 24.76, 96.71 -3.89, 111.05 -19.97 M45 57.72 C67 31.29, 90.35 4.9, 113.19 -20.84 M51.71 59 C73.76 30.16, 96.7 1.25, 117.09 -17.28 M51.5 56.92 C71.39 34.53, 90.23 13.23, 115.59 -17.81 M54.71 59.31 C78.17 32.79, 98.53 10.03, 121.29 -14.05 M54.81 58.29 C76.91 34.72, 97.14 11.09, 119.49 -16.19 M62.29 60.11 C81.29 33.83, 104.46 9.79, 123.45 -12.01 M60.41 57.81 C84.52 30.49, 108.46 4.46, 123.7 -13.69 M64.64 56.59 C81.1 43.52, 93.42 29.23, 125.78 -10.01 M66.81 58.59 C85.71 34.87, 105.98 12.07, 126.97 -10.73 M69.58 59.84 C89.63 36.21, 111.27 12.18, 128.07 -8.68 M68.86 60.74 C83.67 43.14, 98.75 26.83, 128.8 -7.47 M74.25 58.37 C89.34 47.54, 100.94 30.47, 132.24 -3.89 M75.15 60.61 C94.46 37.05, 114.88 12.48, 130.7 -4.36 M81.85 58.74 C101.01 37.46, 116.12 19.6, 132.82 -2.2 M81.48 60.3 C96.33 41.21, 111.03 23.59, 134.43 -1.89 M89.32 55.07 C97.06 45.76, 109.82 32.92, 134.91 4.77 M88.29 56.88 C100.18 44.04, 111.77 30.13, 134.65 3.86 M93.99 54.91 C103.51 46.3, 110.28 37.67, 137.2 7.05 M93.99 57.03 C104.44 44.95, 115.18 31.77, 135.67 7.7 M101.32 56.72 C113.22 38.22, 127.64 23.79, 137.3 15.25 M100.39 54.37 C110.89 42.46, 121.53 30.5, 135.51 15 M106.82 56.52 C113.52 49.26, 119.35 40.72, 136.85 21.49 M105.43 54.81 C113.61 45.37, 124 33.99, 134.69 20.51 M113.85 51.6 C118.78 44.05, 126.79 37, 135.4 25.08 M112.6 52.12 C120.45 45.79, 126.52 36.78, 134.86 26.71 M120.27 50.95 C124.61 44.55, 135.03 36.8, 138.25 31.5 M118.39 53.09 C122.73 47, 128.68 42.08, 138.37 30.62" stroke="#000000" stroke-width="0.5" fill="none"></path><path d="M1.08 0.51 C0.81 3.44, -0.95 10.88, -0.75 16.76 C-0.56 22.65, -0.54 30.3, 2.25 35.82 C5.03 41.35, 8.71 46.28, 15.97 49.9 C23.22 53.52, 33.67 56.53, 45.79 57.54 C57.91 58.55, 76.86 57.11, 88.68 55.95 C100.5 54.8, 109.47 53.35, 116.73 50.59 C123.99 47.83, 129.25 45.03, 132.22 39.39 C135.2 33.74, 134.73 23.83, 134.58 16.74 C134.43 9.65, 134.88 2.84, 131.3 -3.17 C127.73 -9.17, 120.96 -15.36, 113.16 -19.29 C105.35 -23.21, 95.64 -25.42, 84.49 -26.73 C73.34 -28.03, 57.94 -28.81, 46.26 -27.11 C34.57 -25.41, 21.96 -21.23, 14.37 -16.52 C6.78 -11.81, 3.28 -1.73, 0.71 1.15 M0.19 -0.26 C0.2 2.86, 1.1 11.58, 1.41 17.83 C1.72 24.08, -0.39 31.71, 2.05 37.24 C4.48 42.77, 8.95 47.52, 16.02 51.01 C23.09 54.51, 32.66 57.04, 44.47 58.21 C56.29 59.37, 74.74 59.51, 86.9 58.02 C99.05 56.53, 110.03 52.36, 117.41 49.29 C124.79 46.23, 128.55 44.76, 131.17 39.64 C133.79 34.51, 133.03 25.78, 133.13 18.54 C133.22 11.3, 135.1 2.27, 131.72 -3.82 C128.34 -9.91, 120.9 -14.18, 112.86 -18.02 C104.82 -21.86, 94.45 -25.17, 83.48 -26.87 C72.51 -28.56, 58.73 -29.89, 47.04 -28.18 C35.34 -26.47, 20.93 -21.5, 13.32 -16.6 C5.72 -11.71, 3.73 -1.37, 1.41 1.2" stroke="#000000" stroke-width="1" fill="none"></path></g></g><g stroke-linecap="round" transform="translate(1169.943732155522 94.54309671335352) rotate(0 54.67992870204182 20.91158746395365)"><path d="M35.53 1.88 C43.96 0.34, 57.42 0.18, 67.13 0.81 C76.83 1.44, 86.77 3.17, 93.76 5.68 C100.75 8.19, 106.93 12.16, 109.06 15.87 C111.19 19.58, 110.34 24.43, 106.52 27.94 C102.7 31.44, 94.17 34.44, 86.15 36.9 C78.14 39.37, 68.19 42.29, 58.44 42.73 C48.69 43.17, 36.2 41.45, 27.65 39.55 C19.1 37.66, 11.83 34.62, 7.16 31.35 C2.49 28.09, -1.03 23.93, -0.39 19.96 C0.25 15.98, 4.46 10.61, 10.99 7.5 C17.52 4.39, 33.93 2.26, 38.8 1.3 C43.67 0.34, 40.06 1.45, 40.22 1.75 M34.46 0.43 C43.17 -1.45, 56.76 -0.81, 66.23 0.14 C75.69 1.1, 84.23 3.69, 91.25 6.16 C98.27 8.63, 106.07 11.55, 108.35 14.96 C110.62 18.37, 108.4 22.66, 104.89 26.59 C101.38 30.52, 94.73 36.1, 87.29 38.54 C79.84 40.98, 69.8 41.18, 60.24 41.23 C50.67 41.27, 38.7 40.36, 29.89 38.82 C21.07 37.27, 12.06 35.2, 7.33 31.98 C2.61 28.76, 0.84 23.2, 1.52 19.51 C2.2 15.82, 6.14 12.97, 11.41 9.81 C16.68 6.66, 29.34 2.14, 33.15 0.6 C36.96 -0.93, 33.91 0.24, 34.27 0.6" stroke="none" stroke-width="0" fill="#ffff"></path><path d="M34.4 1.46 C42.73 -0.07, 55.81 0.26, 65.64 0.85 C75.48 1.44, 86.37 2.44, 93.43 5 C100.48 7.56, 105.83 12.23, 107.96 16.2 C110.09 20.17, 109.43 25.41, 106.19 28.82 C102.95 32.24, 96.4 34.57, 88.53 36.67 C80.65 38.77, 68.97 40.89, 58.94 41.43 C48.9 41.96, 36.83 41.51, 28.31 39.88 C19.78 38.26, 12.34 35.11, 7.79 31.69 C3.23 28.27, 0.62 23.19, 0.96 19.38 C1.29 15.57, 3.73 11.72, 9.82 8.84 C15.9 5.96, 32.68 3.25, 37.46 2.1 C42.24 0.95, 38.34 1.75, 38.5 1.93 M34.03 2.8 C42.49 1.1, 55.73 -1.27, 65.37 -0.81 C75 -0.35, 84.56 2.69, 91.84 5.57 C99.12 8.44, 106.73 12.62, 109.04 16.41 C111.35 20.2, 109.19 24.91, 105.7 28.32 C102.21 31.73, 95.84 34.73, 88.12 36.85 C80.39 38.97, 69.32 40.49, 59.35 41.06 C49.38 41.62, 36.99 41.8, 28.3 40.26 C19.6 38.72, 11.65 35.41, 7.18 31.79 C2.7 28.18, 0.81 22.45, 1.46 18.59 C2.1 14.73, 5.53 11.62, 11.05 8.65 C16.57 5.67, 30.66 1.7, 34.57 0.73 C38.47 -0.24, 34.02 2.41, 34.49 2.81" stroke="#000000" stroke-width="1" fill="none"></path></g><g stroke-linecap="round"><g transform="translate(1159.285334205565 166.37058591375296) rotate(0 66.0124669148205 26.815271361999294)" fill-rule="evenodd"><path d="M0 0 C0 0, 0 0, 0 0 M0 0 C0 0, 0 0, 0 0 M-0.06 6.01 C1.46 4.41, 2.31 2.79, 3.33 2.31 M0.41 5.71 C1.58 4.08, 3 2.66, 3.9 1.73 M1.17 11.89 C2.38 10.98, 4.34 7.46, 8.27 3.31 M0.38 12.33 C1.87 10.13, 3.05 7.87, 7.88 3.79 M-0.61 18.08 C3.22 14.1, 3.46 11.38, 9.15 7.56 M0.18 17.68 C4.03 14.76, 6.69 11.03, 10.88 5.77 M-1.13 23.14 C5.05 21.98, 5.98 18.49, 15.11 8.34 M-0.01 24.9 C3.64 21.68, 5.96 18.54, 14.78 7.25 M2.17 28.41 C7.51 22.1, 8.26 19.69, 17.86 9.98 M2.75 28.73 C7.97 22.36, 12.49 15, 18.11 10.52 M2.73 31.36 C6.06 27.96, 10.89 22.44, 22.59 13.82 M3.83 32.63 C8.24 27.42, 11.02 22.13, 20.8 11.57 M5.39 36.84 C14.41 28.11, 22.98 16.38, 25.93 11.59 M4.22 37.82 C10.81 30.59, 16.31 23.53, 26.64 12.73 M7.16 39.23 C14.08 33.42, 19.68 25.9, 30.76 13.95 M7.34 41.17 C14.04 32.28, 22.38 21.24, 29.37 13.31 M9.2 42.38 C15.03 37.2, 22.09 31.31, 35.4 15.98 M9.75 43.78 C20.13 32.32, 29.59 21.24, 33.64 14.94 M14.56 43.8 C24.48 33.35, 34.62 24.32, 38.77 15.04 M14.56 45.05 C20.97 36.81, 26.9 28.94, 38.8 16.13 M17.42 45.02 C25.29 38.51, 30.79 29.65, 45.61 16.84 M17.4 47.82 C25.81 36.86, 35.98 26.94, 43.94 16.2 M19.62 49.92 C27.62 40.62, 39.24 29.13, 49.67 14.96 M20.69 50.43 C29.47 39.09, 39.03 30.44, 49.69 15.54 M26.41 51.48 C32.65 44.14, 37.64 34.81, 56.17 15.44 M24.13 50.28 C35.45 37.92, 46.55 24.33, 54.52 15.98 M27.82 50.44 C38.31 38.68, 50.68 28.03, 59.06 18.59 M29.7 52.28 C39.61 42.1, 47.27 31.34, 58.63 17.41 M32.37 51.77 C45.67 41.3, 57.11 26.19, 64.18 18.8 M34.19 52.09 C39.03 45.27, 47.23 36.96, 64.83 17.32 M36.96 54.03 C47.92 43.97, 56.09 33.32, 70.44 18.35 M38.75 53.24 C48.21 41.1, 59.09 28.32, 68.51 17.45 M44.74 54.43 C51.85 45.73, 59.93 33.34, 73.65 18.47 M43.5 55.02 C54.13 41.44, 64.76 30.33, 75.12 16.61 M46.31 54.87 C55.47 44.12, 67.28 34.92, 81.8 15.43 M48.43 54.26 C60.45 39.93, 72.67 26.76, 80.17 17.5 M50.86 53.53 C66.34 41.34, 78.21 24.49, 88.14 18.05 M53.28 55.73 C60.03 45.79, 69.64 35.16, 86.09 16.12 M57.39 56.67 C72.11 42.52, 82.61 27.84, 89.8 16.58 M58.48 55.68 C69.37 41, 80.81 29.95, 89.51 19.28 M65.26 55.44 C76.85 41.63, 91.15 26.35, 95.46 16.66 M64.39 55.48 C72.57 45.1, 79.95 35.01, 96.66 16.48 M69.31 57.19 C76 46.71, 85.23 35.23, 100.82 17.02 M68.16 54.68 C82.71 40.77, 95.49 25.72, 101.57 16.3 M75.06 53.53 C83.17 43.19, 92.13 33.28, 109.55 13.93 M73.67 55.88 C86.33 41.64, 96.98 27.87, 108.75 14.66 M80.64 53.68 C88.51 45.68, 96.14 36.26, 115.93 14.07 M79.11 53.8 C92.78 39.46, 106.28 24.21, 114.53 14.49 M83.9 55.98 C95.86 40.13, 108.78 28.01, 130.48 2.23 M84.9 53.66 C103.06 34.35, 118.98 14.48, 132.4 1.19 M92.93 52.47 C99.66 45.55, 106.99 35.03, 132.64 7.02 M91.87 53.46 C102.45 40.37, 113.82 25.05, 132.42 7.11 M95.31 54.73 C105.51 43.38, 110.96 35.44, 133.24 12.77 M97.22 52.65 C108.7 38.47, 122.42 23.97, 131.42 13.26 M101.23 53.64 C114.94 41.42, 124.45 28.58, 131.42 19.37 M101.4 53.67 C108.1 46.75, 113.41 39.68, 132.63 19.92 M106.75 55.52 C116 45.01, 123.74 35.81, 131.45 25.13 M106.07 54.82 C110.88 48.08, 116.82 41.6, 132.21 25.27 M114.82 50.57 C117.31 46.12, 122.21 43.91, 130.68 30.64 M112.82 52.55 C116.22 47.86, 121.91 43.93, 131.93 32.06" stroke="#000000" stroke-width="0.5" fill="none"></path><path d="M-1.04 -0.9 C-0.99 1.87, 0.85 10.98, 1.37 17.13 C1.9 23.27, -0.88 30.76, 2.1 36 C5.08 41.23, 11.52 45.65, 19.23 48.55 C26.93 51.45, 36.76 52.43, 48.34 53.4 C59.92 54.36, 77.74 54.81, 88.72 54.34 C99.71 53.87, 107.4 53.25, 114.23 50.55 C121.06 47.85, 126.85 43.18, 129.71 38.13 C132.58 33.08, 131.29 26.23, 131.42 20.25 C131.54 14.26, 130.95 4.82, 130.46 2.23 C129.97 -0.36, 131.33 3.26, 128.48 4.71 C125.64 6.15, 120.43 8.95, 113.37 10.89 C106.31 12.83, 96.64 15.19, 86.13 16.33 C75.61 17.48, 61.51 18.5, 50.26 17.76 C39 17.02, 27.04 14.83, 18.61 11.89 C10.19 8.95, 2.95 2.2, -0.3 0.14 M0.61 1.25 C0.5 3.58, 0.9 9.09, 0.99 15.11 C1.08 21.12, -1.96 32.13, 1.14 37.32 C4.25 42.52, 11.93 43.62, 19.63 46.28 C27.33 48.93, 35.58 52.06, 47.33 53.24 C59.09 54.41, 78.92 53.92, 90.17 53.35 C101.42 52.77, 108.39 52.47, 114.85 49.79 C121.31 47.12, 125.87 41.89, 128.9 37.31 C131.94 32.73, 132.77 28.2, 133.05 22.32 C133.33 16.45, 131.25 4.78, 130.61 2.06 C129.97 -0.67, 132.23 4.61, 129.21 5.97 C126.2 7.33, 119.71 8.61, 112.51 10.22 C105.31 11.83, 96.44 14.29, 86.01 15.62 C75.58 16.94, 61.2 18.82, 49.93 18.17 C38.65 17.53, 26.61 14.54, 18.39 11.75 C10.16 8.97, 3.46 3.42, 0.58 1.46" stroke="#000000" stroke-width="1" fill="none"></path></g></g><g stroke-linecap="round"><g transform="translate(1158.9315371684397 212.1665730586734) rotate(0 66.46286185710915 26.42586571752878)" fill-rule="evenodd"><path d="M0 0 C0 0, 0 0, 0 0 M0 0 C0 0, 0 0, 0 0 M0.76 5.65 C1.14 4.59, 1.49 3.53, 4.12 2.19 M0.46 5.61 C0.93 5, 1.6 4.19, 3.53 1.7 M-0.01 12.52 C2.5 11.01, 2.42 9.46, 6.92 3.04 M0.42 12.15 C3 8.34, 5.53 6.05, 7.4 3.35 M0.95 18.26 C3.48 11.58, 7.35 7.23, 12.3 5.96 M0.52 18 C4.09 14.29, 6.79 11.84, 10.4 5.13 M-0.68 25.51 C5.69 18.97, 9.71 16.72, 14.15 6.29 M1.09 24.57 C4.4 20.33, 7.77 17.27, 13.06 7.7 M2.82 29.22 C6.4 19.84, 13.88 15.12, 17.6 10.94 M3.15 28.02 C7.03 22.37, 9.92 18.39, 18.13 9.67 M1.94 30.86 C10.95 22.99, 17.82 17.56, 23.24 10.73 M3.2 33.14 C7.94 25.76, 12.57 20.34, 20.99 12.95 M3.57 39 C11.39 31.17, 16.21 22, 24.23 12.88 M4.56 37.53 C9.42 31.1, 14.47 26.85, 25.37 13.16 M6.37 39.91 C16.35 29.64, 24.6 22.91, 29.8 15.22 M8.3 38.89 C16.52 30.09, 22.58 21.08, 29.17 13.43 M9.91 42.03 C18.32 35.3, 26.03 26.62, 35.05 17.17 M11.3 43.19 C19.72 32.97, 28.49 21.36, 34.01 16.07 M13.13 45.59 C22.38 36.08, 33.04 23.75, 38.74 14.9 M14.38 45.08 C23.22 33.35, 32.42 22.02, 39.83 15.44 M16.16 46.35 C23.83 37.91, 29.17 34.5, 45.17 16.81 M18.96 45.26 C24.56 39.36, 31.17 31.87, 44.53 16.16 M21.45 47.28 C33.46 37.4, 43.3 24.04, 47.91 16.41 M21.96 48.92 C27.01 42.39, 34.74 34.43, 48.49 15.69 M26.23 50.71 C32.56 41.94, 36.91 38.02, 53.02 18.3 M25.03 49.61 C35.36 38.42, 44.46 27.62, 53.56 17.06 M28.4 50.34 C37.53 42.14, 47.73 29.43, 60.8 17.34 M30.25 51.97 C38.05 41.82, 45.27 33.7, 59.61 17.75 M32.95 53.09 C43.53 44.14, 49.45 33.5, 65.63 15.83 M33.27 51.28 C45.32 39.7, 55.91 26.8, 64.15 17.57 M38.43 53.85 C50.06 40.31, 61.13 30.36, 69.81 18.74 M37.64 52.96 C48.2 40.95, 58.12 28.77, 68.91 17.6 M43.45 53.9 C54.88 41.43, 62.59 29.33, 75.97 18.08 M44.04 54.67 C54.95 40.31, 68.37 25.44, 74.1 17.33 M48.52 52.35 C59.3 42.74, 71.6 31.12, 78.96 18.4 M47.92 54.49 C55.7 44.94, 64.67 34.38, 81.04 17.84 M51.81 55.07 C62.55 44.98, 68.64 37.47, 88.28 14.92 M54.01 53.58 C66.67 39.74, 78.64 24.34, 86.34 16.67 M60.99 55.87 C71.15 42.42, 80.78 29.56, 91.23 15.8 M59.99 54.06 C70.15 40.42, 84.01 25.66, 93.94 15.74 M64.38 54.71 C76.18 43.46, 86.51 29.02, 98.77 12.97 M64.42 54.96 C77.14 38.33, 90.1 24.75, 98.59 13.03 M70.76 54.38 C83.76 39.04, 95.8 20.65, 106.57 14.17 M68.25 55.57 C77.71 45.87, 85.97 35.07, 105.85 12.19 M73.14 53.91 C84.84 40.46, 96.92 29.5, 110.93 12.06 M75.49 54.64 C83.72 43.37, 92.41 33.8, 111.67 10.5 M79.33 55.32 C93.76 39.46, 106.81 23.53, 115.24 15.22 M79.45 53.78 C87.53 45.83, 94.73 36.11, 115.66 13.51 M87.66 52.49 C103.41 33.33, 122.86 11.7, 133.42 2.17 M85.34 54.1 C101.8 34.75, 117.65 18.11, 132.38 -0.22 M90.19 53.14 C102.87 40.25, 111.94 31.03, 131.55 7.03 M91.18 52.87 C106.66 34.89, 119.93 19.72, 131.64 6.3 M98.48 53.98 C107.43 38.83, 119.77 28.12, 132.05 13.77 M96.41 52.45 C107.5 40.88, 118.3 26.69, 132.55 13.42 M104.09 53.2 C110.89 44.5, 117.05 36.41, 131.99 17.15 M104.12 51.4 C111.34 42.61, 118.39 35.85, 132.55 19.54 M111.71 50.35 C119.51 39.85, 128.59 29.65, 132.5 22.95 M111.01 48.18 C115.17 43.33, 119.57 38.39, 132.65 24.05 M117.03 45.84 C121.14 42.13, 127.5 36.24, 132.02 28.53 M119.01 45.3 C123.47 41.82, 128.65 35.41, 133.43 29.57" stroke="#000000" stroke-width="0.5" fill="none"></path><path d="M-0.9 1.08 C-0.9 3.93, -0.08 10.39, 0.49 16.09 C1.05 21.78, -0.68 30.01, 2.49 35.26 C5.65 40.5, 12.15 44.61, 19.47 47.56 C26.78 50.52, 34.85 52.13, 46.4 52.99 C57.95 53.84, 77.25 53.43, 88.75 52.67 C100.25 51.92, 108.8 51.02, 115.41 48.45 C122.01 45.88, 125.66 42.21, 128.38 37.28 C131.1 32.35, 131.08 24.68, 131.71 18.87 C132.34 13.06, 132.75 4.71, 132.17 2.42 C131.6 0.12, 131.63 3.77, 128.24 5.1 C124.86 6.43, 118.73 8.51, 111.85 10.39 C104.98 12.27, 97.18 15.6, 86.98 16.38 C76.79 17.16, 61.79 16.06, 50.7 15.08 C39.61 14.1, 28.89 13.14, 20.46 10.49 C12.04 7.83, 3.63 0.92, 0.14 -0.86 M0.83 0.6 C0.64 3.72, -0.51 11.41, -0.36 17.43 C-0.21 23.45, -1.66 32.06, 1.73 36.73 C5.12 41.4, 12.27 42.69, 19.99 45.47 C27.71 48.25, 36.33 52.39, 48.03 53.41 C59.74 54.43, 79.39 52.62, 90.21 51.61 C101.03 50.59, 106.26 49.83, 112.98 47.32 C119.7 44.82, 127.11 41.05, 130.53 36.58 C133.95 32.12, 133.05 26.23, 133.5 20.53 C133.95 14.83, 134 5.3, 133.23 2.37 C132.45 -0.55, 132.07 1.77, 128.85 2.98 C125.62 4.18, 120.77 7.46, 113.85 9.62 C106.93 11.78, 97.86 15.15, 87.32 15.93 C76.78 16.72, 61.62 15.36, 50.6 14.33 C39.58 13.31, 29.44 12.17, 21.21 9.77 C12.98 7.37, 4.5 1.5, 1.24 -0.06" stroke="#000000" stroke-width="1" fill="none"></path></g></g><g transform="translate(1180.6904761904761 52.631526029467864) rotate(0 43.5 12)"><text x="0" y="19" font-family="Helvetica, Segoe UI Emoji" font-size="20px" fill="#000000" text-anchor="start" style="white-space: pre;" direction="ltr">Database</text></g><g stroke-linecap="round" transform="translate(71.01539068485431 35.04577742455285) rotate(0 8.484960097376359 8.484960097376359)"><path d="M2.49 2.17 C2.49 2.17, 2.49 2.17, 2.49 2.17 M2.49 2.17 C2.49 2.17, 2.49 2.17, 2.49 2.17 M3.82 8.56 C5.1 5.43, 8.16 0.54, 11.11 -0.17 M2.96 7.39 C5.1 5.47, 7.86 1.69, 10.56 -0.58 M1.55 12.64 C3.73 10.16, 8.58 9.11, 12.59 2.38 M3.41 13.99 C5.98 11.64, 7.33 7.55, 12.88 1.44 M6.41 16.73 C9.48 15.33, 10.58 9.5, 15.71 2.36 M5.61 17.59 C8.79 14.49, 10.43 9.65, 17.33 4.5 M10.51 15.75 C13.57 14.12, 15.29 12.12, 17.54 8.37 M11.41 16.29 C13.27 13.75, 16.41 10.48, 18.31 8.45 M4.91 17.21 C4.91 17.21, 4.91 17.21, 4.91 17.21 M4.91 17.21 C4.91 17.21, 4.91 17.21, 4.91 17.21 M9.88 16.85 C6.97 14.37, 4.82 12.29, 3.23 11.38 M9.78 15.97 C7.95 14.89, 5.88 12.91, 3.94 10.67 M13.73 12.83 C10.99 11.5, 6.65 8.94, 3.34 4.99 M13.88 13.31 C9.15 10.23, 5.64 7.18, 2.7 4.89 M16.79 12.45 C13.85 9.43, 10.64 7.3, 5.03 -0.51 M16.5 11.97 C12.95 7.94, 9.4 6.27, 4.13 0.22 M17.2 8.25 C15.24 3.88, 10.67 0.88, 8.85 -2.04 M17.2 7.09 C13.39 3.59, 10.58 0.6, 7.31 -0.99" stroke="#7950f2" stroke-width="0.5" fill="none"></path><path d="M9.29 -0.88 C10.99 -1.03, 12.79 0.62, 14.04 2.1 C15.3 3.59, 16.46 6.36, 16.81 8.01 C17.16 9.67, 17.15 10.66, 16.14 12.02 C15.14 13.38, 12.69 15.35, 10.76 16.16 C8.83 16.98, 6.04 17.39, 4.54 16.89 C3.04 16.38, 2.34 14.84, 1.75 13.12 C1.16 11.4, 0.88 8.39, 1.01 6.56 C1.15 4.72, 1.03 3.04, 2.54 2.12 C4.06 1.19, 8.94 1.2, 10.11 1.02 C11.27 0.85, 9.7 1.06, 9.54 1.06 M4.05 2.01 C5.6 1.14, 8.75 -1.07, 10.47 -0.8 C12.19 -0.53, 13.13 1.86, 14.36 3.64 C15.58 5.41, 17.9 7.95, 17.8 9.86 C17.7 11.76, 15.19 14.01, 13.75 15.07 C12.31 16.12, 10.82 16.31, 9.16 16.19 C7.49 16.07, 5.32 15.19, 3.77 14.33 C2.22 13.46, 0.25 12.55, -0.12 11.02 C-0.49 9.48, 0.38 7.03, 1.54 5.14 C2.7 3.25, 6.13 0.37, 6.83 -0.33 C7.54 -1.03, 6.09 0.76, 5.76 0.94" stroke="#343a40" stroke-width="1" fill="none"></path></g><g stroke-linecap="round"><g transform="translate(71.53712131175337 74.29061156475086) rotate(0 9.904652138105149 -9.241929933639483)" fill-rule="evenodd"><path d="M-0.15 -17.36 C-0.15 -17.36, -0.15 -17.36, -0.15 -17.36 M-0.15 -17.36 C-0.15 -17.36, -0.15 -17.36, -0.15 -17.36 M0.68 -12.29 C2.91 -14.72, 4.38 -15.97, 7.78 -19.41 M0.33 -12.05 C2.87 -15.45, 6.3 -18.16, 7.4 -20.21 M1.18 -6.8 C3.87 -8.23, 5.64 -11.5, 11.19 -18.16 M-0.65 -6.2 C3.09 -7.37, 4.98 -10.88, 13.25 -19.01 M-0.9 2.15 C4.75 -3.28, 9.18 -8.33, 17.04 -20.07 M-0.34 1.15 C4.29 -5.33, 8.95 -9.1, 16.11 -19.52 M5.8 0.02 C9.03 -4.06, 11.94 -6.05, 21.74 -16.48 M4.76 0.38 C9.96 -6.31, 15.92 -11.3, 20.59 -16.39 M8.8 0.08 C12.97 -4.17, 19.89 -7.72, 21.95 -11.02 M9.92 1.52 C14.66 -3.32, 18.25 -7.25, 20.23 -11.58 M16.41 0.34 C17.6 -1.02, 20.77 -3.69, 22.8 -7.19 M15.78 1.12 C16.89 -1.02, 18.26 -2.89, 22.59 -7.24 M0 0 C0 0, 0 0, 0 0 M0 0 C0 0, 0 0, 0 0 M6.31 -0.27 C5.54 -0.82, 3.61 -1.85, 0.31 -5.36 M6.43 0.44 C4.25 -1.37, 2.35 -2.99, 0.52 -5.26 M13.66 1.4 C8.49 -3.17, 4.25 -9.36, 1.66 -11.8 M12.14 0.63 C10.36 -2.45, 6.82 -4.73, 0.08 -10.12 M18.78 0.35 C10.45 -6.61, 6.97 -9.25, 0.19 -14.35 M17.68 -0.71 C12.3 -4.91, 7.06 -8.73, -0.04 -14.73 M20.29 -1.37 C13.02 -7.62, 6.71 -13.93, -0.02 -20 M20.83 -3.74 C17.73 -6.39, 11.97 -9.87, 1.58 -20.86 M21.36 -9.78 C15.65 -12.12, 14 -17.27, 7.49 -20.18 M20.78 -7.73 C16.27 -13.37, 10.59 -18.15, 7.8 -19.87 M18.77 -16 C16.69 -16.87, 15.92 -18.45, 13.01 -19.41 M18.52 -15.82 C16.7 -16.93, 15.02 -18.76, 13.67 -20.26" stroke="#7950f2" stroke-width="0.5" fill="none"></path><path d="M-0.37 0.02 C-0.63 -2.34, -1.12 -10.56, -0.51 -13.96 C0.1 -17.36, 1.26 -19.29, 3.3 -20.37 C5.34 -21.45, 9.21 -21.2, 11.74 -20.44 C14.26 -19.67, 17.13 -18.97, 18.46 -15.78 C19.8 -12.59, 22.92 -3.89, 19.73 -1.32 C16.54 1.25, 2.81 -0.69, -0.68 -0.38 M1.64 -1.02 C1.15 -3.75, -1.53 -12.71, -1.31 -15.8 C-1.08 -18.9, 0.78 -19.03, 3 -19.61 C5.22 -20.19, 9.69 -19.48, 12.02 -19.28 C14.34 -19.09, 16.02 -21.81, 16.97 -18.46 C17.92 -15.11, 20.59 -2.55, 17.7 0.82 C14.81 4.18, 2.42 1.79, -0.39 1.74" stroke="#343a40" stroke-width="1" fill="none"></path></g></g><g transform="translate(68.33333333333326 10) rotate(0 13.5 7)"><text x="0" y="12" font-family="Helvetica, Segoe UI Emoji" font-size="12.121371567680526px" fill="#343a40" text-anchor="start" style="white-space: pre;" direction="ltr">User</text></g><g stroke-linecap="round"><g stroke-opacity="0.7" fill-opacity="0.7" transform="translate(109.41367552069312 67.58245431211253) rotate(0 89.39634139601142 25.87110747677275)"><path d="M0.29 0.53 C30.32 9.03, 150.02 42.39, 179.81 51 M-1.01 -0.24 C28.97 8.37, 149.45 43.02, 179.32 51.98" stroke="#5f3dc4" stroke-width="1" fill="none"></path></g><g stroke-opacity="0.7" fill-opacity="0.7" transform="translate(109.41367552069312 67.58245431211253) rotate(0 89.39634139601142 25.87110747677275)"><path d="M150.27 55.38 C155.7 53.42, 165.67 52.71, 181.2 52.67 M148.41 54.36 C156.74 54.02, 163.66 52.75, 178.78 52.15" stroke="#5f3dc4" stroke-width="1" fill="none"></path></g><g stroke-opacity="0.7" fill-opacity="0.7" transform="translate(109.41367552069312 67.58245431211253) rotate(0 89.39634139601142 25.87110747677275)"><path d="M156.03 35.69 C159.91 39.05, 168.33 43.64, 181.2 52.67 M154.17 34.66 C161.1 38.71, 166.73 41.84, 178.78 52.15" stroke="#5f3dc4" stroke-width="1" fill="none"></path></g></g><g stroke-opacity="0.7" fill-opacity="0.7" transform="translate(140.83333333333326 97.63152602946798) rotate(14.500166766552566 34 9)"><text x="0" y="15" font-family="Helvetica, Segoe UI Emoji" font-size="15.1923076923077px" fill="#5f3dc4" text-anchor="start" style="white-space: pre;" direction="ltr">get item 1</text></g><g stroke-linecap="round"><g stroke-opacity="0.7" fill-opacity="0.7" transform="translate(289.43487773487766 98.69722777915047) rotate(0 -86.62245707826276 -26.553572224790287)"><path d="M0.09 -0.05 C-28.56 -8.59, -143.79 -42.45, -172.98 -51.15 M-1.32 -1.12 C-29.94 -10.03, -144.79 -44.7, -173.34 -53.06" stroke="#5f3dc4" stroke-width="1" fill="none"></path></g><g stroke-opacity="0.7" fill-opacity="0.7" transform="translate(289.43487773487766 98.69722777915047) rotate(0 -86.62245707826276 -26.553572224790287)"><path d="M-143.47 -52.96 C-149.05 -55.96, -157.22 -54.69, -175.3 -52.16 M-143.78 -55.38 C-154.13 -53.33, -164.27 -54.16, -172.67 -53.31" stroke="#5f3dc4" stroke-width="1" fill="none"></path></g><g stroke-opacity="0.7" fill-opacity="0.7" transform="translate(289.43487773487766 98.69722777915047) rotate(0 -86.62245707826276 -26.553572224790287)"><path d="M-149.33 -33.3 C-153.68 -40.48, -160.61 -43.38, -175.3 -52.16 M-149.64 -35.71 C-157.95 -40.89, -165.94 -48.89, -172.67 -53.31" stroke="#5f3dc4" stroke-width="1" fill="none"></path></g></g><g stroke-opacity="0.7" fill-opacity="0.7" transform="translate(190.33333333333314 46.13152602946798) rotate(15.524110996754356 21 9)"><text x="0" y="15" font-family="Helvetica, Segoe UI Emoji" font-size="15.1923076923077px" fill="#5f3dc4" text-anchor="start" style="white-space: pre;" direction="ltr">item 1</text></g><g stroke-linecap="round" transform="translate(12.682057351521053 169.26260914166664) rotate(0 8.484960097376359 8.484960097376359)"><path d="M0.65 4.54 C0.65 4.54, 0.65 4.54, 0.65 4.54 M0.65 4.54 C0.65 4.54, 0.65 4.54, 0.65 4.54 M1.19 9.34 C3.03 8.37, 6.06 3.67, 9.16 1.71 M0.67 9.64 C2.22 7.84, 4.69 6.55, 8.07 1.96 M4.31 13.87 C6.79 12.29, 6.82 7.17, 12.75 0.86 M3.38 13.93 C5.98 11.88, 7.68 7.9, 12.76 1.51 M7.46 16.19 C10.16 14.15, 10.22 9.17, 17.15 5.69 M5.84 15.67 C9.65 12.65, 12.46 9.4, 16.03 4.47 M10.37 17.72 C11.77 15.31, 15.96 11.27, 18.34 8.79 M10.13 17.67 C12.24 16.07, 14.8 13.02, 17.19 9.68 M2.6 13.78 C2.6 13.78, 2.6 13.78, 2.6 13.78 M2.6 13.78 C2.6 13.78, 2.6 13.78, 2.6 13.78 M9.68 14.18 C7.25 13.46, 4.15 10.26, 1.93 6.82 M9.96 14.31 C7.65 12.7, 4.69 10.6, 1.73 7.63 M16.33 12.47 C9.07 8.74, 4.72 4.96, 2.02 3.16 M14.75 14.16 C11.68 11.21, 8.43 8.72, 2.46 2.1 M17.16 11.58 C13.93 6.98, 10.65 6.64, 6.64 0.67 M16.99 11.29 C13.97 7.14, 9.42 3.74, 6.51 0.43" stroke="#fab005" stroke-width="0.5" fill="none"></path><path d="M6.58 0.98 C8.34 0.71, 10.85 1.06, 12.37 1.6 C13.89 2.14, 14.96 2.62, 15.71 4.21 C16.47 5.79, 17.11 9.4, 16.9 11.11 C16.68 12.82, 15.84 13.53, 14.45 14.46 C13.06 15.39, 10.53 16.8, 8.57 16.7 C6.62 16.61, 4.21 15.13, 2.72 13.88 C1.23 12.63, 0 10.73, -0.37 9.21 C-0.75 7.68, -0.61 6.38, 0.47 4.74 C1.55 3.09, 5.13 0.15, 6.09 -0.65 C7.06 -1.46, 6.03 -0.37, 6.26 -0.09 M7 0.7 C8.58 0.31, 10.9 0.28, 12.67 1.29 C14.45 2.3, 16.95 4.75, 17.67 6.77 C18.39 8.79, 18.07 11.83, 16.99 13.43 C15.9 15.04, 12.92 16, 11.17 16.39 C9.42 16.78, 8.2 16.5, 6.49 15.76 C4.78 15.01, 1.81 13.29, 0.91 11.95 C0.02 10.61, 0.89 9.41, 1.13 7.74 C1.36 6.07, 1.48 3.37, 2.35 1.92 C3.21 0.46, 5.2 -0.87, 6.32 -1 C7.45 -1.13, 9.06 0.67, 9.12 1.15" stroke="#343a40" stroke-width="1" fill="none"></path></g><g stroke-linecap="round"><g transform="translate(13.20378797842011 208.50744328186443) rotate(0 10.155685980661161 -10.05565179673124)" fill-rule="evenodd"><path d="M-0.15 -17.36 C-0.15 -17.36, -0.15 -17.36, -0.15 -17.36 M-0.15 -17.36 C-0.15 -17.36, -0.15 -17.36, -0.15 -17.36 M0.42 -12.39 C2.65 -15.95, 6.7 -18.15, 7.34 -20.41 M0.59 -12.14 C2.13 -13.43, 3.37 -15.22, 7.09 -19.58 M-1.27 -7.08 C3.7 -6.48, 4.85 -10.46, 14.05 -18.36 M-0.62 -4.45 C3.14 -8.31, 6.37 -12, 12.57 -20.38 M-1.05 1.97 C4.13 -6.09, 9.21 -8.74, 15.43 -20.5 M0.59 -0.01 C4.35 -4.48, 7.86 -7.84, 17.75 -18.82 M4.16 0.07 C9.09 -7, 15.45 -10.58, 21.38 -16.87 M4.39 0.08 C10.06 -6.15, 17.49 -11.95, 20.49 -15.91 M9.5 2 C15.1 -3.25, 18.33 -6.54, 19.6 -12.13 M10.68 0.8 C13.33 -2.25, 17.58 -6.35, 21.05 -11.27 M15.56 1.58 C16.45 -1.09, 17.82 -3.26, 22.62 -7.58 M15.68 0.54 C17.86 -1.28, 19.67 -3.57, 22.22 -7.3 M0 0 C0 0, 0 0, 0 0 M0 0 C0 0, 0 0, 0 0 M6.45 0.61 C4.01 -1.35, 2.07 -2.98, 0.67 -5.54 M6.6 0.47 C4.26 -1.58, 2.15 -4, 0.76 -5.26 M11.48 0.74 C10.7 -2.83, 6.46 -4.92, 0.2 -9.61 M13.58 1.17 C8.11 -3.42, 4.72 -6.2, -0.09 -10.09 M18.44 -0.25 C12.22 -4.52, 6.41 -8.12, -0.41 -13.85 M16.54 -0.42 C10.45 -5.72, 4.83 -11.02, -0.41 -15.65 M20.6 -4.59 C18.4 -6.41, 10.99 -9.81, 1.71 -21.77 M21.45 -3.58 C14.61 -7.97, 10.08 -13.97, 1.67 -19.86 M20.88 -6.93 C16.95 -13.75, 10.73 -18.85, 8.52 -19.39 M20.67 -9.2 C15.8 -12.26, 12.61 -16.2, 6.47 -19.48 M18.27 -16.16 C16.59 -16.65, 15.15 -18.63, 13.87 -20.44 M19.03 -15.34 C17.18 -17.04, 15.64 -18.2, 13.46 -20.21" stroke="#fab005" stroke-width="0.5" fill="none"></path><path d="M-0.92 -0.68 C-1.3 -3.36, -1.83 -12.69, -1.18 -15.67 C-0.54 -18.64, 0.72 -17.91, 2.96 -18.54 C5.19 -19.18, 9.69 -19.64, 12.21 -19.48 C14.72 -19.31, 16.83 -20.85, 18.05 -17.55 C19.27 -14.26, 22.34 -2.44, 19.53 0.31 C16.71 3.06, 4.28 -0.95, 1.15 -1.06 M0.8 1.58 C0.13 -1.03, -2.61 -11.07, -2.33 -14.75 C-2.05 -18.42, -0.04 -19.35, 2.47 -20.47 C4.99 -21.6, 9.82 -21.98, 12.74 -21.48 C15.66 -20.99, 18.6 -21.03, 19.99 -17.51 C21.37 -13.99, 24.59 -3.39, 21.05 -0.36 C17.51 2.68, 2.22 0.78, -1.26 0.7" stroke="#343a40" stroke-width="1" fill="none"></path></g></g><g transform="translate(10 144.21683171711356) rotate(0 13.5 7)"><text x="0" y="12" font-family="Helvetica, Segoe UI Emoji" font-size="12.121371567680526px" fill="#343a40" text-anchor="start" style="white-space: pre;" direction="ltr">User</text></g><g stroke-linecap="round"><g stroke-opacity="0.7" fill-opacity="0.7" transform="translate(65.58034218735997 186.7992860292261) rotate(0 107.3441867381334 2.8653183807525693)"><path d="M-0.38 -1.18 C35.62 0.09, 179.16 5.51, 215.07 6.91 M1.62 0.82 C37.59 1.81, 178.91 4.43, 214.4 5.19" stroke="#e67700" stroke-width="1" fill="none"></path></g><g stroke-opacity="0.7" fill-opacity="0.7" transform="translate(65.58034218735997 186.7992860292261) rotate(0 107.3441867381334 2.8653183807525693)"><path d="M184.05 15.79 C193.71 13.71, 200.51 9.86, 213.32 5.54 M186.68 14.64 C196.23 10.94, 205.9 7.99, 213.44 6.17" stroke="#e67700" stroke-width="1" fill="none"></path></g><g stroke-opacity="0.7" fill-opacity="0.7" transform="translate(65.58034218735997 186.7992860292261) rotate(0 107.3441867381334 2.8653183807525693)"><path d="M184.46 -4.73 C193.92 -2.22, 200.62 -1.48, 213.32 5.54 M187.09 -5.88 C196.69 -2.21, 206.21 2.21, 213.44 6.17" stroke="#e67700" stroke-width="1" fill="none"></path></g></g><g stroke-opacity="0.7" fill-opacity="0.7" transform="translate(136 198.34835774658154) rotate(0.9462512772095151 34 9)"><text x="0" y="15" font-family="Helvetica, Segoe UI Emoji" font-size="15.1923076923077px" fill="#e67700" text-anchor="start" style="white-space: pre;" direction="ltr">get item 1</text></g><g stroke-linecap="round"><g stroke-opacity="0.7" fill-opacity="0.7" transform="translate(280.60723565034584 168.5051725018575) rotate(0 -104.34702220189388 -0.9510760774929281)"><path d="M0.54 0.78 C-34.16 0.79, -173.55 -0.51, -208.57 -1.11 M-0.63 0.14 C-35.41 -0.06, -174.24 -2.35, -209.24 -2.68" stroke="#e67700" stroke-width="1" fill="none"></path></g><g stroke-opacity="0.7" fill-opacity="0.7" transform="translate(280.60723565034584 168.5051725018575) rotate(0 -104.34702220189388 -0.9510760774929281)"><path d="M-179.61 -11.67 C-186.86 -10.56, -197.3 -6.78, -208.05 -0.76 M-180.8 -13.28 C-187.27 -10.72, -193.82 -7.46, -209.79 -3.53" stroke="#e67700" stroke-width="1" fill="none"></path></g><g stroke-opacity="0.7" fill-opacity="0.7" transform="translate(280.60723565034584 168.5051725018575) rotate(0 -104.34702220189388 -0.9510760774929281)"><path d="M-179.89 8.85 C-186.86 4.45, -197.22 2.72, -208.05 -0.76 M-181.07 7.24 C-187.62 5.45, -194.12 4.36, -209.79 -3.53" stroke="#e67700" stroke-width="1" fill="none"></path></g></g><g stroke-opacity="0.7" fill-opacity="0.7" transform="translate(152 146.34835774658154) rotate(1.0503180529298457 21 9)"><text x="0" y="15" font-family="Helvetica, Segoe UI Emoji" font-size="15.1923076923077px" fill="#e67700" text-anchor="start" style="white-space: pre;" direction="ltr">item 1</text></g><g stroke-linecap="round"><g stroke-opacity="0.7" fill-opacity="0.7" transform="translate(521.4883726009747 228.27147313454543) rotate(2.864443833604615 102.61260807989186 -7.097330607685592)"><path d="M0.54 1.05 C34.76 -1.62, 171.53 -12.75, 205.86 -15.24 M-0.64 0.55 C33.34 -2.04, 170.25 -11.31, 204.67 -14.05" stroke="#e67700" stroke-width="1" fill="none"></path></g><g stroke-opacity="0.7" fill-opacity="0.7" transform="translate(521.4883726009747 228.27147313454543) rotate(2.864443833604615 102.61260807989186 -7.097330607685592)"><path d="M179.05 -2.55 C185.58 -5.78, 197.29 -8.44, 202.91 -12.72 M176.88 -1.95 C183.85 -3.97, 191.79 -9.18, 203.71 -14.4" stroke="#e67700" stroke-width="1" fill="none"></path></g><g stroke-opacity="0.7" fill-opacity="0.7" transform="translate(521.4883726009747 228.27147313454543) rotate(2.864443833604615 102.61260807989186 -7.097330607685592)"><path d="M177.56 -23.01 C184.74 -19.19, 196.97 -14.79, 202.91 -12.72 M175.39 -22.42 C182.79 -18.79, 191.14 -18.38, 203.71 -14.4" stroke="#e67700" stroke-width="1" fill="none"></path></g></g><g stroke-opacity="0.7" fill-opacity="0.7" transform="translate(592.5037770282863 219.07390903240025) rotate(360.13813283969836 34 9)"><text x="0" y="15" font-family="Helvetica, Segoe UI Emoji" font-size="15.1923076923077px" fill="#e67700" text-anchor="start" style="white-space: pre;" direction="ltr">get item 1</text></g><g stroke-linecap="round"><g stroke-opacity="0.7" fill-opacity="0.7" transform="translate(696.1657460935479 186.2668059913658) rotate(2.864443833604615 -80.52370394907308 7.126743259437035)"><path d="M-0.47 -0.65 C-27.51 1.66, -134.98 12.61, -161.7 14.9 M1.49 1.62 C-25.74 4.11, -135.47 11.11, -162.53 13.16" stroke="#e67700" stroke-width="1" fill="none"></path></g><g stroke-opacity="0.7" fill-opacity="0.7" transform="translate(696.1657460935479 186.2668059913658) rotate(2.864443833604615 -80.52370394907308 7.126743259437035)"><path d="M-136.2 1.32 C-143.28 6.99, -155.68 10.59, -163.03 13.38 M-136.09 1.95 C-141.99 2.85, -148.64 6.13, -161.9 13.14" stroke="#e67700" stroke-width="1" fill="none"></path></g><g stroke-opacity="0.7" fill-opacity="0.7" transform="translate(696.1657460935479 186.2668059913658) rotate(2.864443833604615 -80.52370394907308 7.126743259437035)"><path d="M-134.79 21.79 C-142.53 20.4, -155.42 16.94, -163.03 13.38 M-134.67 22.42 C-140.81 18.65, -147.79 17.25, -161.9 13.14" stroke="#e67700" stroke-width="1" fill="none"></path></g></g><g stroke-opacity="0.7" fill-opacity="0.7" transform="translate(599.8716573468689 161.83205700917415) rotate(360.13813283969836 21 9)"><text x="0" y="15" font-family="Helvetica, Segoe UI Emoji" font-size="15.1923076923077px" fill="#e67700" text-anchor="start" style="white-space: pre;" direction="ltr">item 1</text></g><g stroke-linecap="round"><g stroke-opacity="0.7" fill-opacity="0.7" transform="translate(69.93756609433626 296.29580098785607) rotate(342.9526966806554 107.26947895125485 3.0472972004022267)"><path d="M0.21 0.71 C36.23 1.66, 179.83 4.22, 215.68 5.07 M-1.14 0.04 C34.87 1.16, 179.32 4.9, 215.34 6.06" stroke="#2b8a3e" stroke-width="1" fill="none"></path></g><g stroke-opacity="0.7" fill-opacity="0.7" transform="translate(69.93756609433626 296.29580098785607) rotate(342.9526966806554 107.26947895125485 3.0472972004022267)"><path d="M188.05 17.43 C192.59 14.32, 201.28 10.75, 213.9 5.21 M186.31 14.65 C194.02 12.21, 203.63 9.89, 215.17 6.15" stroke="#2b8a3e" stroke-width="1" fill="none"></path></g><g stroke-opacity="0.7" fill-opacity="0.7" transform="translate(69.93756609433626 296.29580098785607) rotate(342.9526966806554 107.26947895125485 3.0472972004022267)"><path d="M188.64 -3.08 C192.91 -0.84, 201.45 0.95, 213.9 5.21 M186.89 -5.86 C194.24 -2.52, 203.69 0.94, 215.17 6.15" stroke="#2b8a3e" stroke-width="1" fill="none"></path></g></g><g stroke-opacity="0.7" fill-opacity="0.7" transform="translate(145.20665144512498 306.2109515796336) rotate(343.89894795786483 34 9)"><text x="0" y="15" font-family="Helvetica, Segoe UI Emoji" font-size="15.1923076923077px" fill="#2b8a3e" text-anchor="start" style="white-space: pre;" direction="ltr">get item 2</text></g><g stroke-linecap="round"><g stroke-opacity="0.7" fill-opacity="0.7" transform="translate(277.87883763160005 278.24073296638824) rotate(342.9526966806554 -103.84459184455687 -0.7255795943457315)"><path d="M1.15 -1.06 C-33.6 -1.58, -173.29 -2.13, -208.31 -2.46 M0.3 1 C-34.56 0.59, -173.85 -0.55, -208.84 -1.07" stroke="#2b8a3e" stroke-width="1" fill="none"></path></g><g stroke-opacity="0.7" fill-opacity="0.7" transform="translate(277.87883763160005 278.24073296638824) rotate(342.9526966806554 -103.84459184455687 -0.7255795943457315)"><path d="M-182.3 -9.69 C-189.96 -7.37, -199.88 -5.28, -209.21 -3.01 M-181.5 -11.38 C-191.23 -7.31, -203.3 -3.25, -208.45 -1.6" stroke="#2b8a3e" stroke-width="1" fill="none"></path></g><g stroke-opacity="0.7" fill-opacity="0.7" transform="translate(277.87883763160005 278.24073296638824) rotate(342.9526966806554 -103.84459184455687 -0.7255795943457315)"><path d="M-182.53 10.83 C-190.24 6.64, -200.08 2.21, -209.21 -3.01 M-181.72 9.14 C-191.25 5.04, -203.23 0.93, -208.45 -1.6" stroke="#2b8a3e" stroke-width="1" fill="none"></path></g></g><g stroke-opacity="0.7" fill-opacity="0.7" transform="translate(145.9637791483275 256.50090961759474) rotate(344.00301473358525 21 9.000000000000057)"><text x="0" y="15" font-family="Helvetica, Segoe UI Emoji" font-size="15.1923076923077px" fill="#2b8a3e" text-anchor="start" style="white-space: pre;" direction="ltr">item 2</text></g><g stroke-linecap="round" transform="translate(20.682057351521053 304.4764421160902) rotate(0 8.484960097376359 8.484960097376415)"><path d="M-0.27 6.39 C-0.27 6.39, -0.27 6.39, -0.27 6.39 M-0.27 6.39 C-0.27 6.39, -0.27 6.39, -0.27 6.39 M1.32 12.36 C1.7 10.06, 3.49 7.53, 10.57 2.17 M-0.46 11.58 C2.47 8.24, 4.86 5.45, 10.5 1.31 M3.23 13.01 C4.81 9.81, 8.19 9.52, 15.12 3.01 M2.31 14.21 C6.9 11.19, 9.82 6.95, 15.04 1.17 M6.06 18.03 C8.3 13.19, 12.99 11.92, 18.98 4.14 M6.54 16.9 C10.32 12.78, 12.54 9.11, 17.3 3.75 M12.82 16.21 C13.22 14.78, 16.03 12.48, 19.9 7.85 M11.58 17.43 C13.56 15.56, 15.42 12.96, 19.51 8.64 M0.64 12.98 C0.64 12.98, 0.64 12.98, 0.64 12.98 M0.64 12.98 C0.64 12.98, 0.64 12.98, 0.64 12.98 M7.66 14.45 C6.4 12.56, 4.19 11.21, -1.58 7.77 M7.31 13.47 C6 12.39, 3.77 10.27, -0.63 6.75 M13.94 14.89 C10.48 9.32, 4.72 7.28, 3.18 3.56 M13.15 14.07 C9.7 9.78, 5.52 5.77, 2.58 3.38 M17.03 11.14 C13.81 6.61, 8.84 2.99, 5.97 -0.6 M17.96 11.6 C13.14 8.98, 10.03 4.26, 4.79 0.76 M16.83 5.88 C14.16 3.68, 13.21 3.64, 7.91 -0.84 M16.51 5.55 C14.48 3.82, 11.49 1.48, 8.48 -0.67" stroke="#40c057" stroke-width="0.5" fill="none"></path><path d="M8.78 -0.95 C10.79 -0.99, 14.07 0.5, 15.28 1.74 C16.49 2.99, 16.07 4.53, 16.06 6.53 C16.05 8.53, 16.08 12.12, 15.23 13.77 C14.37 15.42, 12.59 15.96, 10.92 16.44 C9.25 16.93, 6.98 17.29, 5.23 16.68 C3.47 16.06, 1.3 14.47, 0.39 12.76 C-0.52 11.04, -0.86 8.16, -0.25 6.37 C0.36 4.57, 2.23 2.87, 4.06 1.98 C5.88 1.1, 9.59 1.25, 10.69 1.05 C11.79 0.84, 10.74 0.88, 10.65 0.77 M6.83 0 C8.64 -0.87, 10.58 -1.55, 12 -0.43 C13.42 0.69, 14.44 4.96, 15.35 6.7 C16.27 8.44, 17.72 8.5, 17.48 10.01 C17.24 11.53, 15.56 14.7, 13.92 15.81 C12.27 16.92, 9.76 16.75, 7.63 16.67 C5.5 16.58, 2.62 16.39, 1.13 15.28 C-0.36 14.18, -1.31 12.22, -1.34 10.04 C-1.36 7.86, -0.12 3.69, 1 2.21 C2.12 0.72, 4.2 1.48, 5.4 1.13 C6.61 0.79, 7.87 -0.05, 8.24 0.13" stroke="#343a40" stroke-width="1" fill="none"></path></g><g stroke-linecap="round"><g transform="translate(21.20378797842011 343.721276256288) rotate(0 9.91640004983418 -9.936309701785376)" fill-rule="evenodd"><path d="M-0.15 -17.36 C-0.15 -17.36, -0.15 -17.36, -0.15 -17.36 M-0.15 -17.36 C-0.15 -17.36, -0.15 -17.36, -0.15 -17.36 M0.54 -11.87 C1.06 -12.69, 2.41 -14.42, 6.84 -20.74 M0.17 -11.48 C2.15 -13.12, 2.85 -14.76, 7.24 -20.37 M0.98 -4.96 C5.07 -12.43, 8.91 -14.75, 12.62 -21.01 M0.23 -4.98 C4.13 -11.64, 8.81 -16.96, 13.21 -19.45 M0.36 1.13 C6.67 -5.19, 10.81 -8.3, 15.21 -19.74 M-0.1 1.04 C5.74 -5.11, 10.31 -9.18, 16.83 -19.51 M7.01 1.65 C10.35 -3.24, 13.96 -5.75, 17.83 -16.98 M5.46 1.57 C9.68 -5.98, 15.9 -11.18, 19.74 -15.5 M11.18 1.94 C13.64 -2.76, 14.59 -4.9, 21.51 -11.72 M9.65 0.45 C14.63 -4.23, 18.72 -7.95, 21.59 -11.52 M15.52 1.45 C17.15 -2.29, 18.7 -4.17, 22.15 -5.92 M15.7 1.09 C18.06 -1.35, 19.68 -4.12, 22.18 -6.95 M0 0 C0 0, 0 0, 0 0 M0 0 C0 0, 0 0, 0 0 M6.84 -0.52 C5.06 -2.12, 1.51 -3.96, -0.35 -5.61 M6.23 0.17 C4.55 -1.17, 2.72 -2.84, 0.49 -4.62 M13.71 1.72 C7.9 -2.65, 2.85 -9.2, -0.68 -9.35 M12.24 1.05 C8.04 -2.55, 4.45 -7.42, -0.3 -10.96 M16.81 0.26 C9.29 -6.54, 2.69 -13.06, 1.24 -16.08 M15.95 -1.12 C13.4 -5.2, 9.68 -6.77, 0.73 -15.23 M22.75 -4.83 C17.07 -6.66, 13.64 -11.63, 1.78 -19.71 M21.22 -3.68 C14.1 -9.08, 5.9 -16.09, 0.72 -19.94 M22.15 -8.41 C16.43 -9.46, 15.75 -13.24, 5.54 -21.62 M21.01 -8.2 C18.43 -11.29, 14.96 -12.42, 6.49 -19.65 M18.46 -15.73 C16.92 -17.36, 14.57 -18.54, 12.94 -19.87 M18.52 -15.62 C16.79 -16.69, 15.25 -18.49, 13.74 -20.04" stroke="#40c057" stroke-width="0.5" fill="none"></path><path d="M-0.3 0.14 C-0.4 -2.5, -2.08 -11.56, -1.67 -15 C-1.25 -18.43, -0.22 -19.45, 2.2 -20.48 C4.61 -21.51, 10.3 -21.6, 12.85 -21.2 C15.4 -20.79, 16.48 -21.64, 17.49 -18.05 C18.5 -14.46, 21.81 -2.62, 18.89 0.36 C15.97 3.33, 3.12 -0.22, -0.01 -0.2 M1.75 -0.84 C2.11 -3.38, 0.67 -10.57, 0.59 -13.72 C0.52 -16.88, -0.26 -18.65, 1.31 -19.77 C2.89 -20.89, 7.08 -20.7, 10.05 -20.45 C13.03 -20.19, 17.47 -21.62, 19.14 -18.26 C20.81 -14.9, 23.17 -3.05, 20.08 -0.28 C16.99 2.48, 4.11 -1.76, 0.62 -1.65" stroke="#343a40" stroke-width="1" fill="none"></path></g></g><g transform="translate(18 279.4306646915369) rotate(0 13.5 7)"><text x="0" y="12" font-family="Helvetica, Segoe UI Emoji" font-size="12.121371567680526px" fill="#343a40" text-anchor="start" style="white-space: pre;" direction="ltr">User</text></g><g stroke-linecap="round"><g stroke-opacity="0.7" fill-opacity="0.7" transform="translate(537.5155680100456 317.71609716137675) rotate(0 110.61248913531603 -20.44582723930307)"><path d="M-0.86 -0.51 C36.2 -7.26, 184.7 -33.82, 222.09 -40.38 M0.89 -1.82 C37.8 -8.48, 183.95 -33.27, 221.02 -39.46" stroke="#2b8a3e" stroke-width="1" fill="none"></path></g><g stroke-opacity="0.7" fill-opacity="0.7" transform="translate(537.5155680100456 317.71609716137675) rotate(0 110.61248913531603 -20.44582723930307)"><path d="M194.09 -25.02 C200.15 -26.58, 208.15 -34.32, 219.11 -40.17 M195.02 -24.26 C203.89 -29.54, 213.41 -35.54, 221.67 -39.16" stroke="#2b8a3e" stroke-width="1" fill="none"></path></g><g stroke-opacity="0.7" fill-opacity="0.7" transform="translate(537.5155680100456 317.71609716137675) rotate(0 110.61248913531603 -20.44582723930307)"><path d="M190.67 -45.25 C197.7 -41.22, 206.64 -43.4, 219.11 -40.17 M191.61 -44.49 C201.71 -42.42, 212.48 -41.07, 221.67 -39.16" stroke="#2b8a3e" stroke-width="1" fill="none"></path></g></g><g stroke-opacity="0.7" fill-opacity="0.7" transform="translate(591.460890127459 302.2079469207323) rotate(357.2736890060937 34 9)"><text x="0" y="15" font-family="Helvetica, Segoe UI Emoji" font-size="15.1923076923077px" fill="#2b8a3e" text-anchor="start" style="white-space: pre;" direction="ltr">get item 2</text></g><g stroke-linecap="round"><g stroke-opacity="0.7" fill-opacity="0.7" transform="translate(754.6785714285711 259.99349951183615) rotate(0 -111.53468246274684 17.477450147554805)"><path d="M-0.22 -1.16 C-37.16 4.74, -185.1 29, -222.52 34.93 M-1.79 0.84 C-38.72 6.94, -186.09 30.4, -222.85 36.12" stroke="#2b8a3e" stroke-width="1" fill="none"></path></g><g stroke-opacity="0.7" fill-opacity="0.7" transform="translate(754.6785714285711 259.99349951183615) rotate(0 -111.53468246274684 17.477450147554805)"><path d="M-198.54 23.55 C-203.77 23.15, -210.56 27.46, -221.58 36.09 M-197.12 22.04 C-204.5 25.63, -210.82 30.22, -222.3 37" stroke="#2b8a3e" stroke-width="1" fill="none"></path></g><g stroke-opacity="0.7" fill-opacity="0.7" transform="translate(754.6785714285711 259.99349951183615) rotate(0 -111.53468246274684 17.477450147554805)"><path d="M-195.34 43.82 C-201.22 38.79, -208.73 38.47, -221.58 36.09 M-193.92 42.31 C-202.23 40.17, -209.45 39.01, -222.3 37" stroke="#2b8a3e" stroke-width="1" fill="none"></path></g></g><g stroke-opacity="0.7" fill-opacity="0.7" transform="translate(595.9789999238677 245.46898931138037) rotate(357.2736890060937 21 9)"><text x="0" y="15" font-family="Helvetica, Segoe UI Emoji" font-size="15.1923076923077px" fill="#2b8a3e" text-anchor="start" style="white-space: pre;" direction="ltr">item 2</text></g><g stroke-linecap="round" transform="translate(744.04677164177 198.60848497229347) rotate(0 60.300924824048025 19.685084140931338)"><path d="M62.05 0.81 L118.68 19.87 L62.29 40.83 L-1.19 19.44" stroke="none" stroke-width="0" fill="#fd8888" fill-rule="evenodd"></path><path d="M62.19 -0.52 C82.98 8.36, 105.5 15.26, 118.96 21.03 M61.74 0.16 C79.72 6.81, 99.52 12.72, 121.14 19.23 M122.07 21.34 C97.89 26.85, 76.84 33.56, 60.5 41.25 M119.83 19.67 C107.27 24.27, 93.46 28.74, 61.14 38.68 M60.62 38.52 C40.72 33.75, 24.62 28.72, 1.26 20.24 M61.79 39.52 C37.52 32.42, 11.98 23.47, 0.36 20.18 M-0.99 18.3 C16.24 14.12, 28.23 11.19, 61.79 -1.56 M0.66 19.19 C24.22 11.73, 47.55 3.63, 61.23 -0.48" stroke="#c92a2a" stroke-width="1" fill="none"></path></g><g stroke-linecap="round" transform="translate(744.04677164177 189.11023291273193) rotate(0 60.300924824048025 19.685084140931338)"><path d="M61.81 -1.92 L120.47 21.29 L62.46 38.18 L-0.56 19.67" stroke="none" stroke-width="0" fill="#fd8888" fill-rule="evenodd"></path><path d="M60.48 -0.16 C84.01 7.13, 104.79 12.29, 121.64 20.55 M61.16 -0.9 C82.66 5.98, 102.98 14.16, 119.83 20.79 M121.94 19.96 C104.16 26.99, 87.97 30.05, 62.88 37.92 M120.27 20.29 C104.06 24.85, 87.92 30.21, 60.31 39.36 M60.15 37.39 C40.41 33.06, 21.19 27.82, 0.24 21.91 M61.15 39.83 C48.77 34.84, 34.78 32.15, 0.18 19.47 M-1.7 21.28 C21.13 11.21, 45.32 6.55, 59.44 1.75 M-0.81 20.62 C19.53 13.44, 38.84 6.93, 60.52 0.52" stroke="#c92a2a" stroke-width="1" fill="none"></path></g><g stroke-linecap="round" transform="translate(744.04677164177 175.58777860773205) rotate(0 60.300924824048025 19.685084140931338)"><path d="M59.08 -0.13 L121.89 21.46 L59.81 38.81 L-0.33 20.83" stroke="none" stroke-width="0" fill="#fd8888" fill-rule="evenodd"></path><path d="M60.84 1.54 C84.98 9.09, 106.52 16.97, 121.15 21.03 M60.1 0.59 C81.7 6.95, 104.01 13.33, 121.39 19.61 M120.56 18.93 C98.56 26.39, 72.88 37.67, 59.55 38.81 M120.89 19.57 C99.76 26.18, 79.12 32.59, 60.99 39.65 M59.02 38.96 C37.08 31.81, 14.06 24.04, 1.91 18.16 M61.46 39.89 C39.77 32.31, 20.99 26.87, -0.53 20.63 M1.28 18.91 C15.03 15.96, 34.41 7.97, 62.75 0.45 M0.62 20.04 C23.99 12.37, 47.75 4.39, 61.52 0.4" stroke="#c92a2a" stroke-width="1" fill="none"></path></g><g stroke-linecap="round" transform="translate(744.04677164177 162.1711944307026) rotate(0 60.300924824048025 19.685084140931338)"><path d="M60.87 1.29 L122.06 18.81 L60.44 39.04 L0.83 18.17" stroke="none" stroke-width="0" fill="#fd8888" fill-rule="evenodd"></path><path d="M62.54 0.34 C83.42 5.6, 104.84 14.98, 121.64 21.1 M61.59 -0.61 C83.29 8.56, 104.88 16.3, 120.21 20.97 M119.53 21.5 C96.77 26.72, 78.1 33, 60.44 40.33 M120.18 20.04 C106.91 24.62, 93.31 28.79, 61.28 40.32 M60.59 39.52 C44.28 34.58, 27.02 29.78, -1.84 20.59 M61.52 38.4 C37.11 32.68, 14.96 24.46, 0.63 19.75 M-1.09 18.17 C16.39 15.39, 29.18 11.34, 61.45 1.81 M0.04 20.3 C22.19 12.53, 44.37 5.5, 61.4 -0.96" stroke="#c92a2a" stroke-width="1" fill="none"></path></g><g transform="translate(772.5133114111441 122.21778098528648) rotate(0 29.5 12)"><text x="0" y="19" font-family="Helvetica, Segoe UI Emoji" font-size="20px" fill="#000000" text-anchor="start" style="white-space: pre;" direction="ltr">Cache</text></g><g stroke-linecap="round"><g stroke-opacity="0.7" fill-opacity="0.7" transform="translate(527.9507325003705 126.22894706081604) rotate(8.48166978200409 87.60197034551163 -3.1076056624917214)"><path d="M0.24 -0.62 C29.57 -1.86, 147.09 -6.79, 176.3 -7.89 M-1.1 1.67 C28.1 0.63, 146.37 -5.38, 175.66 -6.63" stroke="#5f3dc4" stroke-width="1" fill="none"></path></g><g stroke-opacity="0.7" fill-opacity="0.7" transform="translate(527.9507325003705 126.22894706081604) rotate(8.48166978200409 87.60197034551163 -3.1076056624917214)"><path d="M146.95 5.91 C156.17 0.76, 166.34 -4.38, 177.18 -5.03 M147.93 4.38 C158.25 -0.1, 168.06 -4.25, 175.54 -6.67" stroke="#5f3dc4" stroke-width="1" fill="none"></path></g><g stroke-opacity="0.7" fill-opacity="0.7" transform="translate(527.9507325003705 126.22894706081604) rotate(8.48166978200409 87.60197034551163 -3.1076056624917214)"><path d="M145.99 -14.59 C155.45 -13.05, 165.93 -11.48, 177.18 -5.03 M146.96 -16.12 C157.79 -13.12, 167.96 -9.79, 175.54 -6.67" stroke="#5f3dc4" stroke-width="1" fill="none"></path></g></g><g stroke-opacity="0.7" fill-opacity="0.7" transform="translate(594.1273736690138 132.14446990918748) rotate(365.75535878809774 34 9)"><text x="0" y="15" font-family="Helvetica, Segoe UI Emoji" font-size="15.1923076923077px" fill="#5f3dc4" text-anchor="start" style="white-space: pre;" direction="ltr">get item 1</text></g><g stroke-linecap="round"><g stroke-opacity="0.7" fill-opacity="0.7" transform="translate(695.6508019221885 95.7122382491616) rotate(8.48166978200409 -81.18456817403586 3.9847264610602338)"><path d="M0.58 -0.54 C-26.44 0.72, -134.68 5.53, -161.89 6.89 M-0.58 1.8 C-27.8 3.32, -136.32 7.84, -162.95 8.51" stroke="#5f3dc4" stroke-width="1" fill="none"></path></g><g stroke-opacity="0.7" fill-opacity="0.7" transform="translate(695.6508019221885 95.7122382491616) rotate(8.48166978200409 -81.18456817403586 3.9847264610602338)"><path d="M-136.02 -3.08 C-143.85 -0.71, -151.45 6.19, -161.65 10.06 M-134.87 -3.61 C-142.99 -0.53, -150.91 3.4, -162.44 8.52" stroke="#5f3dc4" stroke-width="1" fill="none"></path></g><g stroke-opacity="0.7" fill-opacity="0.7" transform="translate(695.6508019221885 95.7122382491616) rotate(8.48166978200409 -81.18456817403586 3.9847264610602338)"><path d="M-135.31 17.43 C-143.25 13.25, -151.09 13.58, -161.65 10.06 M-134.16 16.9 C-142.46 14.2, -150.58 12.36, -162.44 8.52" stroke="#5f3dc4" stroke-width="1" fill="none"></path></g></g><g stroke-opacity="0.7" fill-opacity="0.7" transform="translate(607.1396585369513 74.33256221247723) rotate(365.75535878809774 21 9)"><text x="0" y="15" font-family="Helvetica, Segoe UI Emoji" font-size="15.1923076923077px" fill="#5f3dc4" text-anchor="start" style="white-space: pre;" direction="ltr">item 1</text></g><g stroke-linecap="round"><g stroke-opacity="0.7" fill-opacity="0.7" transform="translate(879.0525545202233 205.27215749326785) rotate(0 127.06979444350429 -4.493477084848394)"><path d="M0.35 0.52 C42.91 -1.23, 212.52 -8.07, 255.06 -9.51 M-0.92 -0.25 C41.55 -1.36, 211.62 -6.77, 254.33 -8.43" stroke="#2b8a3e" stroke-width="1" fill="none"></path></g><g stroke-opacity="0.7" fill-opacity="0.7" transform="translate(879.0525545202233 205.27215749326785) rotate(0 127.06979444350429 -4.493477084848394)"><path d="M227.38 3.51 C232.61 1.28, 242.57 -2.26, 252.34 -6.88 M226.68 3.12 C233.75 -0.02, 239.13 -2.25, 255.27 -7.66" stroke="#2b8a3e" stroke-width="1" fill="none"></path></g><g stroke-opacity="0.7" fill-opacity="0.7" transform="translate(879.0525545202233 205.27215749326785) rotate(0 127.06979444350429 -4.493477084848394)"><path d="M226.67 -17 C232.27 -13.6, 242.42 -11.51, 252.34 -6.88 M225.97 -17.39 C233.19 -15.65, 238.74 -13.01, 255.27 -7.66" stroke="#2b8a3e" stroke-width="1" fill="none"></path></g></g><g stroke-opacity="0.7" fill-opacity="0.7" transform="translate(968.188487252889 207.492452880354) rotate(357.2736890060937 34 9)"><text x="0" y="15" font-family="Helvetica, Segoe UI Emoji" font-size="15.1923076923077px" fill="#2b8a3e" text-anchor="start" style="white-space: pre;" direction="ltr">get item 2</text></g><g stroke-linecap="round"><g stroke-opacity="0.7" fill-opacity="0.7" transform="translate(1130.6918828397158 173.1351483286005) rotate(0 -125.14693305645847 4.238692986070532)"><path d="M0.42 -0.87 C-41.35 0.6, -208.45 7.93, -250.28 9.35 M-0.82 1.29 C-42.69 2.35, -209.03 6.33, -250.72 7.5" stroke="#2b8a3e" stroke-width="1" fill="none"></path></g><g stroke-opacity="0.7" fill-opacity="0.7" transform="translate(1130.6918828397158 173.1351483286005) rotate(0 -125.14693305645847 4.238692986070532)"><path d="M-224.25 -1.84 C-231.08 1.42, -243.14 5.4, -251.96 7.31 M-222.18 -3.77 C-230.45 -0.46, -235.97 2.93, -250.49 8.17" stroke="#2b8a3e" stroke-width="1" fill="none"></path></g><g stroke-opacity="0.7" fill-opacity="0.7" transform="translate(1130.6918828397158 173.1351483286005) rotate(0 -125.14693305645847 4.238692986070532)"><path d="M-223.72 18.67 C-230.81 15.18, -243.04 12.4, -251.96 7.31 M-221.66 16.74 C-230.09 14.86, -235.74 13.06, -250.49 8.17" stroke="#2b8a3e" stroke-width="1" fill="none"></path></g></g><g stroke-opacity="0.7" fill-opacity="0.7" transform="translate(972.7065970492981 150.75349527100116) rotate(357.2736890060937 21 9)"><text x="0" y="15" font-family="Helvetica, Segoe UI Emoji" font-size="15.1923076923077px" fill="#2b8a3e" text-anchor="start" style="white-space: pre;" direction="ltr">item 2</text></g><g stroke-opacity="0.7" fill-opacity="0.7" transform="translate(782.4418828397156 172.36063812814405) rotate(0 21 9)"><text x="0" y="15" font-family="Helvetica, Segoe UI Emoji" font-size="15.1923076923077px" fill="#000000" text-anchor="start" style="white-space: pre;" direction="ltr">item 1</text></g></svg>